<svg id="圖層_1" data-name="圖層 1" xmlns="http://www.w3.org/2000/svg" xmlns:xlink="http://www.w3.org/1999/xlink" viewBox="0 0 113.95 112.18">
    <defs>
        <style>.cls-1,.cls-4{fill:none;}.cls-2{clip-path:url(#clip-path);}.cls-3{fill:#fff;}.cls-4{stroke:#191919;}.cls-4,.cls-5{stroke-miterlimit:10;}.cls-5{stroke:#fff;}
        </style>
        <clipPath id="clip-path" transform="translate(-1.76)">
            <rect class="cls-1" x="3.7" y="0.77" width="110.63" height="110.63"/>
        </clipPath>
    </defs>
    <title>logo4</title>
    <g class="cls-2">
        <rect class="cls-3" x="1.94" y="0.77" width="110.63" height="110.63"/>
        <rect class="cls-4" x="1.94" y="0.77" width="110.63" height="110.63"/>
        <rect class="cls-4" x="1.94" y="0.77" width="110.63" height="110.63"/>
        <path class="cls-5" d="M55.3,56a1.18,1.18,0,0,0,1.29,1.16c1.3,0,2.09-.8,6.34-4l1.29,1.87c-3.45,3.45-9.57,9.29-14.69,9.29-2.59,0-3.67-2-3.67-4.32,0-.58-1.08-.51,5.26-12.17l-15.7.5L20.66,63.05c-1.73,1.73-4.46,4.75-7.06,4.75-1.08,0-2.52-.21-2.52-1.58,0-2.38,5.55-9.29,12.32-11.67L29,48.36c-4.61.15-7,.43-7-1.44,0-1.37,5.25-7.42,9.07-8.64,2.81-.94,6.7-1.51,6.7-.5,0,1.29-5.26.64-5.26,1.94,0,.5.65.65,1,.65,1.15-.07,4.1-.22,4.39-.22L54.07,26.76C61.13,20.93,69.77,14.37,73,14.37c1.51,0,2.52,1.8,2.52,3.1,0,1.51-1.51,4-2.23,5.26L64.37,38.35c5.33,0,2.09-.72,6.62.29a49.34,49.34,0,0,0-5.4,8.21l-5.76.29ZM66.24,22.22l-.14-.14L45.29,39.29l.14.14,11-.79Z" transform="translate(-1.76)"/>
        <path class="cls-5" d="M67.07,84.88l-7.49,8.78c-.86,1.22-2.45,4.1-4.18,4.1-1.58,0-3.52-1.43-3.52-3.09,0-2,5.11-7,6.12-8.93-5,.43-7.35-.5-7.35-2.95,0-1.66,2.09-5.47,4-5.47.5,0,1.08.5,1.65.5.79,0,.87-.5,11.81-2.59,2.74-2.67,7.92-8.28,14.26-15.48.93-1,3-3.53,3-5s-1.65-1.59-2.52-1.59c-3.81,0-12.89,2.67-24.7,7.56.51.22,1,.44,1,1.08,0,1-.93,1.44-1.8,1.73-5.4,1.87-4.89,2-9.86,4.47a7,7,0,0,1-2.88,1c-1.66,0-2.16-2-2.16-3.31A17.35,17.35,0,0,1,45,57.8c2.6-2.95,14.62-6.91,18.73-8.21a79.82,79.82,0,0,1,21.24-3.67c6,0,7.77,3.53,7.77,7.06,0,4.46-4.32,8.78-7.2,11.88L77.37,73.5l11.09-1.3,13-16.34c.86-1.16,3.89-5.19,5.4-5.19.94,0,1.22.87,1.22,1.66,0,2.3-.5,3.67-5.9,10.3L94.43,72.2c3.31.07,6.84,0,9.8,1.8a37.15,37.15,0,0,0-8.65,9.65,23.38,23.38,0,0,0-7.34-.5C87.16,85,84.5,88.4,84.5,90.56a23.47,23.47,0,0,0,.79,4.32c-2.31-.5-6,3-7.85,2.38-1.22-.43-1.66-1.44-1.3-3.6s1.51-5.47,4.18-10.51Z" transform="translate(-1.76)"/>
        <path d="M96.09,0c19.62,0,19,40.52,19.62,0" transform="translate(-1.76)"/>
        <path d="M21.38,112.18c-19.62,0-19-40.52-19.62,0" transform="translate(-1.76)"/>
    </g>
</svg>