<svg width="20" height="20" viewBox="0 0 20 20" fill="none" xmlns="http://www.w3.org/2000/svg">
<g clip-path="url(#clipsdjfnsjkndnnnvjfoiioijenfjl0)">
<path d="M9.85547 13.3862C9.87191 13.4091 9.89353 13.4276 9.91856 13.4405C9.9436 13.4533 9.97132 13.46 9.99944 13.46C10.0276 13.46 10.0553 13.4533 10.0803 13.4405C10.1053 13.4276 10.127 13.4091 10.1434 13.3862L14.1166 7.89518C14.2014 7.77687 14.1166 7.61169 13.9715 7.61169L12.9247 7.61169C12.697 7.61169 12.4805 7.72107 12.3465 7.90634L10.0006 11.1519L7.65234 7.90634C7.51841 7.72107 7.30413 7.61169 7.07422 7.61169L6.02734 7.61169C5.88225 7.61169 5.79743 7.77687 5.88225 7.89517L9.85547 13.3862Z" fill="black" fill-opacity="0.65"/>
<path d="M10 20C15.5223 20 20 15.5223 20 10C20 4.47768 15.5223 -3.91451e-07 10 -8.74228e-07C4.47768 -1.35701e-06 1.357e-06 4.47768 8.74227e-07 10C3.91451e-07 15.5223 4.47768 20 10 20ZM10 1.69643C14.5848 1.69643 18.3036 5.41518 18.3036 10C18.3036 14.5848 14.5848 18.3036 10 18.3036C5.41518 18.3036 1.69643 14.5848 1.69643 10C1.69643 5.41518 5.41518 1.69643 10 1.69643Z" fill="black" fill-opacity="0.65"/>
</g>
<defs>
<clipPath id="clipsdjfnsjkndnnnvjfoiioijenfjl0">
<rect width="20" height="20" fill="white" transform="translate(20 20) rotate(-180)"/>
</clipPath>
</defs>
</svg>
