<svg width="18" height="20" viewBox="0 0 18 20" fill="currentColor" xmlns="http://www.w3.org/2000/svg">
<path d="M9.288 0.527999C6.648 0.527999 4.584 1.368 3.096 3.096C1.656 4.728 0.96 6.84 0.96 9.456C0.96 12.048 1.656 14.16 3.096 15.792C4.584 17.472 6.648 18.336 9.288 18.336C11.016 18.336 12.528 17.952 13.776 17.232C14.4 18.048 15.024 18.936 15.672 19.872L17.496 18.288C16.872 17.376 16.224 16.512 15.6 15.696C16.944 14.112 17.64 12.024 17.64 9.456C17.64 6.816 16.92 4.68 15.48 3.072C13.968 1.368 11.904 0.527999 9.288 0.527999ZM9.288 3C11.064 3 12.432 3.552 13.392 4.704C14.328 5.856 14.808 7.44 14.808 9.456C14.808 11.112 14.472 12.48 13.848 13.536C13.032 12.576 12.192 11.64 11.352 10.752L9.72 12.336C10.512 13.176 11.328 14.112 12.192 15.168C11.376 15.624 10.416 15.864 9.288 15.864C7.512 15.864 6.12 15.264 5.16 14.088C4.224 12.936 3.768 11.4 3.768 9.456C3.768 7.488 4.224 5.952 5.16 4.8C6.144 3.6 7.512 3 9.288 3Z" />
</svg>
