<svg width="16" height="16" viewBox="0 0 16 16" fill="currentColor" fill-opacity="0.65" xmlns="http://www.w3.org/2000/svg">
<path d="M14.1879 12.4931C13.8511 11.6951 13.3622 10.9704 12.7486 10.3591C12.1369 9.7461 11.4123 9.25735 10.6147 8.91984C10.6076 8.91627 10.6004 8.91448 10.5933 8.91091C11.7058 8.10734 12.429 6.79841 12.429 5.32162C12.429 2.87519 10.4469 0.893051 8.00043 0.893051C5.554 0.893051 3.57186 2.87519 3.57186 5.32162C3.57186 6.79841 4.29508 8.10734 5.40758 8.91269C5.40043 8.91627 5.39329 8.91805 5.38615 8.92162C4.58615 9.25912 3.86829 9.74305 3.25222 10.3609C2.6392 10.9726 2.15044 11.6973 1.81293 12.4948C1.48137 13.2756 1.30254 14.1128 1.28615 14.9609C1.28567 14.98 1.28901 14.9989 1.29598 15.0167C1.30294 15.0344 1.31339 15.0506 1.3267 15.0642C1.34002 15.0779 1.35593 15.0887 1.3735 15.0961C1.39107 15.1035 1.40994 15.1073 1.429 15.1073H2.50043C2.579 15.1073 2.6415 15.0448 2.64329 14.9681C2.679 13.5895 3.23258 12.2984 4.21115 11.3198C5.22365 10.3073 6.56829 9.75019 8.00043 9.75019C9.43258 9.75019 10.7772 10.3073 11.7897 11.3198C12.7683 12.2984 13.3219 13.5895 13.3576 14.9681C13.3594 15.0466 13.4219 15.1073 13.5004 15.1073H14.5719C14.5909 15.1073 14.6098 15.1035 14.6274 15.0961C14.6449 15.0887 14.6608 15.0779 14.6742 15.0642C14.6875 15.0506 14.6979 15.0344 14.7049 15.0167C14.7119 14.9989 14.7152 14.98 14.7147 14.9609C14.6969 14.1073 14.5201 13.277 14.1879 12.4931ZM8.00043 8.39305C7.18079 8.39305 6.40936 8.07341 5.829 7.49305C5.24865 6.91269 4.929 6.14127 4.929 5.32162C4.929 4.50198 5.24865 3.73055 5.829 3.15019C6.40936 2.56984 7.18079 2.25019 8.00043 2.25019C8.82008 2.25019 9.5915 2.56984 10.1719 3.15019C10.7522 3.73055 11.0719 4.50198 11.0719 5.32162C11.0719 6.14127 10.7522 6.91269 10.1719 7.49305C9.5915 8.07341 8.82008 8.39305 8.00043 8.39305Z" />
</svg>
