<svg width="16" height="16" viewBox="0 0 16 16" fill="currentColor" fill-opacity="0.65" xmlns="http://www.w3.org/2000/svg">
<path d="M3.33333 1.33333C2.598 1.33333 2 1.93133 2 2.66666V10.6667C2 11.402 2.598 12 3.33333 12H5.724L8 14.276L10.276 12H12.6667C13.402 12 14 11.402 14 10.6667V2.66666C14 1.93133 13.402 1.33333 12.6667 1.33333H3.33333ZM12.6667 10.6667H9.724L8 12.3907L6.276 10.6667H3.33333V2.66666H12.6667V10.6667Z"/>
<path d="M4.66675 4.66667H11.3334V6.00001H4.66675V4.66667ZM4.66675 7.33334H9.33341V8.66667H4.66675V7.33334Z" />
</svg>
