<svg width="40" height="40" viewBox="0 0 40 40" fill="currentColor" xmlns="http://www.w3.org/2000/svg">
<path d="M36.667 0.883118H3.3337C2.89167 0.883118 2.46775 1.05871 2.15519 1.37127C1.84262 1.68383 1.66703 2.10776 1.66703 2.54978V31.6664C1.66703 32.1085 1.84262 32.5324 2.15519 32.845C2.46775 33.1575 2.89167 33.3331 3.3337 33.3331H5.00036V37.3998C5.00036 37.8418 5.17596 38.2657 5.48852 38.5783C5.80108 38.8909 6.225 39.0664 6.66703 39.0664H13.7837C14.2257 39.0664 14.6496 38.8909 14.9622 38.5783C15.2748 38.2657 15.4504 37.8418 15.4504 37.3998V33.3331H24.4504V37.3998C24.4504 37.8418 24.626 38.2657 24.9385 38.5783C25.2511 38.8909 25.675 39.0664 26.117 39.0664H33.3337C33.7757 39.0664 34.1996 38.8909 34.5122 38.5783C34.8248 38.2657 35.0004 37.8418 35.0004 37.3998V33.3331H36.667C37.1091 33.3331 37.533 33.1575 37.8455 32.845C38.1581 32.5324 38.3337 32.1085 38.3337 31.6664V2.58312C38.3381 2.36146 38.2983 2.14114 38.2165 1.93507C38.1348 1.729 38.0127 1.54131 37.8575 1.383C37.7023 1.22469 37.517 1.09893 37.3126 1.0131C37.1082 0.927262 36.8887 0.883073 36.667 0.883118ZM35.367 3.88312V20.9664H4.60036V3.88312H35.367ZM12.5004 36.1164H7.9337V33.3331H12.5004V36.1164ZM32.067 36.1164H27.5004V33.3331H32.067V36.1164ZM33.3337 30.3331H4.60036V22.6331H35.4004V30.3331H33.3337Z" />
<path d="M29.7839 28.6339C30.8885 28.6339 31.7839 27.7384 31.7839 26.6339C31.7839 25.5293 30.8885 24.6339 29.7839 24.6339C28.6794 24.6339 27.7839 25.5293 27.7839 26.6339C27.7839 27.7384 28.6794 28.6339 29.7839 28.6339Z" />
<path d="M10.217 28.6339C11.3216 28.6339 12.217 27.7384 12.217 26.6339C12.217 25.5293 11.3216 24.6339 10.217 24.6339C9.11242 24.6339 8.21699 25.5293 8.21699 26.6339C8.21699 27.7384 9.11242 28.6339 10.217 28.6339Z" />
<path d="M13.5502 16.8832C14.0265 16.8406 14.4847 16.6803 14.8835 16.4166C15.2532 16.1489 15.551 15.7939 15.7502 15.3832C15.9525 14.9734 16.0607 14.5236 16.0669 14.0665C16.0754 13.5321 15.9053 13.01 15.5835 12.5832C15.2324 12.1298 14.7395 11.8071 14.1835 11.6666C14.6003 11.476 14.9533 11.1693 15.2002 10.7832C15.4515 10.4025 15.5849 9.95607 15.5835 9.49988C15.5839 9.08972 15.4746 8.68691 15.2669 8.33322C15.0804 8.0042 14.8245 7.71981 14.5169 7.49988C14.1981 7.29571 13.8407 7.15953 13.4669 7.09988C12.9146 7.02494 12.3575 6.99152 11.8002 6.99988H7.75019V16.9999H11.0835C12.4002 16.9332 13.2169 16.9166 13.5502 16.8832ZM9.75019 8.68322H10.9002C11.8502 8.68322 12.4169 8.68322 12.5669 8.68322C12.7142 8.69062 12.8584 8.7285 12.9904 8.79449C13.1224 8.86047 13.2392 8.95311 13.3335 9.06655C13.4261 9.1672 13.4975 9.2855 13.5433 9.41437C13.5891 9.54324 13.6085 9.68003 13.6002 9.81655C13.6098 9.95572 13.5911 10.0954 13.5453 10.2272C13.4995 10.3589 13.4274 10.48 13.3335 10.5832C13.1117 10.7934 12.8221 10.9175 12.5169 10.9332C12.0339 10.9593 11.5498 10.9593 11.0669 10.9332H9.75019V8.68322ZM9.75019 12.6166H11.4169C12.0154 12.5837 12.6156 12.6341 13.2002 12.7666C13.45 12.853 13.6697 13.0091 13.8335 13.2166C13.9767 13.4465 14.0519 13.7123 14.0502 13.9832C14.0647 14.2869 13.9634 14.5847 13.7669 14.8166C13.5764 15.0311 13.3171 15.1726 13.0335 15.2166C12.5785 15.2482 12.1219 15.2482 11.6669 15.2166H9.75019V12.6166Z" />
<path d="M18.7834 16.7825C19.1801 17.0055 19.6284 17.1204 20.0834 17.1158C20.5521 17.1156 21.0138 17.0017 21.4289 16.784C21.8439 16.5663 22.2001 16.2513 22.4667 15.8658V16.9492H24.2334V9.76584H22.3334V12.7992C22.3624 13.4466 22.3176 14.0952 22.2001 14.7325C22.0923 15.0027 21.9067 15.2348 21.6667 15.3992C21.4033 15.5694 21.0971 15.6618 20.7834 15.6658C20.5347 15.6755 20.2894 15.6055 20.0834 15.4658C19.9146 15.3491 19.7818 15.1874 19.7001 14.9992C19.6065 14.3872 19.5731 13.7676 19.6001 13.1492V9.81584H17.7001V14.2992C17.6676 14.866 17.7527 15.4335 17.9501 15.9658C18.1335 16.3201 18.4255 16.6063 18.7834 16.7825Z" />
<path d="M28.9835 15.7325C28.6116 15.7581 28.242 15.6583 27.9335 15.4491C27.6692 15.2383 27.4962 14.934 27.4501 14.5991L25.5335 14.8991C25.6856 15.5742 26.0837 16.1684 26.6501 16.5658C27.3478 17.0008 28.1625 17.2104 28.9835 17.1658C29.8539 17.2226 30.7161 16.9686 31.4168 16.4491C31.6709 16.2508 31.8776 15.9983 32.0218 15.71C32.166 15.4216 32.244 15.1048 32.2501 14.7825C32.2719 14.5121 32.2306 14.2404 32.1293 13.9887C32.0281 13.7371 31.8698 13.5124 31.6668 13.3325C31.0318 12.8979 30.3093 12.6078 29.5501 12.4825C28.9325 12.3942 28.3315 12.2145 27.7668 11.9491C27.7046 11.9122 27.6531 11.8598 27.6174 11.797C27.5816 11.7342 27.5628 11.6631 27.5628 11.5908C27.5628 11.5185 27.5816 11.4474 27.6174 11.3846C27.6531 11.3218 27.7046 11.2694 27.7668 11.2325C28.0943 11.0596 28.4645 10.9844 28.8335 11.0158C29.1541 10.9912 29.4745 11.0669 29.7501 11.2325C29.9722 11.3891 30.1317 11.6194 30.2001 11.8825L31.9835 11.5491C31.8425 10.9714 31.4921 10.4666 31.0001 10.1325C30.3269 9.76743 29.5644 9.59989 28.8001 9.64913C27.9884 9.58693 27.1805 9.81101 26.5168 10.2825C26.2869 10.4736 26.102 10.7131 25.9752 10.9839C25.8485 11.2547 25.783 11.5501 25.7835 11.8491C25.7625 12.1777 25.8303 12.5058 25.9799 12.7991C26.1294 13.0923 26.3552 13.3399 26.6335 13.5158C27.552 13.9748 28.5358 14.2896 29.5501 14.4491C29.7762 14.488 29.9918 14.5731 30.1835 14.6991C30.2689 14.7771 30.3224 14.884 30.3335 14.9991C30.3368 15.0991 30.3158 15.1983 30.2723 15.2883C30.2287 15.3783 30.1639 15.4564 30.0835 15.5158C29.748 15.7001 29.3637 15.7758 28.9835 15.7325Z"/>
</svg>
