<svg width="40" height="40" viewBox="0 0 40 40" fill="currentColor" xmlns="http://www.w3.org/2000/svg">
<g clip-path="url(#clip00001s2d555)">
<path d="M6.76923 28.9649V24.6955C6.76923 24.482 6.5641 24.2686 6.35897 24.2686H4.51282C4.30769 24.2686 4.10256 24.482 4.10256 24.6955V26.6168H0V29.3919H6.35897C6.5641 29.3919 6.76923 29.1784 6.76923 28.9649Z" />
<path d="M11.8974 25.1224C12.3077 25.1224 12.9231 24.9089 13.3333 24.482C13.7436 24.055 13.9487 23.6281 13.9487 22.9877C13.9487 22.5607 13.7436 21.9203 13.3333 21.4934C12.9231 21.2799 12.5128 21.0664 11.8974 21.0664C11.4872 21.0664 10.8718 21.2799 10.4615 21.7068C10.2564 22.1338 10.0513 22.5607 10.0513 23.2011C10.0513 23.6281 10.2564 24.2685 10.6667 24.6954C10.8718 24.9089 11.4872 25.1224 11.8974 25.1224Z" />
<path d="M21.5385 15.0892V14.8757L20.3077 12.741L20.1026 12.5275H19.8974L17.4359 14.0218L13.5385 3.13472C13.3333 2.49431 13.1282 2.06736 12.5128 1.64042C11.8974 1.21347 11.2821 1 10.6667 1H0V4.62903H10.4615L14.1538 15.0892H0V17.8643H14.9744L15.7949 19.999V31.9535H0V35.5825H13.1282L13.5385 37.2903C13.7436 37.9307 14.1538 38.3577 14.7692 38.3577H18.0513C18.6667 38.3577 19.282 37.7172 19.282 36.8634V19.5721C19.282 19.3586 19.282 19.1452 19.282 19.1452L18.4615 17.0104L21.3333 15.3026L21.5385 15.0892Z" />
<path d="M31.7948 22.9877C27.282 22.9877 23.5897 19.1452 23.5897 14.4488C23.5897 9.75242 27.282 5.90991 31.7948 5.90991C36.3077 5.90991 40 9.75242 40 14.4488C40 19.1452 36.3077 22.9877 31.7948 22.9877ZM31.7948 8.68505C28.7179 8.68505 26.4615 11.2467 26.4615 14.2353C26.4615 17.2239 28.9231 19.7856 31.7948 19.7856C34.6666 19.7856 37.1282 17.2239 37.1282 14.2353C37.1282 11.2467 34.8718 8.68505 31.7948 8.68505Z" />
<path d="M32.8205 21.9202H30.7692V36.8632H32.8205V21.9202Z" />
<path d="M35.2821 38.3576H28.5128C28.1026 38.3576 27.8975 38.0908 27.8975 37.5571V35.956C27.8975 35.4224 28.1026 35.1555 28.5128 35.1555H35.2821C35.6923 35.1555 35.8975 35.4224 35.8975 35.956V37.5571C35.8975 37.8239 35.6923 38.3576 35.2821 38.3576Z" />
</g>
<defs>
<clipPath id="clip00001s2d555">
<rect width="40" height="37.7846" fill="currentColor" transform="translate(0 1)"/>
</clipPath>
</defs>
</svg>
