<svg width="16" height="16" viewBox="0 0 16 16" fill="none" xmlns="http://www.w3.org/2000/svg">
<path d="M12.8041 14.4178L14.6744 12.5457C14.9029 12.3172 15.0312 12.0113 15.0312 11.6879C15.0312 11.3645 14.9047 11.0586 14.6744 10.8301L12.6617 8.81387C12.4332 8.58535 12.1256 8.45703 11.8021 8.45703C11.477 8.45703 11.1729 8.58359 10.9426 8.81387L9.36582 10.3889C8.52983 10.0301 7.77026 9.51454 7.12812 8.87012C6.47949 8.225 5.96797 7.4709 5.60586 6.63418L7.18262 5.05918C7.41113 4.83066 7.53945 4.5248 7.53945 4.20137C7.54004 4.04183 7.50879 3.88379 7.44751 3.73649C7.38624 3.58919 7.29618 3.4556 7.18262 3.34355L5.16992 1.32559C4.94141 1.09707 4.63379 0.96875 4.31035 0.96875C3.98516 0.96875 3.68106 1.09531 3.45078 1.32559L1.58047 3.1959C1.19023 3.58613 0.966992 4.12402 0.966992 4.67598C0.966992 4.79023 0.975781 4.90098 0.995117 5.01348C1.37832 7.34082 2.61758 9.65058 4.48086 11.5156C6.34766 13.3789 8.65742 14.6164 10.9865 15.0031C11.6475 15.1139 12.3277 14.8924 12.8041 14.4178ZM11.1957 13.7568C9.12324 13.4141 7.05605 12.2996 5.37734 10.6209C3.69863 8.94219 2.58418 6.87676 2.24141 4.8043C2.19746 4.54414 2.28535 4.27695 2.47344 4.08711L4.31035 2.25019L6.25977 4.19785L4.15039 6.30371L4.13457 6.31953L4.27519 6.69922C4.69847 7.85046 5.36701 8.89589 6.23449 9.76307C7.10197 10.6302 8.14763 11.2984 9.29902 11.7213L9.67871 11.8619L11.8004 9.73848L13.7498 11.6861L11.9129 13.523C11.723 13.7129 11.4559 13.8008 11.1957 13.7568Z" fill="#1890FF"/>
</svg>
