<svg width="18" height="18" viewBox="0 0 18 18" fill="none" xmlns="http://www.w3.org/2000/svg">
<path d="M11.917 0.666687H8.79199C8.62623 0.666687 8.46726 0.732535 8.35005 0.849745C8.23284 0.966955 8.16699 1.12593 8.16699 1.29169V4.05835C6.77855 4.25911 5.50892 4.95337 4.59066 6.01396C3.67239 7.07455 3.16698 8.43048 3.16699 9.83335H2.54199C2.04471 9.83335 1.5678 10.0309 1.21617 10.3825C0.864536 10.7342 0.666992 11.2111 0.666992 11.7084V16.7084C0.666992 17.0534 0.946992 17.3334 1.29199 17.3334H7.33366C7.38891 17.3334 7.4419 17.3114 7.48097 17.2723C7.52004 17.2333 7.54199 17.1803 7.54199 17.125V14.625C7.54199 14.5145 7.58589 14.4085 7.66403 14.3304C7.74217 14.2523 7.84815 14.2084 7.95866 14.2084H10.042C10.1525 14.2084 10.2585 14.2523 10.3366 14.3304C10.4148 14.4085 10.4587 14.5145 10.4587 14.625V17.125C10.4587 17.24 10.552 17.3334 10.667 17.3334H16.7087C16.8744 17.3334 17.0334 17.2675 17.1506 17.1503C17.2678 17.0331 17.3337 16.8741 17.3337 16.7084V11.7084C17.3337 11.2111 17.1361 10.7342 16.7845 10.3825C16.4329 10.0309 15.9559 9.83335 15.4587 9.83335H14.8337C14.8336 8.3584 14.2749 6.93822 13.2699 5.85867C12.2648 4.77913 10.8882 4.12037 9.41699 4.01502V3.16669H11.917C12.0275 3.16669 12.1335 3.12279 12.2116 3.04465C12.2898 2.96651 12.3337 2.86053 12.3337 2.75002V1.08335C12.3337 0.972847 12.2898 0.866866 12.2116 0.788726C12.1335 0.710586 12.0275 0.666687 11.917 0.666687ZM11.917 8.79169V10.4584C11.917 10.6241 11.8511 10.7831 11.7339 10.9003C11.6167 11.0175 11.4578 11.0834 11.292 11.0834C11.1262 11.0834 10.9673 11.0175 10.8501 10.9003C10.7328 10.7831 10.667 10.6241 10.667 10.4584V8.79169C10.667 8.62593 10.7328 8.46696 10.8501 8.34975C10.9673 8.23254 11.1262 8.16669 11.292 8.16669C11.4578 8.16669 11.6167 8.23254 11.7339 8.34975C11.8511 8.46696 11.917 8.62593 11.917 8.79169ZM8.79199 8.16669C8.95775 8.16669 9.11672 8.23254 9.23393 8.34975C9.35114 8.46696 9.41699 8.62593 9.41699 8.79169V10.4584C9.41699 10.6241 9.35114 10.7831 9.23393 10.9003C9.11672 11.0175 8.95775 11.0834 8.79199 11.0834C8.62623 11.0834 8.46726 11.0175 8.35005 10.9003C8.23284 10.7831 8.16699 10.6241 8.16699 10.4584V8.79169C8.16699 8.62593 8.23284 8.46696 8.35005 8.34975C8.46726 8.23254 8.62623 8.16669 8.79199 8.16669ZM6.91699 8.79169V10.4584C6.91699 10.6241 6.85114 10.7831 6.73393 10.9003C6.61672 11.0175 6.45775 11.0834 6.29199 11.0834C6.12623 11.0834 5.96726 11.0175 5.85005 10.9003C5.73284 10.7831 5.66699 10.6241 5.66699 10.4584V8.79169C5.66699 8.62593 5.73284 8.46696 5.85005 8.34975C5.96726 8.23254 6.12623 8.16669 6.29199 8.16669C6.45775 8.16669 6.61672 8.23254 6.73393 8.34975C6.85114 8.46696 6.91699 8.62593 6.91699 8.79169ZM3.79199 11.9167C3.95775 11.9167 4.11672 11.9825 4.23393 12.0997C4.35114 12.217 4.41699 12.3759 4.41699 12.5417V14.625C4.41699 14.7908 4.35114 14.9498 4.23393 15.067C4.11672 15.1842 3.95775 15.25 3.79199 15.25C3.62623 15.25 3.46726 15.1842 3.35005 15.067C3.23284 14.9498 3.16699 14.7908 3.16699 14.625V12.5417C3.16699 12.3759 3.23284 12.217 3.35005 12.0997C3.46726 11.9825 3.62623 11.9167 3.79199 11.9167ZM14.8337 12.5417V14.625C14.8337 14.7908 14.7678 14.9498 14.6506 15.067C14.5334 15.1842 14.3744 15.25 14.2087 15.25C14.0429 15.25 13.8839 15.1842 13.7667 15.067C13.6495 14.9498 13.5837 14.7908 13.5837 14.625V12.5417C13.5837 12.3759 13.6495 12.217 13.7667 12.0997C13.8839 11.9825 14.0429 11.9167 14.2087 11.9167C14.3744 11.9167 14.5334 11.9825 14.6506 12.0997C14.7678 12.217 14.8337 12.3759 14.8337 12.5417Z" fill="#4DB8BE"/>
</svg>
