<svg width="16" height="16" viewBox="0 0 16 16" fill="none" xmlns="http://www.w3.org/2000/svg">
<path d="M7.99967 1.33331C4.32367 1.33331 1.33301 4.32398 1.33301 7.99998C1.33301 11.676 4.32367 14.6666 7.99967 14.6666C11.6757 14.6666 14.6663 11.676 14.6663 7.99998C14.6663 4.32398 11.6757 1.33331 7.99967 1.33331ZM7.99967 13.3333C5.05901 13.3333 2.66634 10.9406 2.66634 7.99998C2.66634 5.05931 5.05901 2.66665 7.99967 2.66665C10.9403 2.66665 13.333 5.05931 13.333 7.99998C13.333 10.9406 10.9403 13.3333 7.99967 13.3333Z" fill="#1890FF"/>
<path d="M8.66634 4.66669H7.33301V8.27602L9.52834 10.4714L10.471 9.52869L8.66634 7.72402V4.66669Z" fill="#1890FF"/>
</svg>
