<svg width="40" height="40" viewBox="0 0 40 40" fill="currentColor" xmlns="http://www.w3.org/2000/svg">
<path d="M33.1499 32.3167C31.6554 28.7776 28.8391 25.9612 25.2999 24.4667C26.9627 23.2623 28.2012 21.5621 28.8378 19.6101C29.4744 17.6581 29.4763 15.5547 28.8432 13.6016C28.2101 11.6484 26.9747 9.94604 25.3141 8.73863C23.6535 7.53122 21.6531 6.88086 19.5999 6.88086C17.5468 6.88086 15.5464 7.53122 13.8858 8.73863C12.2252 9.94604 10.9897 11.6484 10.3567 13.6016C9.72364 15.5547 9.72553 17.6581 10.3621 19.6101C10.9987 21.5621 12.2372 23.2623 13.8999 24.4667C11.2695 25.5804 9.01809 27.4324 7.41792 29.7986C5.81775 32.1649 4.93738 34.944 4.88328 37.8C4.87582 37.8441 4.87582 37.8892 4.88328 37.9333C4.87849 37.9665 4.87849 38.0002 4.88328 38.0333C4.88328 38.0333 4.88328 38.0333 4.98328 38.0333H5.09995H7.44995C7.53393 38.0333 7.61448 38 7.67386 37.9406C7.73325 37.8812 7.76661 37.8007 7.76661 37.7167C7.82726 35.4127 8.56224 33.1771 9.88058 31.2866C11.1989 29.3962 13.0427 27.9338 15.1837 27.0806C17.3247 26.2274 19.669 26.0208 21.9262 26.4863C24.1835 26.9519 26.2546 28.0693 27.8833 29.7C30.021 31.8279 31.2515 34.7011 31.3166 37.7167C31.3207 37.7994 31.3553 37.8776 31.4138 37.9361C31.4724 37.9946 31.5506 38.0293 31.6333 38.0333H33.9999H34.1166H34.2166C34.2214 38.0002 34.2214 37.9665 34.2166 37.9333C34.2333 37.8905 34.2333 37.8429 34.2166 37.8C34.222 35.9202 33.8596 34.0574 33.1499 32.3167ZM19.5499 23.3333C17.9837 23.3379 16.4644 22.7989 15.2511 21.8084C14.0378 20.8179 13.2057 19.4372 12.8967 17.9017C12.5877 16.3662 12.821 14.7711 13.5566 13.3884C14.2923 12.0057 15.4849 10.921 16.9309 10.3193C18.377 9.71758 19.987 9.63617 21.4864 10.0889C22.9858 10.5417 24.2817 11.5005 25.1531 12.802C26.0245 14.1035 26.4174 15.6669 26.2649 17.2257C26.1124 18.7845 25.4238 20.2422 24.3166 21.35C23.6939 21.9809 22.9515 22.4813 22.1331 22.8218C21.3146 23.1624 20.4364 23.3363 19.5499 23.3333Z" />
<path d="M7.35002 12.7501L5.68335 12.0667C5.68335 11.9667 9.55002 2.66675 19.5834 2.66675C29.6167 2.66675 33.3334 11.9667 33.4333 12.0667L31.7667 12.7334C30.7502 10.3329 29.0603 8.27795 26.9013 6.81691C24.7423 5.35588 22.2064 4.5512 19.6 4.50008C16.9789 4.54288 14.4265 5.34507 12.2522 6.80941C10.0779 8.27374 8.37503 10.3373 7.35002 12.7501Z" />
<path d="M8.11661 18.3332H7.19994C6.21422 18.3332 5.26887 17.9417 4.57186 17.2447C3.87485 16.5476 3.48328 15.6023 3.48328 14.6166C3.48328 13.6308 3.87485 12.6855 4.57186 11.9885C5.26887 11.2915 6.21422 10.8999 7.19994 10.8999H8.11661V18.3332ZM6.28328 13.0666C6.0025 13.2422 5.773 13.4887 5.61792 13.7813C5.46283 14.074 5.38765 14.4023 5.39994 14.7332C5.39098 15.0636 5.46761 15.3907 5.62239 15.6828C5.77717 15.9748 6.00483 16.2218 6.28328 16.3999V13.0666Z" />
<path d="M31.85 18.3333H30.9333V10.95H31.85C32.8357 10.95 33.7811 11.3415 34.4781 12.0385C35.1751 12.7355 35.5667 13.6809 35.5667 14.6666C35.5667 15.6523 35.1751 16.5977 34.4781 17.2947C33.7811 17.9917 32.8357 18.3833 31.85 18.3833V18.3333ZM32.7667 13.0166V16.2833C33.0475 16.1077 33.277 15.8611 33.432 15.5685C33.5871 15.2759 33.6623 14.9476 33.65 14.6166C33.6454 14.3047 33.562 13.9991 33.4075 13.7281C33.2531 13.4571 33.0326 13.2296 32.7667 13.0666V13.0166Z" />
</svg>
