<svg width="40" height="40" viewBox="0 0 40 40" fill="currentColor" xmlns="http://www.w3.org/2000/svg">
<g clip-path="url(#clipddddddf10)">
<path d="M6.7716 28.5481V24.4441C6.76235 24.3384 6.71615 24.2393 6.64109 24.1642C6.56604 24.0891 6.46694 24.0429 6.3612 24.0337H4.5144C4.40866 24.0429 4.30956 24.0891 4.23451 24.1642C4.15945 24.2393 4.11325 24.3384 4.104 24.4441V26.0857H0V28.7533H6.3612C6.5664 28.9585 6.7716 28.7533 6.7716 28.5481Z" />
<path d="M11.9016 24.8544C12.4392 24.8305 12.9498 24.6116 13.3379 24.2388C13.5382 24.0581 13.697 23.8361 13.8032 23.5881C13.9095 23.3402 13.9608 23.0721 13.9536 22.8024C13.9296 22.2648 13.7108 21.7542 13.3379 21.366C13.1572 21.1657 12.9352 21.007 12.6872 20.9007C12.4393 20.7945 12.1712 20.7432 11.9016 20.7504C11.3639 20.7744 10.8533 20.9932 10.4652 21.366C10.2649 21.5468 10.1061 21.7688 9.99986 22.0167C9.89359 22.2647 9.84231 22.5327 9.84955 22.8024C9.84955 23.3467 10.0657 23.8686 10.4506 24.2534C10.8354 24.6382 11.3573 24.8544 11.9016 24.8544Z" />
<path d="M21.546 15.21V15.0048L20.3148 12.9528L20.1096 12.7476H19.9044L17.442 14.184L13.5432 3.92395C13.3251 3.30842 12.9749 2.7481 12.5172 2.28235C11.9774 1.89632 11.3339 1.6818 10.6704 1.66675H0V5.15515H10.4652L14.1588 15.21H0V17.8776H14.9796L15.8004 19.9296V31.4208H0V34.704H13.1328L13.5432 36.5508C13.6031 36.8353 13.7572 37.0914 13.9806 37.2776C14.204 37.4637 14.4837 37.5692 14.7744 37.5768H18.0576C18.4077 37.5404 18.7305 37.3712 18.9595 37.104C19.1886 36.8368 19.3064 36.4919 19.2888 36.1404V18.9036L18.6732 17.0568L21.546 15.4152C21.3408 15.4152 21.546 15.4152 21.546 15.21Z" />
<path d="M36.2382 20.0735H23.6184C23.3766 20.0427 23.1567 19.9176 23.0068 19.7254C22.8569 19.5332 22.7891 19.2895 22.8181 19.0475C22.7944 18.8065 22.8642 18.5655 23.0132 18.3746C23.1622 18.1836 23.3788 18.0572 23.6184 18.0215H36.2382C36.4777 18.0572 36.6944 18.1836 36.8434 18.3746C36.9923 18.5655 37.0622 18.8065 37.0385 19.0475C37.0675 19.2895 36.9997 19.5332 36.8497 19.7254C36.6998 19.9176 36.48 20.0427 36.2382 20.0735Z" />
<path d="M37.7157 8.72558H23.8442C23.5721 8.72558 23.3111 8.61749 23.1187 8.42507C22.9263 8.23266 22.8182 7.9717 22.8182 7.69958C22.8182 7.42747 22.9263 7.1665 23.1187 6.97409C23.3111 6.78168 23.5721 6.67358 23.8442 6.67358H37.7157C37.9878 6.67358 38.2488 6.78168 38.4412 6.97409C38.6336 7.1665 38.7417 7.42747 38.7417 7.69958C38.7417 7.9717 38.6336 8.23266 38.4412 8.42507C38.2488 8.61749 37.9878 8.72558 37.7157 8.72558Z" />
<path d="M39.1931 31.4414H23.5979C23.167 31.4414 22.8182 30.9694 22.8182 30.4154C22.8182 29.8614 23.167 29.3894 23.5979 29.3894H39.1931C39.4349 29.4202 39.6548 29.5453 39.8047 29.7375C39.9546 29.9297 40.0225 30.1734 39.9934 30.4154C40.0171 30.6564 39.9473 30.8974 39.7983 31.0883C39.6494 31.2793 39.4327 31.4057 39.1931 31.4414Z" />
<path d="M39.4189 14.184H28.7485C28.5023 14.184 28.2766 13.8557 28.2766 13.4248C28.2766 12.9939 28.5023 12.645 28.7485 12.645H39.4189C39.6857 12.645 39.8909 12.9939 39.8909 13.4248C39.8909 13.8557 39.6857 14.184 39.4189 14.184Z" />
<path d="M39.1932 25.4904H29.0563C28.9549 25.4932 28.854 25.4755 28.7595 25.4386C28.665 25.4017 28.5788 25.3462 28.5061 25.2754C28.4334 25.2046 28.3757 25.12 28.3362 25.0265C28.2968 24.9331 28.2765 24.8326 28.2766 24.7312C28.2766 24.6288 28.2967 24.5274 28.3359 24.4328C28.3751 24.3382 28.4325 24.2522 28.5049 24.1798C28.5773 24.1074 28.6633 24.05 28.7579 24.0108C28.8525 23.9716 28.9539 23.9514 29.0563 23.9514H39.1932C39.3964 23.9568 39.5895 24.0413 39.7313 24.1869C39.8732 24.3326 39.9525 24.5279 39.9524 24.7312C39.9524 24.8309 39.9328 24.9296 39.8946 25.0217C39.8565 25.1138 39.8006 25.1975 39.7301 25.268C39.6596 25.3385 39.5759 25.3945 39.4837 25.4326C39.3916 25.4708 39.2929 25.4904 39.1932 25.4904Z" />
</g>
<defs>
<clipPath id="clipddddddf10">
<rect width="40" height="40" fill="currentColor"/>
</clipPath>
</defs>
</svg>
