<svg xmlns="http://www.w3.org/2000/svg" width="1024" height="188" viewBox="0 0 1024 188" fill="none" preserveAspectRatio="none">
<rect width="1024" height="188" fill="#DBE4E8"/>
<g clip-path="url(#clip012asdn0ernsf1g16d515615f6s15)">
<path d="M262 0H1024V188H174L262 0Z" fill="#00628F"/>
<path d="M956.802 161.4C988.668 161.4 1014.5 135.567 1014.5 103.7C1014.5 71.8332 988.668 46 956.802 46C924.935 46 899.102 71.8332 899.102 103.7C899.102 135.567 924.935 161.4 956.802 161.4Z" fill="#09536D"/>
<path d="M1002.9 113.2C1001.8 115.7 1000.6 118.1 999.101 120.4C996.101 124.9 992.401 128.8 988.201 132.2C984.001 135.5 979.501 138.4 974.701 140.8C972.301 142 969.901 143.1 967.401 144C966.201 144.5 965.001 144.9 963.901 145.3L961.001 115.2C961.101 115.2 961.101 115.2 961.201 115.1C962.101 114.8 962.901 114.5 963.701 114.2C965.401 113.5 967.001 112.8 968.601 111.9C971.701 110.2 974.701 108.2 977.301 105.8C977.901 105.2 978.601 104.6 979.201 104L981.001 102C981.601 101.3 982.001 100.6 982.601 99.9002C982.901 99.5002 983.101 99.2002 983.401 98.8002L984.101 97.7002C986.001 94.7002 987.001 91.4002 988.001 88.1002C986.701 91.3002 985.201 94.4002 983.101 97.0002L982.301 98.0002C982.001 98.3002 981.701 98.6002 981.501 98.9002C980.901 99.5002 980.401 100.1 979.801 100.7L977.901 102.3C977.301 102.9 976.601 103.3 975.901 103.8C973.201 105.7 970.301 107.3 967.201 108.5C965.701 109.1 964.101 109.6 962.501 110C961.901 110.2 961.301 110.3 960.701 110.4L957.601 78.2002C957.501 77.5002 956.901 76.9002 956.201 76.9002C955.401 76.9002 954.801 77.5002 954.801 78.2002L952.901 100C952.301 99.8002 951.701 99.5002 951.201 99.2002C947.901 97.7002 944.801 95.9002 941.901 93.7002C939.001 91.5002 936.401 88.9002 934.301 85.9002C932.201 82.9002 930.601 79.4002 929.801 75.7002C930.001 79.5002 930.901 83.3002 932.601 86.9002C934.301 90.5002 936.601 93.7002 939.301 96.6002C942.001 99.5002 945.101 102.1 948.301 104.4C949.701 105.3 951.101 106.2 952.501 107.1L950.301 136.2C950.101 136.1 949.901 136.1 949.801 136C947.801 135.2 945.801 134.4 943.801 133.4C939.901 131.5 936.101 129.3 932.701 126.6C929.301 123.9 926.201 120.8 923.701 117.1C922.401 115.3 921.401 113.3 920.501 111.3C919.601 109.3 919.001 107.1 918.501 104.9C918.701 107.2 919.001 109.4 919.601 111.6C920.201 113.8 921.001 116 922.001 118.1C924.001 122.3 926.801 126.1 930.001 129.5C933.201 132.9 936.901 135.9 940.801 138.5C942.801 139.8 944.801 141.1 946.801 142.2C947.801 142.7 948.701 143.2 949.701 143.7L946.501 186.5C946.401 187.3 947.101 188.1 947.901 188.1H966.401C967.301 188.1 967.901 187.4 967.801 186.5L964.601 153.1C965.201 152.8 965.901 152.5 966.501 152.2C967.801 151.6 969.101 150.9 970.301 150.2C972.801 148.8 975.301 147.4 977.701 145.8C982.501 142.7 986.901 139.1 990.901 135C994.901 130.9 998.301 126.3 1000.8 121.3C1002.1 118.8 1003 116.1 1003.8 113.4C1004.6 110.7 1005 107.9 1005.2 105.2C1004.7 108.1 1004 110.7 1002.9 113.2Z" fill="#666666"/>
<path d="M941.301 151.4C943.124 151.4 944.601 149.922 944.601 148.1C944.601 146.277 943.124 144.8 941.301 144.8C939.479 144.8 938.001 146.277 938.001 148.1C938.001 149.922 939.479 151.4 941.301 151.4Z" fill="#016290"/>
<path d="M992.202 145.2C993.637 145.2 994.802 144.036 994.802 142.6C994.802 141.164 993.637 140 992.202 140C990.766 140 989.602 141.164 989.602 142.6C989.602 144.036 990.766 145.2 992.202 145.2Z" fill="#016290"/>
<path d="M982.901 151.3C984.006 151.3 984.901 150.404 984.901 149.3C984.901 148.195 984.006 147.3 982.901 147.3C981.797 147.3 980.901 148.195 980.901 149.3C980.901 150.404 981.797 151.3 982.901 151.3Z" fill="#016290"/>
<path d="M928.202 147.3C929.803 147.3 931.102 146.002 931.102 144.4C931.102 142.798 929.803 141.5 928.202 141.5C926.6 141.5 925.302 142.798 925.302 144.4C925.302 146.002 926.6 147.3 928.202 147.3Z" fill="#016290"/>
<path d="M939.602 143.5C940.32 143.5 940.902 142.918 940.902 142.2C940.902 141.482 940.32 140.9 939.602 140.9C938.884 140.9 938.302 141.482 938.302 142.2C938.302 142.918 938.884 143.5 939.602 143.5Z" fill="#016290"/>
<path d="M945.402 155.9C946.12 155.9 946.702 155.318 946.702 154.6C946.702 153.882 946.12 153.3 945.402 153.3C944.684 153.3 944.102 153.882 944.102 154.6C944.102 155.318 944.684 155.9 945.402 155.9Z" fill="#016290"/>
<path d="M941.902 157.5C942.62 157.5 943.202 156.918 943.202 156.2C943.202 155.482 942.62 154.9 941.902 154.9C941.184 154.9 940.602 155.482 940.602 156.2C940.602 156.918 941.184 157.5 941.902 157.5Z" fill="#016290"/>
<path d="M936.902 154.1C937.343 154.1 937.702 153.742 937.702 153.3C937.702 152.858 937.343 152.5 936.902 152.5C936.46 152.5 936.102 152.858 936.102 153.3C936.102 153.742 936.46 154.1 936.902 154.1Z" fill="#016290"/>
<path d="M940.002 153.7C940.443 153.7 940.802 153.342 940.802 152.9C940.802 152.458 940.443 152.1 940.002 152.1C939.56 152.1 939.202 152.458 939.202 152.9C939.202 153.342 939.56 153.7 940.002 153.7Z" fill="#016290"/>
<path d="M922.802 136.2C923.961 136.2 924.902 135.26 924.902 134.1C924.902 132.94 923.961 132 922.802 132C921.642 132 920.702 132.94 920.702 134.1C920.702 135.26 921.642 136.2 922.802 136.2Z" fill="#016290"/>
<path d="M914.501 132.2C915.661 132.2 916.601 131.26 916.601 130.1C916.601 128.94 915.661 128 914.501 128C913.342 128 912.401 128.94 912.401 130.1C912.401 131.26 913.342 132.2 914.501 132.2Z" fill="#016290"/>
<path d="M983.101 131C983.764 131 984.301 130.463 984.301 129.8C984.301 129.137 983.764 128.6 983.101 128.6C982.439 128.6 981.901 129.137 981.901 129.8C981.901 130.463 982.439 131 983.101 131Z" fill="#016290"/>
<path d="M976.601 153.4C977.264 153.4 977.801 152.863 977.801 152.2C977.801 151.537 977.264 151 976.601 151C975.939 151 975.401 151.537 975.401 152.2C975.401 152.863 975.939 153.4 976.601 153.4Z" fill="#016290"/>
<path d="M972.601 156.3C973.264 156.3 973.801 155.763 973.801 155.1C973.801 154.437 973.264 153.9 972.601 153.9C971.939 153.9 971.401 154.437 971.401 155.1C971.401 155.763 971.939 156.3 972.601 156.3Z" fill="#016290"/>
<path d="M988.802 125.7C989.464 125.7 990.002 125.163 990.002 124.5C990.002 123.837 989.464 123.3 988.802 123.3C988.139 123.3 987.602 123.837 987.602 124.5C987.602 125.163 988.139 125.7 988.802 125.7Z" fill="#016290"/>
<path d="M995.701 120.3C996.364 120.3 996.901 119.763 996.901 119.1C996.901 118.437 996.364 117.9 995.701 117.9C995.039 117.9 994.501 118.437 994.501 119.1C994.501 119.763 995.039 120.3 995.701 120.3Z" fill="#016290"/>
<path d="M897.502 164.825C896.302 164.825 895.302 163.825 895.302 162.625C895.302 161.425 896.302 160.425 897.502 160.425C898.702 160.425 899.702 161.425 899.702 162.625C899.702 163.825 898.702 164.825 897.502 164.825Z" fill="#00628E"/>
<path d="M855.002 176.625H818.902C810.602 176.625 804.802 168.525 807.802 160.925L828.302 109.025L843.902 69.425C847.802 59.525 862.102 59.525 866.002 69.425L881.602 109.025L902.102 160.925C905.102 168.525 899.402 176.625 891.002 176.625H855.002Z" fill="#09536D"/>
<path d="M888.101 142.825L861.001 159.325L858.801 125.425L874.201 111.625L858.501 120.325L857.401 103.025H855.801C854.301 103.025 853.101 104.125 853.001 105.625L850.701 137.625L836.901 130.025L850.301 142.125L847.001 188.225H863.001L861.501 165.025L888.101 142.825Z" fill="#666666"/>
<path d="M870.402 172.025C869.202 172.025 868.202 171.025 868.202 169.825C868.202 168.625 869.202 167.625 870.402 167.625C871.602 167.625 872.602 168.625 872.602 169.825C872.602 171.025 871.602 172.025 870.402 172.025Z" fill="#00628E"/>
<path d="M876.402 165.525C875.202 165.525 874.202 164.525 874.202 163.325C874.202 162.125 875.202 161.125 876.402 161.125C877.602 161.125 878.602 162.125 878.602 163.325C878.602 164.525 877.602 165.525 876.402 165.525Z" fill="#00628E"/>
<path d="M837.802 165.125C836.602 165.125 835.602 164.125 835.602 162.925C835.602 161.725 836.602 160.725 837.802 160.725C839.002 160.725 840.002 161.725 840.002 162.925C839.902 164.125 838.902 165.125 837.802 165.125Z" fill="#00628E"/>
<path d="M838.701 152.025C837.501 152.025 836.501 151.025 836.501 149.825C836.501 148.625 837.501 147.625 838.701 147.625C839.901 147.625 840.901 148.625 840.901 149.825C840.801 151.125 839.901 152.025 838.701 152.025Z" fill="#00628E"/>
<path d="M818.402 157.925C817.202 157.925 816.202 156.925 816.202 155.725C816.202 154.525 817.202 153.525 818.402 153.525C819.602 153.525 820.602 154.525 820.602 155.725C820.602 156.925 819.602 157.925 818.402 157.925Z" fill="#00628E"/>
<path d="M827.802 153.925C826.602 153.925 825.602 152.925 825.602 151.725C825.602 150.525 826.602 149.525 827.802 149.525C829.002 149.525 830.002 150.525 830.002 151.725C829.902 152.925 828.902 153.925 827.802 153.925Z" fill="#00628E"/>
<path d="M825.302 171.125C824.102 171.125 823.102 170.125 823.102 168.925C823.102 167.725 824.102 166.725 825.302 166.725C826.502 166.725 827.502 167.725 827.502 168.925C827.402 170.125 826.402 171.125 825.302 171.125Z" fill="#00628E"/>
<path d="M889.601 157.725C888.401 157.725 887.401 156.725 887.401 155.525C887.401 154.325 888.401 153.325 889.601 153.325C890.801 153.325 891.801 154.325 891.801 155.525C891.801 156.725 890.801 157.725 889.601 157.725Z" fill="#00628E"/>
<path d="M881.601 171.225C882.264 171.225 882.801 170.688 882.801 170.025C882.801 169.362 882.264 168.825 881.601 168.825C880.939 168.825 880.401 169.362 880.401 170.025C880.401 170.688 880.939 171.225 881.601 171.225Z" fill="#00628E"/>
<path d="M892.902 168.925C893.233 168.925 893.502 168.656 893.502 168.325C893.502 167.994 893.233 167.725 892.902 167.725C892.57 167.725 892.302 167.994 892.302 168.325C892.302 168.656 892.57 168.925 892.902 168.925Z" fill="#00628E"/>
<path d="M889.101 172.625C889.433 172.625 889.701 172.356 889.701 172.025C889.701 171.693 889.433 171.425 889.101 171.425C888.77 171.425 888.501 171.693 888.501 172.025C888.501 172.356 888.77 172.625 889.101 172.625Z" fill="#00628E"/>
<path d="M869.601 164.825C869.933 164.825 870.201 164.556 870.201 164.225C870.201 163.894 869.933 163.625 869.601 163.625C869.27 163.625 869.001 163.894 869.001 164.225C869.001 164.556 869.27 164.825 869.601 164.825Z" fill="#00628E"/>
<path d="M885.501 167.325C886.385 167.325 887.101 166.609 887.101 165.725C887.101 164.841 886.385 164.125 885.501 164.125C884.618 164.125 883.901 164.841 883.901 165.725C883.901 166.609 884.618 167.325 885.501 167.325Z" fill="#00628E"/>
<path d="M836.401 171.925C836.954 171.925 837.401 171.477 837.401 170.925C837.401 170.373 836.954 169.925 836.401 169.925C835.849 169.925 835.401 170.373 835.401 170.925C835.401 171.477 835.849 171.925 836.401 171.925Z" fill="#00628E"/>
<path d="M814.401 165.125C814.954 165.125 815.401 164.677 815.401 164.125C815.401 163.573 814.954 163.125 814.401 163.125C813.849 163.125 813.401 163.573 813.401 164.125C813.401 164.677 813.849 165.125 814.401 165.125Z" fill="#00628E"/>
<path d="M827.801 163.725C828.354 163.725 828.801 163.277 828.801 162.725C828.801 162.173 828.354 161.725 827.801 161.725C827.249 161.725 826.801 162.173 826.801 162.725C826.801 163.277 827.249 163.725 827.801 163.725Z" fill="#00628E"/>
<path d="M845.501 156.125C846.054 156.125 846.501 155.677 846.501 155.125C846.501 154.573 846.054 154.125 845.501 154.125C844.949 154.125 844.501 154.573 844.501 155.125C844.501 155.677 844.949 156.125 845.501 156.125Z" fill="#00628E"/>
<path d="M842.302 158.925C842.633 158.925 842.902 158.656 842.902 158.325C842.902 157.994 842.633 157.725 842.302 157.725C841.97 157.725 841.702 157.994 841.702 158.325C841.702 158.656 841.97 158.925 842.302 158.925Z" fill="#00628E"/>
<path d="M833.202 157.625C833.533 157.625 833.802 157.356 833.802 157.025C833.802 156.693 833.533 156.425 833.202 156.425C832.87 156.425 832.602 156.693 832.602 157.025C832.602 157.356 832.87 157.625 833.202 157.625Z" fill="#00628E"/>
<path d="M843.202 168.125C843.533 168.125 843.802 167.856 843.802 167.525C843.802 167.193 843.533 166.925 843.202 166.925C842.87 166.925 842.602 167.193 842.602 167.525C842.602 167.856 842.87 168.125 843.202 168.125Z" fill="#00628E"/>
<path d="M816.202 171.625C816.533 171.625 816.802 171.356 816.802 171.025C816.802 170.693 816.533 170.425 816.202 170.425C815.87 170.425 815.602 170.693 815.602 171.025C815.602 171.356 815.87 171.625 816.202 171.625Z" fill="#00628E"/>
</g>

<path d="M0 132H434.6L494 188H0V132Z" fill="#313B3C"/>

<defs>
<clipPath id="clip012asdn0ernsf1g16d515615f6s15">
<rect width="960" height="188" fill="white" transform="translate(64)"/>
</clipPath>
</defs>
</svg>