<svg xmlns="http://www.w3.org/2000/svg" width="1440" height="188" viewBox="0 0 1440 188" fill="none" preserveAspectRatio="none">
<rect width="1440" height="188" fill="#DBE4E8"/>
<g clip-path="url(#clip0123sfern0erns1g16515615f6s15s)">
<path d="M568 0H1440V188H480L568 0Z" fill="#00628F"/>
<path d="M1372.8 161.4C1404.67 161.4 1430.5 135.567 1430.5 103.7C1430.5 71.8332 1404.67 46 1372.8 46C1340.93 46 1315.1 71.8332 1315.1 103.7C1315.1 135.567 1340.93 161.4 1372.8 161.4Z" fill="#09536D"/>
<path d="M1418.9 113.2C1417.8 115.7 1416.6 118.1 1415.1 120.4C1412.1 124.9 1408.4 128.8 1404.2 132.2C1400 135.5 1395.5 138.4 1390.7 140.8C1388.3 142 1385.9 143.1 1383.4 144C1382.2 144.5 1381 144.9 1379.9 145.3L1377 115.2C1377.1 115.2 1377.1 115.2 1377.2 115.1C1378.1 114.8 1378.9 114.5 1379.7 114.2C1381.4 113.5 1383 112.8 1384.6 111.9C1387.7 110.2 1390.7 108.2 1393.3 105.8C1393.9 105.2 1394.6 104.6 1395.2 104L1397 102C1397.6 101.3 1398 100.6 1398.6 99.9002C1398.9 99.5002 1399.1 99.2002 1399.4 98.8002L1400.1 97.7002C1402 94.7002 1403 91.4002 1404 88.1002C1402.7 91.3002 1401.2 94.4002 1399.1 97.0002L1398.3 98.0002C1398 98.3002 1397.7 98.6002 1397.5 98.9002C1396.9 99.5002 1396.4 100.1 1395.8 100.7L1393.9 102.3C1393.3 102.9 1392.6 103.3 1391.9 103.8C1389.2 105.7 1386.3 107.3 1383.2 108.5C1381.7 109.1 1380.1 109.6 1378.5 110C1377.9 110.2 1377.3 110.3 1376.7 110.4L1373.6 78.2002C1373.5 77.5002 1372.9 76.9002 1372.2 76.9002C1371.4 76.9002 1370.8 77.5002 1370.8 78.2002L1368.9 100C1368.3 99.8002 1367.7 99.5002 1367.2 99.2002C1363.9 97.7002 1360.8 95.9002 1357.9 93.7002C1355 91.5002 1352.4 88.9002 1350.3 85.9002C1348.2 82.9002 1346.6 79.4002 1345.8 75.7002C1346 79.5002 1346.9 83.3002 1348.6 86.9002C1350.3 90.5002 1352.6 93.7002 1355.3 96.6002C1358 99.5002 1361.1 102.1 1364.3 104.4C1365.7 105.3 1367.1 106.2 1368.5 107.1L1366.3 136.2C1366.1 136.1 1365.9 136.1 1365.8 136C1363.8 135.2 1361.8 134.4 1359.8 133.4C1355.9 131.5 1352.1 129.3 1348.7 126.6C1345.3 123.9 1342.2 120.8 1339.7 117.1C1338.4 115.3 1337.4 113.3 1336.5 111.3C1335.6 109.3 1335 107.1 1334.5 104.9C1334.7 107.2 1335 109.4 1335.6 111.6C1336.2 113.8 1337 116 1338 118.1C1340 122.3 1342.8 126.1 1346 129.5C1349.2 132.9 1352.9 135.9 1356.8 138.5C1358.8 139.8 1360.8 141.1 1362.8 142.2C1363.8 142.7 1364.7 143.2 1365.7 143.7L1362.5 186.5C1362.4 187.3 1363.1 188.1 1363.9 188.1H1382.4C1383.3 188.1 1383.9 187.4 1383.8 186.5L1380.6 153.1C1381.2 152.8 1381.9 152.5 1382.5 152.2C1383.8 151.6 1385.1 150.9 1386.3 150.2C1388.8 148.8 1391.3 147.4 1393.7 145.8C1398.5 142.7 1402.9 139.1 1406.9 135C1410.9 130.9 1414.3 126.3 1416.8 121.3C1418.1 118.8 1419 116.1 1419.8 113.4C1420.6 110.7 1421 107.9 1421.2 105.2C1420.7 108.1 1420 110.7 1418.9 113.2Z" fill="#666666"/>
<path d="M1357.3 151.4C1359.12 151.4 1360.6 149.922 1360.6 148.1C1360.6 146.277 1359.12 144.8 1357.3 144.8C1355.48 144.8 1354 146.277 1354 148.1C1354 149.922 1355.48 151.4 1357.3 151.4Z" fill="#016290"/>
<path d="M1408.2 145.2C1409.64 145.2 1410.8 144.036 1410.8 142.6C1410.8 141.164 1409.64 140 1408.2 140C1406.77 140 1405.6 141.164 1405.6 142.6C1405.6 144.036 1406.77 145.2 1408.2 145.2Z" fill="#016290"/>
<path d="M1398.9 151.3C1400.01 151.3 1400.9 150.404 1400.9 149.3C1400.9 148.195 1400.01 147.3 1398.9 147.3C1397.8 147.3 1396.9 148.195 1396.9 149.3C1396.9 150.404 1397.8 151.3 1398.9 151.3Z" fill="#016290"/>
<path d="M1344.2 147.3C1345.8 147.3 1347.1 146.002 1347.1 144.4C1347.1 142.798 1345.8 141.5 1344.2 141.5C1342.6 141.5 1341.3 142.798 1341.3 144.4C1341.3 146.002 1342.6 147.3 1344.2 147.3Z" fill="#016290"/>
<path d="M1355.6 143.5C1356.32 143.5 1356.9 142.918 1356.9 142.2C1356.9 141.482 1356.32 140.9 1355.6 140.9C1354.88 140.9 1354.3 141.482 1354.3 142.2C1354.3 142.918 1354.88 143.5 1355.6 143.5Z" fill="#016290"/>
<path d="M1361.4 155.9C1362.12 155.9 1362.7 155.318 1362.7 154.6C1362.7 153.882 1362.12 153.3 1361.4 153.3C1360.68 153.3 1360.1 153.882 1360.1 154.6C1360.1 155.318 1360.68 155.9 1361.4 155.9Z" fill="#016290"/>
<path d="M1357.9 157.5C1358.62 157.5 1359.2 156.918 1359.2 156.2C1359.2 155.482 1358.62 154.9 1357.9 154.9C1357.18 154.9 1356.6 155.482 1356.6 156.2C1356.6 156.918 1357.18 157.5 1357.9 157.5Z" fill="#016290"/>
<path d="M1352.9 154.1C1353.34 154.1 1353.7 153.742 1353.7 153.3C1353.7 152.858 1353.34 152.5 1352.9 152.5C1352.46 152.5 1352.1 152.858 1352.1 153.3C1352.1 153.742 1352.46 154.1 1352.9 154.1Z" fill="#016290"/>
<path d="M1356 153.7C1356.44 153.7 1356.8 153.342 1356.8 152.9C1356.8 152.458 1356.44 152.1 1356 152.1C1355.56 152.1 1355.2 152.458 1355.2 152.9C1355.2 153.342 1355.56 153.7 1356 153.7Z" fill="#016290"/>
<path d="M1338.8 136.2C1339.96 136.2 1340.9 135.26 1340.9 134.1C1340.9 132.94 1339.96 132 1338.8 132C1337.64 132 1336.7 132.94 1336.7 134.1C1336.7 135.26 1337.64 136.2 1338.8 136.2Z" fill="#016290"/>
<path d="M1330.5 132.2C1331.66 132.2 1332.6 131.26 1332.6 130.1C1332.6 128.94 1331.66 128 1330.5 128C1329.34 128 1328.4 128.94 1328.4 130.1C1328.4 131.26 1329.34 132.2 1330.5 132.2Z" fill="#016290"/>
<path d="M1399.1 131C1399.76 131 1400.3 130.463 1400.3 129.8C1400.3 129.137 1399.76 128.6 1399.1 128.6C1398.44 128.6 1397.9 129.137 1397.9 129.8C1397.9 130.463 1398.44 131 1399.1 131Z" fill="#016290"/>
<path d="M1392.6 153.4C1393.26 153.4 1393.8 152.863 1393.8 152.2C1393.8 151.537 1393.26 151 1392.6 151C1391.94 151 1391.4 151.537 1391.4 152.2C1391.4 152.863 1391.94 153.4 1392.6 153.4Z" fill="#016290"/>
<path d="M1388.6 156.3C1389.26 156.3 1389.8 155.763 1389.8 155.1C1389.8 154.437 1389.26 153.9 1388.6 153.9C1387.94 153.9 1387.4 154.437 1387.4 155.1C1387.4 155.763 1387.94 156.3 1388.6 156.3Z" fill="#016290"/>
<path d="M1404.8 125.7C1405.46 125.7 1406 125.163 1406 124.5C1406 123.837 1405.46 123.3 1404.8 123.3C1404.14 123.3 1403.6 123.837 1403.6 124.5C1403.6 125.163 1404.14 125.7 1404.8 125.7Z" fill="#016290"/>
<path d="M1411.7 120.3C1412.36 120.3 1412.9 119.763 1412.9 119.1C1412.9 118.437 1412.36 117.9 1411.7 117.9C1411.04 117.9 1410.5 118.437 1410.5 119.1C1410.5 119.763 1411.04 120.3 1411.7 120.3Z" fill="#016290"/>
<path d="M1313.5 164.825C1312.3 164.825 1311.3 163.825 1311.3 162.625C1311.3 161.425 1312.3 160.425 1313.5 160.425C1314.7 160.425 1315.7 161.425 1315.7 162.625C1315.7 163.825 1314.7 164.825 1313.5 164.825Z" fill="#00628E"/>
<path d="M1271 176.625H1234.9C1226.6 176.625 1220.8 168.525 1223.8 160.925L1244.3 109.025L1259.9 69.425C1263.8 59.525 1278.1 59.525 1282 69.425L1297.6 109.025L1318.1 160.925C1321.1 168.525 1315.4 176.625 1307 176.625H1271Z" fill="#09536D"/>
<path d="M1304.1 142.825L1277 159.325L1274.8 125.425L1290.2 111.625L1274.5 120.325L1273.4 103.025H1271.8C1270.3 103.025 1269.1 104.125 1269 105.625L1266.7 137.625L1252.9 130.025L1266.3 142.125L1263 188.225H1279L1277.5 165.025L1304.1 142.825Z" fill="#666666"/>
<path d="M1286.4 172.025C1285.2 172.025 1284.2 171.025 1284.2 169.825C1284.2 168.625 1285.2 167.625 1286.4 167.625C1287.6 167.625 1288.6 168.625 1288.6 169.825C1288.6 171.025 1287.6 172.025 1286.4 172.025Z" fill="#00628E"/>
<path d="M1292.4 165.525C1291.2 165.525 1290.2 164.525 1290.2 163.325C1290.2 162.125 1291.2 161.125 1292.4 161.125C1293.6 161.125 1294.6 162.125 1294.6 163.325C1294.6 164.525 1293.6 165.525 1292.4 165.525Z" fill="#00628E"/>
<path d="M1253.8 165.125C1252.6 165.125 1251.6 164.125 1251.6 162.925C1251.6 161.725 1252.6 160.725 1253.8 160.725C1255 160.725 1256 161.725 1256 162.925C1255.9 164.125 1254.9 165.125 1253.8 165.125Z" fill="#00628E"/>
<path d="M1254.7 152.025C1253.5 152.025 1252.5 151.025 1252.5 149.825C1252.5 148.625 1253.5 147.625 1254.7 147.625C1255.9 147.625 1256.9 148.625 1256.9 149.825C1256.8 151.125 1255.9 152.025 1254.7 152.025Z" fill="#00628E"/>
<path d="M1234.4 157.925C1233.2 157.925 1232.2 156.925 1232.2 155.725C1232.2 154.525 1233.2 153.525 1234.4 153.525C1235.6 153.525 1236.6 154.525 1236.6 155.725C1236.6 156.925 1235.6 157.925 1234.4 157.925Z" fill="#00628E"/>
<path d="M1243.8 153.925C1242.6 153.925 1241.6 152.925 1241.6 151.725C1241.6 150.525 1242.6 149.525 1243.8 149.525C1245 149.525 1246 150.525 1246 151.725C1245.9 152.925 1244.9 153.925 1243.8 153.925Z" fill="#00628E"/>
<path d="M1241.3 171.125C1240.1 171.125 1239.1 170.125 1239.1 168.925C1239.1 167.725 1240.1 166.725 1241.3 166.725C1242.5 166.725 1243.5 167.725 1243.5 168.925C1243.4 170.125 1242.4 171.125 1241.3 171.125Z" fill="#00628E"/>
<path d="M1305.6 157.725C1304.4 157.725 1303.4 156.725 1303.4 155.525C1303.4 154.325 1304.4 153.325 1305.6 153.325C1306.8 153.325 1307.8 154.325 1307.8 155.525C1307.8 156.725 1306.8 157.725 1305.6 157.725Z" fill="#00628E"/>
<path d="M1297.6 171.225C1298.26 171.225 1298.8 170.688 1298.8 170.025C1298.8 169.362 1298.26 168.825 1297.6 168.825C1296.94 168.825 1296.4 169.362 1296.4 170.025C1296.4 170.688 1296.94 171.225 1297.6 171.225Z" fill="#00628E"/>
<path d="M1308.9 168.925C1309.23 168.925 1309.5 168.656 1309.5 168.325C1309.5 167.994 1309.23 167.725 1308.9 167.725C1308.57 167.725 1308.3 167.994 1308.3 168.325C1308.3 168.656 1308.57 168.925 1308.9 168.925Z" fill="#00628E"/>
<path d="M1305.1 172.625C1305.43 172.625 1305.7 172.356 1305.7 172.025C1305.7 171.693 1305.43 171.425 1305.1 171.425C1304.77 171.425 1304.5 171.693 1304.5 172.025C1304.5 172.356 1304.77 172.625 1305.1 172.625Z" fill="#00628E"/>
<path d="M1285.6 164.825C1285.93 164.825 1286.2 164.556 1286.2 164.225C1286.2 163.894 1285.93 163.625 1285.6 163.625C1285.27 163.625 1285 163.894 1285 164.225C1285 164.556 1285.27 164.825 1285.6 164.825Z" fill="#00628E"/>
<path d="M1301.5 167.325C1302.39 167.325 1303.1 166.609 1303.1 165.725C1303.1 164.841 1302.39 164.125 1301.5 164.125C1300.62 164.125 1299.9 164.841 1299.9 165.725C1299.9 166.609 1300.62 167.325 1301.5 167.325Z" fill="#00628E"/>
<path d="M1252.4 171.925C1252.95 171.925 1253.4 171.477 1253.4 170.925C1253.4 170.373 1252.95 169.925 1252.4 169.925C1251.85 169.925 1251.4 170.373 1251.4 170.925C1251.4 171.477 1251.85 171.925 1252.4 171.925Z" fill="#00628E"/>
<path d="M1230.4 165.125C1230.95 165.125 1231.4 164.677 1231.4 164.125C1231.4 163.573 1230.95 163.125 1230.4 163.125C1229.85 163.125 1229.4 163.573 1229.4 164.125C1229.4 164.677 1229.85 165.125 1230.4 165.125Z" fill="#00628E"/>
<path d="M1243.8 163.725C1244.35 163.725 1244.8 163.277 1244.8 162.725C1244.8 162.173 1244.35 161.725 1243.8 161.725C1243.25 161.725 1242.8 162.173 1242.8 162.725C1242.8 163.277 1243.25 163.725 1243.8 163.725Z" fill="#00628E"/>
<path d="M1261.5 156.125C1262.05 156.125 1262.5 155.677 1262.5 155.125C1262.5 154.573 1262.05 154.125 1261.5 154.125C1260.95 154.125 1260.5 154.573 1260.5 155.125C1260.5 155.677 1260.95 156.125 1261.5 156.125Z" fill="#00628E"/>
<path d="M1258.3 158.925C1258.63 158.925 1258.9 158.656 1258.9 158.325C1258.9 157.994 1258.63 157.725 1258.3 157.725C1257.97 157.725 1257.7 157.994 1257.7 158.325C1257.7 158.656 1257.97 158.925 1258.3 158.925Z" fill="#00628E"/>
<path d="M1249.2 157.625C1249.53 157.625 1249.8 157.356 1249.8 157.025C1249.8 156.693 1249.53 156.425 1249.2 156.425C1248.87 156.425 1248.6 156.693 1248.6 157.025C1248.6 157.356 1248.87 157.625 1249.2 157.625Z" fill="#00628E"/>
<path d="M1259.2 168.125C1259.53 168.125 1259.8 167.856 1259.8 167.525C1259.8 167.193 1259.53 166.925 1259.2 166.925C1258.87 166.925 1258.6 167.193 1258.6 167.525C1258.6 167.856 1258.87 168.125 1259.2 168.125Z" fill="#00628E"/>
<path d="M1232.2 171.625C1232.53 171.625 1232.8 171.356 1232.8 171.025C1232.8 170.693 1232.53 170.425 1232.2 170.425C1231.87 170.425 1231.6 170.693 1231.6 171.025C1231.6 171.356 1231.87 171.625 1232.2 171.625Z" fill="#00628E"/>
</g>

<path d="M0 123H578L657 188H0V123Z" fill="#313B3C"/>

<defs>
<clipPath id="clip0123sfern0erns1g16515615f6s15s">
<rect width="960" height="188" fill="white" transform="translate(480)"/>
</clipPath>
</defs>
</svg>