<svg width="16" height="16" viewBox="0 0 16 16" fill="currentColor" fill-opacity="0.65" xmlns="http://www.w3.org/2000/svg">
<path d="M13.7144 7.14503H12.5001V3.14503C12.5001 1.88253 11.4769 0.859314 10.2144 0.859314H5.78578C4.52328 0.859314 3.50007 1.88253 3.50007 3.14503V7.14503H2.28578C1.96971 7.14503 1.71436 7.40038 1.71436 7.71646V14.5736C1.71436 14.8897 1.96971 15.145 2.28578 15.145H13.7144C14.0304 15.145 14.2858 14.8897 14.2858 14.5736V7.71646C14.2858 7.40038 14.0304 7.14503 13.7144 7.14503ZM4.78578 3.14503C4.78578 2.59324 5.234 2.14503 5.78578 2.14503H10.2144C10.7661 2.14503 11.2144 2.59324 11.2144 3.14503V7.14503H4.78578V3.14503ZM13.0001 13.8593H3.00007V8.43074H13.0001V13.8593ZM7.50007 11.3772V12.3236C7.50007 12.4022 7.56436 12.4665 7.64293 12.4665H8.35721C8.43578 12.4665 8.50007 12.4022 8.50007 12.3236V11.3772C8.64748 11.2713 8.7575 11.1215 8.8143 10.9491C8.87111 10.7768 8.87176 10.5909 8.81618 10.4181C8.76059 10.2454 8.65162 10.0947 8.50497 9.98787C8.35831 9.88101 8.18153 9.82343 8.00007 9.82343C7.81861 9.82343 7.64183 9.88101 7.49517 9.98787C7.34852 10.0947 7.23955 10.2454 7.18397 10.4181C7.12838 10.5909 7.12903 10.7768 7.18584 10.9491C7.24264 11.1215 7.35267 11.2713 7.50007 11.3772Z"/>
</svg>
