<svg width="105" height="105" viewBox="0 0 105 105" fill="none" xmlns="http://www.w3.org/2000/svg">
<path d="M43.75 74.375L21.875 52.5L28.0438 46.2875L43.75 61.9938L76.9563 28.7875L83.125 35L43.75 74.375ZM52.5 8.75C46.7547 8.75 41.0656 9.88163 35.7576 12.0803C30.4496 14.2789 25.6266 17.5015 21.5641 21.5641C13.3594 29.7688 8.75 40.8968 8.75 52.5C8.75 64.1032 13.3594 75.2312 21.5641 83.4359C25.6266 87.4985 30.4496 90.7211 35.7576 92.9197C41.0656 95.1184 46.7547 96.25 52.5 96.25C64.1032 96.25 75.2312 91.6406 83.4359 83.4359C91.6407 75.2312 96.25 64.1032 96.25 52.5C96.25 46.7547 95.1184 41.0656 92.9198 35.7576C90.7211 30.4496 87.4985 25.6266 83.4359 21.5641C79.3734 17.5015 74.5504 14.2789 69.2424 12.0803C63.9344 9.88163 58.2453 8.75 52.5 8.75Z" fill="#3E9535"/>
</svg>
