<svg width="32" height="32" viewBox="0 0 32 32" fill="none" xmlns="http://www.w3.org/2000/svg">
<rect width="32" height="32" fill="white"/>
<path d="M10.4675 24.87C13.3125 25.62 15.875 23.09 16.0525 22.87L21.2924 17.8073C21.5819 17.5276 21.7468 17.1432 21.7501 16.7406L21.8316 6.63023C21.8338 6.36145 21.944 6.10486 22.1376 5.91832L25.546 2.63287C25.9436 2.24958 26.5767 2.26121 26.96 2.65885C27.1396 2.84522 27.24 3.09399 27.24 3.35285V18.3466C27.24 19.0202 26.9682 19.6653 26.4861 20.1357L17.0574 29.338C16.4708 29.9105 15.5334 29.9061 14.9522 29.3283" fill="url(#paint0_linear)"/>
<path d="M21.75 24.7791C18.905 25.5291 16.115 23.09 15.9375 22.87L10.6976 17.8073C10.4081 17.5276 10.2432 17.1432 10.2399 16.7406L10.1584 6.63023C10.1562 6.36145 10.0459 6.10486 9.85242 5.91832L6.444 2.63287C6.04637 2.24958 5.41331 2.26121 5.03002 2.65885C4.85038 2.84522 4.75 3.09399 4.75 3.35285L4.75 18.3466C4.75 19.0202 5.02181 19.6653 5.50385 20.1357L14.9452 29.3503C15.5267 29.9178 16.4545 29.9191 17.0376 29.3531" fill="url(#paint1_linear)"/>
<path fill-rule="evenodd" clip-rule="evenodd" d="M15.5746 7.02476L11.6391 3.22058C11.4406 3.02866 11.4352 2.71212 11.6271 2.51358C11.7213 2.41612 11.8511 2.36108 11.9866 2.36108H19.8481C20.1242 2.36108 20.3481 2.58494 20.3481 2.86108C20.3481 2.99643 20.2932 3.12599 20.196 3.22017L16.27 7.02435C16.0763 7.21208 15.7685 7.21226 15.5746 7.02476Z" fill="url(#paint2_linear)"/>
<defs>
<linearGradient id="paint0_linear" x1="15.5589" y1="2.35284" x2="15.5589" y2="29.7645" gradientUnits="userSpaceOnUse">
<stop stop-color="#29CDFF"/>
<stop offset="0.378601" stop-color="#148EFF"/>
<stop offset="1" stop-color="#0A60FF"/>
</linearGradient>
<linearGradient id="paint1_linear" x1="1.38074" y1="-7.73729" x2="44.1297" y2="24.7908" gradientUnits="userSpaceOnUse">
<stop stop-color="#29CDFF"/>
<stop offset="1" stop-color="#0F78FF"/>
</linearGradient>
<linearGradient id="paint2_linear" x1="17.5238" y1="0.646444" x2="16.4996" y2="8.19722" gradientUnits="userSpaceOnUse">
<stop stop-color="#FA8E7D"/>
<stop offset="0.512635" stop-color="#F74A5C"/>
<stop offset="1" stop-color="#F51D2C"/>
</linearGradient>
</defs>
</svg>
