<svg width="18" height="18" viewBox="0 0 18 18" fill="currentColor" xmlns="http://www.w3.org/2000/svg">
<path d="M15.9531 13.2969H14.58C14.4863 13.2969 14.3984 13.3379 14.3398 13.4102C14.2031 13.5762 14.0566 13.7364 13.9023 13.8887C13.2712 14.5204 12.5237 15.0238 11.7011 15.3711C10.8489 15.7311 9.93289 15.9157 9.00776 15.9141C8.07221 15.9141 7.16596 15.7305 6.3144 15.3711C5.4918 15.0238 4.7443 14.5204 4.11323 13.8887C3.48103 13.2591 2.97693 12.5129 2.62885 11.6914C2.26752 10.8399 2.08588 9.93558 2.08588 9.00003C2.08588 8.06448 2.26948 7.16019 2.62885 6.30862C2.97651 5.48636 3.47651 4.74612 4.11323 4.11136C4.74995 3.47659 5.49018 2.97659 6.3144 2.62894C7.16596 2.26956 8.07221 2.08597 9.00776 2.08597C9.94331 2.08597 10.8496 2.26761 11.7011 2.62894C12.5253 2.97659 13.2656 3.47659 13.9023 4.11136C14.0566 4.26565 14.2011 4.42581 14.3398 4.58987C14.3984 4.66214 14.4882 4.70315 14.58 4.70315H15.9531C16.0761 4.70315 16.1523 4.56644 16.0839 4.46292C14.5859 2.1348 11.9648 0.59378 8.98627 0.601592C4.30659 0.613311 0.554634 4.41214 0.601509 9.08597C0.648384 13.6856 4.39448 17.3985 9.00776 17.3985C11.9785 17.3985 14.5878 15.8594 16.0839 13.5371C16.1503 13.4336 16.0761 13.2969 15.9531 13.2969ZM17.6894 8.87698L14.9179 6.68948C14.8144 6.60745 14.664 6.68167 14.664 6.81253V8.2969H8.5312C8.44526 8.2969 8.37495 8.36722 8.37495 8.45315V9.5469C8.37495 9.63284 8.44526 9.70315 8.5312 9.70315H14.664V11.1875C14.664 11.3184 14.8164 11.3926 14.9179 11.3106L17.6894 9.12308C17.7081 9.10846 17.7232 9.08978 17.7336 9.06847C17.744 9.04715 17.7493 9.02374 17.7493 9.00003C17.7493 8.97631 17.744 8.95291 17.7336 8.93159C17.7232 8.91027 17.7081 8.8916 17.6894 8.87698Z" />
</svg>
