<svg width="60" height="60" viewBox="0 0 60 60" fill="none" xmlns="http://www.w3.org/2000/svg">
<path d="M11.6953 27.7734L10.7812 30.293V44.1797H49.2188V30.293L48.3047 27.7734H11.6953ZM15.4688 36.3867C14.1738 36.3867 13.125 35.3379 13.125 34.043C13.125 32.748 14.1738 31.6992 15.4688 31.6992C16.7637 31.6992 17.8125 32.748 17.8125 34.043C17.8125 35.3379 16.7637 36.3867 15.4688 36.3867ZM38.2031 40.7812C38.2031 41.0391 37.9922 41.25 37.7344 41.25H22.2656C22.0078 41.25 21.7969 41.0391 21.7969 40.7812V35.8594C21.7969 35.6016 22.0078 35.3906 22.2656 35.3906H24.6094C24.8672 35.3906 25.0781 35.6016 25.0781 35.8594V37.9688H34.9219V35.8594C34.9219 35.6016 35.1328 35.3906 35.3906 35.3906H37.7344C37.9922 35.3906 38.2031 35.6016 38.2031 35.8594V40.7812ZM44.5312 36.3867C43.2363 36.3867 42.1875 35.3379 42.1875 34.043C42.1875 32.748 43.2363 31.6992 44.5312 31.6992C45.8262 31.6992 46.875 32.748 46.875 34.043C46.875 35.3379 45.8262 36.3867 44.5312 36.3867Z" fill="#FFF7E6"/>
<path d="M42.1875 34.043C42.1875 34.6646 42.4344 35.2607 42.874 35.7003C43.3135 36.1398 43.9096 36.3867 44.5312 36.3867C45.1529 36.3867 45.749 36.1398 46.1885 35.7003C46.6281 35.2607 46.875 34.6646 46.875 34.043C46.875 33.4214 46.6281 32.8252 46.1885 32.3857C45.749 31.9461 45.1529 31.6992 44.5312 31.6992C43.9096 31.6992 43.3135 31.9461 42.874 32.3857C42.4344 32.8252 42.1875 33.4214 42.1875 34.043Z" fill="#FA541C"/>
<path d="M56.1911 24.2227L54.8025 21.7969C54.74 21.69 54.6378 21.6121 54.5182 21.5802C54.3985 21.5484 54.2711 21.5652 54.1638 21.627L51.1931 23.3614L46.6052 10.6934C46.363 9.9375 45.8868 9.27814 45.2454 8.81053C44.604 8.34291 43.8306 8.09123 43.0368 8.09183H17.6482C15.615 8.09183 13.8103 9.40433 13.1833 11.3438L8.81222 23.3672L5.83566 21.6328C5.72834 21.5711 5.60094 21.5543 5.48128 21.5861C5.36162 21.6179 5.25941 21.6958 5.19698 21.8028L3.80831 24.2227C3.67941 24.4453 3.75558 24.7266 3.97823 24.8555L7.5173 26.918L6.66769 29.2617C6.59737 29.4492 6.56222 29.6485 6.56222 29.8477V50.25C6.56222 51.1699 7.25362 51.9141 8.10323 51.9141H12.0642C12.7849 51.9141 13.4118 51.3692 13.5642 50.6075L14.0153 48.3985H45.9841L46.4353 50.6075C46.5935 51.3692 47.2146 51.9141 47.9353 51.9141H51.8962C52.7458 51.9141 53.4372 51.1699 53.4372 50.25V29.8477C53.4372 29.6485 53.4021 29.4492 53.3318 29.2617L52.4821 26.918L56.0153 24.8555C56.1217 24.7941 56.1997 24.6934 56.2326 24.575C56.2655 24.4567 56.2506 24.3302 56.1911 24.2227ZM17.1501 12.7793L17.1794 12.7032L17.2028 12.627C17.2673 12.4336 17.4431 12.3047 17.6482 12.3047H42.7028L47.1208 24.4922H12.8903L17.1501 12.7793ZM49.2185 44.1797H10.781V30.293L11.695 27.7735H48.3044L49.2185 30.293V44.1797Z" fill="#FA541C"/>
<path d="M13.125 34.043C13.125 34.6646 13.3719 35.2607 13.8115 35.7003C14.251 36.1398 14.8471 36.3867 15.4688 36.3867C16.0904 36.3867 16.6865 36.1398 17.126 35.7003C17.5656 35.2607 17.8125 34.6646 17.8125 34.043C17.8125 33.4214 17.5656 32.8252 17.126 32.3857C16.6865 31.9461 16.0904 31.6992 15.4688 31.6992C14.8471 31.6992 14.251 31.9461 13.8115 32.3857C13.3719 32.8252 13.125 33.4214 13.125 34.043ZM37.7344 35.3906H35.3906C35.1328 35.3906 34.9219 35.6016 34.9219 35.8594V37.9688H25.0781V35.8594C25.0781 35.6016 24.8672 35.3906 24.6094 35.3906H22.2656C22.0078 35.3906 21.7969 35.6016 21.7969 35.8594V40.7812C21.7969 41.0391 22.0078 41.25 22.2656 41.25H37.7344C37.9922 41.25 38.2031 41.0391 38.2031 40.7812V35.8594C38.2031 35.6016 37.9922 35.3906 37.7344 35.3906Z" fill="#FA541C"/>
</svg>
