<svg width="40" height="40" viewBox="0 0 40 40" fill="currentColor" xmlns="http://www.w3.org/2000/svg">
<path d="M33.125 5H6.87498C4.92165 5 3.33331 6.495 3.33331 8.33333V31.6667C3.33331 33.505 4.92165 35 6.87498 35H33.125C35.0783 35 36.6667 33.505 36.6667 31.6667V8.33333C36.6667 6.495 35.0783 5 33.125 5ZM33.125 31.6667H6.87498C6.77998 31.6667 6.71498 31.64 6.68665 31.64C6.67498 31.64 6.66831 31.6433 6.66665 31.6533L6.64665 8.41C6.65831 8.39333 6.73331 8.33333 6.87498 8.33333H33.125C33.2567 8.335 33.3283 8.38 33.3333 8.34667L33.3533 31.59C33.3417 31.6067 33.2667 31.6667 33.125 31.6667Z"/>
<path d="M10 11.6667H20V21.6667H10V11.6667ZM21.6667 25.0001H10V28.3334H30V25.0001H23.3333H21.6667ZM23.3333 18.3334H30V21.6667H23.3333V18.3334ZM23.3333 11.6667H30V15.0001H23.3333V11.6667Z" />
</svg>
