<svg width="16" height="16" viewBox="0 0 16 16" fill="currentColor" fill-opacity="0.65" xmlns="http://www.w3.org/2000/svg">
<g clip-path="url(#clip0Phone)">
<path d="M12.8781 14.5199L14.7781 12.6181C15.0103 12.386 15.1406 12.0753 15.1406 11.7467C15.1406 11.4181 15.0121 11.1074 14.7781 10.8753L12.7335 8.82706C12.5013 8.59492 12.1888 8.46456 11.8603 8.46456C11.5299 8.46456 11.221 8.59314 10.9871 8.82706L9.38527 10.4271C8.53601 10.0626 7.76438 9.53886 7.11205 8.88421C6.45313 8.22885 5.93348 7.46278 5.56562 6.61278L7.16741 5.01278C7.39955 4.78064 7.52991 4.46992 7.52991 4.14135C7.53051 3.97928 7.49876 3.81873 7.43651 3.66909C7.37426 3.51946 7.28278 3.38375 7.16741 3.26992L5.12277 1.21992C4.89063 0.987779 4.57812 0.857421 4.24955 0.857421C3.9192 0.857421 3.61027 0.985993 3.37634 1.21992L1.47634 3.11992C1.07991 3.51635 0.853126 4.06278 0.853126 4.62349C0.853126 4.73956 0.862055 4.85206 0.881697 4.96635C1.27098 7.33063 2.52991 9.67706 4.42277 11.5717C6.3192 13.4646 8.66562 14.7217 11.0317 15.1146C11.7031 15.2271 12.3942 15.0021 12.8781 14.5199ZM11.2442 13.8485C9.13884 13.5003 7.03884 12.3681 5.33348 10.6628C3.62812 8.95742 2.49598 6.85921 2.14777 4.75385C2.10313 4.48956 2.19241 4.21814 2.38348 4.02528L4.24955 2.15921L6.22991 4.13778L4.08705 6.27706L4.07098 6.29314L4.21384 6.67885C4.64383 7.84836 5.32298 8.91039 6.20423 9.79133C7.08548 10.6723 8.14775 11.3511 9.31741 11.7806L9.70312 11.9235L11.8585 9.76635L13.8388 11.7449L11.9728 13.611C11.7799 13.8039 11.5085 13.8931 11.2442 13.8485Z" />
</g>
<defs>
<clipPath id="clip0Phone">
<rect width="16" height="16" fill="white" transform="translate(16) rotate(90)"/>
</clipPath>
</defs>
</svg>
