<svg width="40" height="40" viewBox="0 0 40 40" fill="currentColor" xmlns="http://www.w3.org/2000/svg">
<g clip-path="url(#clip02225skjjhd)">
<path d="M38.7166 15.7586H24.8128V3.57886C24.8128 2.71425 24.1355 2 23.3155 2H1.28342C0.57041 2 0 2.60147 0 3.35331V18.6532C0 19.405 0.57041 20.0065 1.28342 20.0065H4.84849V24.7431C4.84849 24.8559 4.95544 24.9686 5.06239 24.9686C5.09804 24.9686 5.16934 24.931 5.20499 24.8934L9.98217 20.0441H15.1872V32.4494C15.1872 33.2013 15.7576 33.8027 16.4706 33.8027H30.0178L34.795 38.7273C34.8307 38.7648 34.902 38.8024 34.9376 38.8024C35.0446 38.8024 35.1515 38.7273 35.1515 38.5769V33.7651H38.7166C39.4296 33.7651 40 33.1637 40 32.4118V17.1119C40 16.3601 39.4296 15.7586 38.7166 15.7586ZM10.0178 17.6382H9.12656C9.09091 17.6382 9.05526 17.6382 9.01961 17.6758L8.41355 18.3149L7.09447 19.6682L7.05882 17.6382H4.81283H2.24599V4.36829H22.5668V17.6382H10.0178ZM37.754 31.3968H35.1515H32.9055L32.8699 33.4268L31.5865 32.0735L30.9804 31.4344C30.9447 31.3968 30.9091 31.3968 30.8734 31.3968H29.9822H17.4332V20.0441H23.5294C24.2424 20.0441 24.8128 19.4426 24.8128 18.6908V18.1645H37.754V31.3968Z" />
<path d="M14.3671 13.24C14.6167 12.9393 14.795 12.601 14.9376 12.2626C15.0802 11.8115 15.1871 11.2853 15.1871 10.7214C15.1871 9.63122 14.9019 8.7666 14.3315 8.12754C13.7611 7.52607 13.0124 7.18774 12.0499 7.18774C11.0873 7.18774 10.3386 7.48848 9.76821 8.12754C9.1978 8.72901 8.9126 9.59363 8.9126 10.7214C8.9126 11.8491 9.1978 12.7138 9.76821 13.3152C10.3386 13.9167 11.0873 14.255 12.0855 14.255C12.5846 14.255 13.0481 14.1422 13.4759 13.9543C14.0106 14.3302 14.2958 14.5182 14.3315 14.5558C14.5097 14.6685 14.7236 14.7437 14.9019 14.8189L15.3654 13.8415C15.0445 13.6536 14.688 13.4656 14.3671 13.24ZM13.6898 11.6988C13.6185 11.9995 13.4759 12.2251 13.2976 12.4506C12.9055 12.1499 12.5133 11.9243 12.0855 11.774L11.729 12.5634C12.0142 12.6762 12.2638 12.7889 12.549 12.9769C12.3707 13.0521 12.1925 13.0897 12.0142 13.0897C11.5151 13.0897 11.0873 12.9017 10.7664 12.4882C10.4456 12.0747 10.2673 11.5108 10.2673 10.7214C10.2673 9.93195 10.4456 9.36807 10.7664 8.95456C11.0873 8.54105 11.5151 8.35309 12.0499 8.35309C12.5846 8.35309 13.0124 8.54105 13.3333 8.91697C13.6541 9.29289 13.8324 9.89436 13.8324 10.6838C13.8324 11.0597 13.7967 11.398 13.6898 11.6988Z" />
<path d="M24.7416 28.1264H26.132L26.6667 26.5851H29.2336L29.804 28.1264H31.23L28.6631 21.3223H27.2728L24.7416 28.1264ZM28.8057 25.4198H27.0589L27.9145 22.9011L28.8057 25.4198Z" />
</g>
<defs>
<clipPath id="clip02225skjjhd">
<rect width="40" height="36.7273" fill="currentColor" transform="translate(0 2)"/>
</clipPath>
</defs>
</svg>
