<svg width="40" height="40" viewBox="0 0 40 40" fill="currentColor" xmlns="http://www.w3.org/2000/svg">
<path d="M27.857 11.0633V8.92045C27.857 8.72402 27.6963 8.5633 27.4998 8.5633H10.357C10.1605 8.5633 9.99983 8.72402 9.99983 8.92045V11.0633C9.99983 11.2597 10.1605 11.4204 10.357 11.4204H27.4998C27.6963 11.4204 27.857 11.2597 27.857 11.0633ZM10.357 14.9919C10.1605 14.9919 9.99983 15.1526 9.99983 15.349V17.4919C9.99983 17.6883 10.1605 17.849 10.357 17.849H18.5713C18.7677 17.849 18.9284 17.6883 18.9284 17.4919V15.349C18.9284 15.1526 18.7677 14.9919 18.5713 14.9919H10.357ZM16.7855 35.1705H6.4284V3.74187H31.4284V19.099C31.4284 19.2954 31.5891 19.4562 31.7855 19.4562H34.2855C34.482 19.4562 34.6427 19.2954 34.6427 19.099V1.95616C34.6427 1.16598 34.0043 0.527588 33.2141 0.527588H4.64268C3.8525 0.527588 3.21411 1.16598 3.21411 1.95616V36.9562C3.21411 37.7463 3.8525 38.3847 4.64268 38.3847H16.7855C16.982 38.3847 17.1427 38.224 17.1427 38.0276V35.5276C17.1427 35.3312 16.982 35.1705 16.7855 35.1705ZM36.6829 37.4696L32.5177 33.3044C33.5132 31.9874 34.107 30.3446 34.107 28.5633C34.107 24.224 30.5891 20.7062 26.2498 20.7062C21.9105 20.7062 18.3927 24.224 18.3927 28.5633C18.3927 32.9026 21.9105 36.4205 26.2498 36.4205C27.848 36.4205 29.3302 35.9428 30.5713 35.1258L34.7989 39.3535C34.8704 39.4249 34.9596 39.4562 35.0489 39.4562C35.1382 39.4562 35.232 39.4205 35.2989 39.3535L36.6829 37.9696C36.7158 37.9368 36.7419 37.8978 36.7598 37.8549C36.7776 37.812 36.7868 37.766 36.7868 37.7196C36.7868 37.6731 36.7776 37.6271 36.7598 37.5842C36.7419 37.5413 36.7158 37.5023 36.6829 37.4696ZM26.2498 33.5633C23.4864 33.5633 21.2498 31.3267 21.2498 28.5633C21.2498 25.7999 23.4864 23.5633 26.2498 23.5633C29.0132 23.5633 31.2498 25.7999 31.2498 28.5633C31.2498 31.3267 29.0132 33.5633 26.2498 33.5633Z" />
</svg>
