<svg xmlns="http://www.w3.org/2000/svg" width="768" height="188" viewBox="0 0 768 188" fill="none" preserveAspectRatio="none">
<g clip-path="url(#clip09995f541222dh1g16d515615f6s15)">
<rect width="768" height="188" fill="#E1E0D6"/>
<g clip-path="url(#clip1)">
<path d="M-0.5 0H768V188H0L-0.5 0Z" fill="#00628F"/>
<path d="M700.802 161.4C732.668 161.4 758.502 135.567 758.502 103.7C758.502 71.8332 732.668 46 700.802 46C668.935 46 643.102 71.8332 643.102 103.7C643.102 135.567 668.935 161.4 700.802 161.4Z" fill="#09536D"/>
<path d="M746.901 113.2C745.801 115.7 744.601 118.1 743.101 120.4C740.101 124.9 736.401 128.8 732.201 132.2C728.001 135.5 723.501 138.4 718.701 140.8C716.301 142 713.901 143.1 711.401 144C710.201 144.5 709.001 144.9 707.901 145.3L705.001 115.2C705.101 115.2 705.101 115.2 705.201 115.1C706.101 114.8 706.901 114.5 707.701 114.2C709.401 113.5 711.001 112.8 712.601 111.9C715.701 110.2 718.701 108.2 721.301 105.8C721.901 105.2 722.601 104.6 723.201 104L725.001 102C725.601 101.3 726.001 100.6 726.601 99.9002C726.901 99.5002 727.101 99.2002 727.401 98.8002L728.101 97.7002C730.001 94.7002 731.001 91.4002 732.001 88.1002C730.701 91.3002 729.201 94.4002 727.101 97.0002L726.301 98.0002C726.001 98.3002 725.701 98.6002 725.501 98.9002C724.901 99.5002 724.401 100.1 723.801 100.7L721.901 102.3C721.301 102.9 720.601 103.3 719.901 103.8C717.201 105.7 714.301 107.3 711.201 108.5C709.701 109.1 708.101 109.6 706.501 110C705.901 110.2 705.301 110.3 704.701 110.4L701.601 78.2002C701.501 77.5002 700.901 76.9002 700.201 76.9002C699.401 76.9002 698.801 77.5002 698.801 78.2002L696.901 100C696.301 99.8002 695.701 99.5002 695.201 99.2002C691.901 97.7002 688.801 95.9002 685.901 93.7002C683.001 91.5002 680.401 88.9002 678.301 85.9002C676.201 82.9002 674.601 79.4002 673.801 75.7002C674.001 79.5002 674.901 83.3002 676.601 86.9002C678.301 90.5002 680.601 93.7002 683.301 96.6002C686.001 99.5002 689.101 102.1 692.301 104.4C693.701 105.3 695.101 106.2 696.501 107.1L694.301 136.2C694.101 136.1 693.901 136.1 693.801 136C691.801 135.2 689.801 134.4 687.801 133.4C683.901 131.5 680.101 129.3 676.701 126.6C673.301 123.9 670.201 120.8 667.701 117.1C666.401 115.3 665.401 113.3 664.501 111.3C663.601 109.3 663.001 107.1 662.501 104.9C662.701 107.2 663.001 109.4 663.601 111.6C664.201 113.8 665.001 116 666.001 118.1C668.001 122.3 670.801 126.1 674.001 129.5C677.201 132.9 680.901 135.9 684.801 138.5C686.801 139.8 688.801 141.1 690.801 142.2C691.801 142.7 692.701 143.2 693.701 143.7L690.501 186.5C690.401 187.3 691.101 188.1 691.901 188.1H710.401C711.301 188.1 711.901 187.4 711.801 186.5L708.601 153.1C709.201 152.8 709.901 152.5 710.501 152.2C711.801 151.6 713.101 150.9 714.301 150.2C716.801 148.8 719.301 147.4 721.701 145.8C726.501 142.7 730.901 139.1 734.901 135C738.901 130.9 742.301 126.3 744.801 121.3C746.101 118.8 747.001 116.1 747.801 113.4C748.601 110.7 749.001 107.9 749.201 105.2C748.701 108.1 748.001 110.7 746.901 113.2Z" fill="#666666"/>
<path d="M685.301 151.4C687.124 151.4 688.601 149.922 688.601 148.1C688.601 146.277 687.124 144.8 685.301 144.8C683.479 144.8 682.001 146.277 682.001 148.1C682.001 149.922 683.479 151.4 685.301 151.4Z" fill="#016290"/>
<path d="M736.202 145.2C737.637 145.2 738.802 144.036 738.802 142.6C738.802 141.164 737.637 140 736.202 140C734.766 140 733.602 141.164 733.602 142.6C733.602 144.036 734.766 145.2 736.202 145.2Z" fill="#016290"/>
<path d="M726.901 151.3C728.006 151.3 728.901 150.404 728.901 149.3C728.901 148.195 728.006 147.3 726.901 147.3C725.797 147.3 724.901 148.195 724.901 149.3C724.901 150.404 725.797 151.3 726.901 151.3Z" fill="#016290"/>
<path d="M672.202 147.3C673.803 147.3 675.102 146.002 675.102 144.4C675.102 142.798 673.803 141.5 672.202 141.5C670.6 141.5 669.302 142.798 669.302 144.4C669.302 146.002 670.6 147.3 672.202 147.3Z" fill="#016290"/>
<path d="M683.602 143.5C684.32 143.5 684.902 142.918 684.902 142.2C684.902 141.482 684.32 140.9 683.602 140.9C682.884 140.9 682.302 141.482 682.302 142.2C682.302 142.918 682.884 143.5 683.602 143.5Z" fill="#016290"/>
<path d="M689.402 155.9C690.12 155.9 690.702 155.318 690.702 154.6C690.702 153.882 690.12 153.3 689.402 153.3C688.684 153.3 688.102 153.882 688.102 154.6C688.102 155.318 688.684 155.9 689.402 155.9Z" fill="#016290"/>
<path d="M685.902 157.5C686.62 157.5 687.202 156.918 687.202 156.2C687.202 155.482 686.62 154.9 685.902 154.9C685.184 154.9 684.602 155.482 684.602 156.2C684.602 156.918 685.184 157.5 685.902 157.5Z" fill="#016290"/>
<path d="M680.902 154.1C681.343 154.1 681.702 153.742 681.702 153.3C681.702 152.858 681.343 152.5 680.902 152.5C680.46 152.5 680.102 152.858 680.102 153.3C680.102 153.742 680.46 154.1 680.902 154.1Z" fill="#016290"/>
<path d="M684.002 153.7C684.443 153.7 684.802 153.342 684.802 152.9C684.802 152.458 684.443 152.1 684.002 152.1C683.56 152.1 683.202 152.458 683.202 152.9C683.202 153.342 683.56 153.7 684.002 153.7Z" fill="#016290"/>
<path d="M666.802 136.2C667.961 136.2 668.902 135.26 668.902 134.1C668.902 132.94 667.961 132 666.802 132C665.642 132 664.702 132.94 664.702 134.1C664.702 135.26 665.642 136.2 666.802 136.2Z" fill="#016290"/>
<path d="M658.501 132.2C659.661 132.2 660.601 131.26 660.601 130.1C660.601 128.94 659.661 128 658.501 128C657.342 128 656.401 128.94 656.401 130.1C656.401 131.26 657.342 132.2 658.501 132.2Z" fill="#016290"/>
<path d="M727.101 131C727.764 131 728.301 130.463 728.301 129.8C728.301 129.137 727.764 128.6 727.101 128.6C726.439 128.6 725.901 129.137 725.901 129.8C725.901 130.463 726.439 131 727.101 131Z" fill="#016290"/>
<path d="M720.601 153.4C721.264 153.4 721.801 152.863 721.801 152.2C721.801 151.537 721.264 151 720.601 151C719.939 151 719.401 151.537 719.401 152.2C719.401 152.863 719.939 153.4 720.601 153.4Z" fill="#016290"/>
<path d="M716.601 156.3C717.264 156.3 717.801 155.763 717.801 155.1C717.801 154.437 717.264 153.9 716.601 153.9C715.939 153.9 715.401 154.437 715.401 155.1C715.401 155.763 715.939 156.3 716.601 156.3Z" fill="#016290"/>
<path d="M732.802 125.7C733.464 125.7 734.002 125.163 734.002 124.5C734.002 123.837 733.464 123.3 732.802 123.3C732.139 123.3 731.602 123.837 731.602 124.5C731.602 125.163 732.139 125.7 732.802 125.7Z" fill="#016290"/>
<path d="M739.701 120.3C740.364 120.3 740.901 119.763 740.901 119.1C740.901 118.437 740.364 117.9 739.701 117.9C739.039 117.9 738.501 118.437 738.501 119.1C738.501 119.763 739.039 120.3 739.701 120.3Z" fill="#016290"/>
<path d="M641.502 164.825C640.302 164.825 639.302 163.825 639.302 162.625C639.302 161.425 640.302 160.425 641.502 160.425C642.702 160.425 643.702 161.425 643.702 162.625C643.702 163.825 642.702 164.825 641.502 164.825Z" fill="#00628E"/>
<path d="M599.002 176.625H562.902C554.602 176.625 548.802 168.525 551.802 160.925L572.302 109.025L587.902 69.425C591.802 59.525 606.102 59.525 610.002 69.425L625.602 109.025L646.102 160.925C649.102 168.525 643.402 176.625 635.002 176.625H599.002Z" fill="#09536D"/>
<path d="M632.101 142.825L605.001 159.325L602.801 125.425L618.201 111.625L602.501 120.325L601.401 103.025H599.801C598.301 103.025 597.101 104.125 597.001 105.625L594.701 137.625L580.901 130.025L594.301 142.125L591.001 188.225H607.001L605.501 165.025L632.101 142.825Z" fill="#666666"/>
<path d="M614.402 172.025C613.202 172.025 612.202 171.025 612.202 169.825C612.202 168.625 613.202 167.625 614.402 167.625C615.602 167.625 616.602 168.625 616.602 169.825C616.602 171.025 615.602 172.025 614.402 172.025Z" fill="#00628E"/>
<path d="M620.402 165.525C619.202 165.525 618.202 164.525 618.202 163.325C618.202 162.125 619.202 161.125 620.402 161.125C621.602 161.125 622.602 162.125 622.602 163.325C622.602 164.525 621.602 165.525 620.402 165.525Z" fill="#00628E"/>
<path d="M581.802 165.125C580.602 165.125 579.602 164.125 579.602 162.925C579.602 161.725 580.602 160.725 581.802 160.725C583.002 160.725 584.002 161.725 584.002 162.925C583.902 164.125 582.902 165.125 581.802 165.125Z" fill="#00628E"/>
<path d="M582.701 152.025C581.501 152.025 580.501 151.025 580.501 149.825C580.501 148.625 581.501 147.625 582.701 147.625C583.901 147.625 584.901 148.625 584.901 149.825C584.801 151.125 583.901 152.025 582.701 152.025Z" fill="#00628E"/>
<path d="M562.402 157.925C561.202 157.925 560.202 156.925 560.202 155.725C560.202 154.525 561.202 153.525 562.402 153.525C563.602 153.525 564.602 154.525 564.602 155.725C564.602 156.925 563.602 157.925 562.402 157.925Z" fill="#00628E"/>
<path d="M571.802 153.925C570.602 153.925 569.602 152.925 569.602 151.725C569.602 150.525 570.602 149.525 571.802 149.525C573.002 149.525 574.002 150.525 574.002 151.725C573.902 152.925 572.902 153.925 571.802 153.925Z" fill="#00628E"/>
<path d="M569.302 171.125C568.102 171.125 567.102 170.125 567.102 168.925C567.102 167.725 568.102 166.725 569.302 166.725C570.502 166.725 571.502 167.725 571.502 168.925C571.402 170.125 570.402 171.125 569.302 171.125Z" fill="#00628E"/>
<path d="M633.601 157.725C632.401 157.725 631.401 156.725 631.401 155.525C631.401 154.325 632.401 153.325 633.601 153.325C634.801 153.325 635.801 154.325 635.801 155.525C635.801 156.725 634.801 157.725 633.601 157.725Z" fill="#00628E"/>
<path d="M625.601 171.225C626.264 171.225 626.801 170.688 626.801 170.025C626.801 169.362 626.264 168.825 625.601 168.825C624.939 168.825 624.401 169.362 624.401 170.025C624.401 170.688 624.939 171.225 625.601 171.225Z" fill="#00628E"/>
<path d="M636.902 168.925C637.233 168.925 637.502 168.656 637.502 168.325C637.502 167.994 637.233 167.725 636.902 167.725C636.57 167.725 636.302 167.994 636.302 168.325C636.302 168.656 636.57 168.925 636.902 168.925Z" fill="#00628E"/>
<path d="M633.101 172.625C633.433 172.625 633.701 172.356 633.701 172.025C633.701 171.693 633.433 171.425 633.101 171.425C632.77 171.425 632.501 171.693 632.501 172.025C632.501 172.356 632.77 172.625 633.101 172.625Z" fill="#00628E"/>
<path d="M613.601 164.825C613.933 164.825 614.201 164.556 614.201 164.225C614.201 163.894 613.933 163.625 613.601 163.625C613.27 163.625 613.001 163.894 613.001 164.225C613.001 164.556 613.27 164.825 613.601 164.825Z" fill="#00628E"/>
<path d="M629.501 167.325C630.385 167.325 631.101 166.609 631.101 165.725C631.101 164.841 630.385 164.125 629.501 164.125C628.618 164.125 627.901 164.841 627.901 165.725C627.901 166.609 628.618 167.325 629.501 167.325Z" fill="#00628E"/>
<path d="M580.401 171.925C580.954 171.925 581.401 171.477 581.401 170.925C581.401 170.373 580.954 169.925 580.401 169.925C579.849 169.925 579.401 170.373 579.401 170.925C579.401 171.477 579.849 171.925 580.401 171.925Z" fill="#00628E"/>
<path d="M558.401 165.125C558.954 165.125 559.401 164.677 559.401 164.125C559.401 163.573 558.954 163.125 558.401 163.125C557.849 163.125 557.401 163.573 557.401 164.125C557.401 164.677 557.849 165.125 558.401 165.125Z" fill="#00628E"/>
<path d="M571.801 163.725C572.354 163.725 572.801 163.277 572.801 162.725C572.801 162.173 572.354 161.725 571.801 161.725C571.249 161.725 570.801 162.173 570.801 162.725C570.801 163.277 571.249 163.725 571.801 163.725Z" fill="#00628E"/>
<path d="M589.501 156.125C590.054 156.125 590.501 155.677 590.501 155.125C590.501 154.573 590.054 154.125 589.501 154.125C588.949 154.125 588.501 154.573 588.501 155.125C588.501 155.677 588.949 156.125 589.501 156.125Z" fill="#00628E"/>
<path d="M586.302 158.925C586.633 158.925 586.902 158.656 586.902 158.325C586.902 157.994 586.633 157.725 586.302 157.725C585.97 157.725 585.702 157.994 585.702 158.325C585.702 158.656 585.97 158.925 586.302 158.925Z" fill="#00628E"/>
<path d="M577.202 157.625C577.533 157.625 577.802 157.356 577.802 157.025C577.802 156.693 577.533 156.425 577.202 156.425C576.87 156.425 576.602 156.693 576.602 157.025C576.602 157.356 576.87 157.625 577.202 157.625Z" fill="#00628E"/>
<path d="M587.202 168.125C587.533 168.125 587.802 167.856 587.802 167.525C587.802 167.193 587.533 166.925 587.202 166.925C586.87 166.925 586.602 167.193 586.602 167.525C586.602 167.856 586.87 168.125 587.202 168.125Z" fill="#00628E"/>
<path d="M560.202 171.625C560.533 171.625 560.802 171.356 560.802 171.025C560.802 170.693 560.533 170.425 560.202 170.425C559.87 170.425 559.602 170.693 559.602 171.025C559.602 171.356 559.87 171.625 560.202 171.625Z" fill="#00628E"/>
</g>

<path d="M0 132H325.95L370.5 188H0V132Z" fill="#313B3C"/>

</g>
<defs>
<clipPath id="clip09995f541222dh1g16d515615f6s15">
<rect width="768" height="188" fill="white"/>
</clipPath>
<clipPath id="clip1">
<rect width="960" height="188" fill="white" transform="translate(-192)"/>
</clipPath>
</defs>
</svg>