<svg width="40" height="40" viewBox="0 0 40 40" fill="currentColor" xmlns="http://www.w3.org/2000/svg">
<path d="M33.535 29.8281C32.7981 28.0827 31.7288 26.4973 30.3866 25.1602C29.0484 23.8192 27.4633 22.75 25.7186 22.0117C25.703 22.0039 25.6874 22 25.6717 21.9922C28.1053 20.2344 29.6874 17.3711 29.6874 14.1406C29.6874 8.78906 25.3514 4.45312 19.9999 4.45312C14.6483 4.45312 10.3124 8.78906 10.3124 14.1406C10.3124 17.3711 11.8944 20.2344 14.328 21.9961C14.3124 22.0039 14.2967 22.0078 14.2811 22.0156C12.5311 22.7539 10.9608 23.8125 9.61314 25.1641C8.27216 26.5022 7.203 28.0874 6.4647 29.832C5.73939 31.5401 5.34822 33.3713 5.31235 35.2266C5.31131 35.2683 5.31862 35.3097 5.33386 35.3486C5.3491 35.3874 5.37195 35.4228 5.40107 35.4526C5.4302 35.4825 5.465 35.5062 5.50343 35.5224C5.54186 35.5386 5.58315 35.5469 5.62485 35.5469H7.9686C8.14048 35.5469 8.2772 35.4102 8.2811 35.2422C8.35923 32.2266 9.57017 29.4023 11.7108 27.2617C13.9256 25.0469 16.867 23.8281 19.9999 23.8281C23.1327 23.8281 26.0741 25.0469 28.2889 27.2617C30.4295 29.4023 31.6405 32.2266 31.7186 35.2422C31.7225 35.4141 31.8592 35.5469 32.0311 35.5469H34.3749C34.4166 35.5469 34.4578 35.5386 34.4963 35.5224C34.5347 35.5062 34.5695 35.4825 34.5986 35.4526C34.6278 35.4228 34.6506 35.3874 34.6658 35.3486C34.6811 35.3097 34.6884 35.2683 34.6874 35.2266C34.6483 33.3594 34.2616 31.543 33.535 29.8281ZM19.9999 20.8594C18.2069 20.8594 16.5194 20.1602 15.2499 18.8906C13.9803 17.6211 13.2811 15.9336 13.2811 14.1406C13.2811 12.3477 13.9803 10.6602 15.2499 9.39062C16.5194 8.12109 18.2069 7.42188 19.9999 7.42188C21.7928 7.42188 23.4803 8.12109 24.7499 9.39062C26.0194 10.6602 26.7186 12.3477 26.7186 14.1406C26.7186 15.9336 26.0194 17.6211 24.7499 18.8906C23.4803 20.1602 21.7928 20.8594 19.9999 20.8594Z" />
</svg>
