<svg width="16" height="10" viewBox="0 0 16 10" fill="none" xmlns="http://www.w3.org/2000/svg">
<path d="M16 8.33301V9.66634H14V8.33301C14 7.29967 13.5333 6.37301 12.7867 5.70634C16 6.03301 16 8.33301 16 8.33301ZM12 0.333008C13.1067 0.333008 14 1.22634 14 2.33301C14.0004 2.64712 13.9267 2.9569 13.7849 3.23718C13.643 3.51746 13.4371 3.76034 13.1838 3.94609C12.9305 4.13185 12.637 4.25524 12.327 4.30625C12.0171 4.35726 11.6995 4.33445 11.4 4.23967C11.78 3.69967 12 3.04634 12 2.33301C12 1.62634 11.78 0.966341 11.4 0.426341C11.5867 0.366341 11.7933 0.333008 12 0.333008ZM8.66666 0.333008C9.77333 0.333008 10.6667 1.22634 10.6667 2.33301C10.6667 3.43967 9.77333 4.33301 8.66666 4.33301C7.55999 4.33301 6.66666 3.43967 6.66666 2.33301C6.66666 1.22634 7.55999 0.333008 8.66666 0.333008ZM12.6667 8.33301V9.66634H4.66666V8.33301C4.66666 6.85967 6.45999 5.66634 8.66666 5.66634C10.8733 5.66634 12.6667 6.85967 12.6667 8.33301ZM8.66666 1.66634C8.29999 1.66634 7.99999 1.96634 7.99999 2.33301C7.99999 2.69967 8.29999 2.99967 8.66666 2.99967C9.03333 2.99967 9.33333 2.69967 9.33333 2.33301C9.33333 1.96634 9.03333 1.66634 8.66666 1.66634ZM8.66666 6.99967C7.19333 6.99967 5.99999 7.59967 5.99999 8.33301H11.3333C11.3333 7.59967 10.14 6.99967 8.66666 6.99967ZM0.309326 5.74634L1.72666 4.33301L0.309326 2.91967L1.25333 1.97301L2.66666 3.39301L4.07999 1.97301L5.02666 2.91967L3.60666 4.33301L5.02666 5.74634L4.07999 6.69301L2.66666 5.27301L1.25333 6.69301L0.309326 5.74634Z" fill="#FA8C16"/>
</svg>
