<svg width="14" height="14" viewBox="0 0 14 14" fill="currentColor" xmlns="http://www.w3.org/2000/svg">
<path d="M6.53113 1.37573H7.46863C7.55196 1.37573 7.59363 1.4174 7.59363 1.50073V12.5007C7.59363 12.5841 7.55196 12.6257 7.46863 12.6257H6.53113C6.44779 12.6257 6.40613 12.5841 6.40613 12.5007V1.50073C6.40613 1.4174 6.44779 1.37573 6.53113 1.37573Z"/>
<path d="M1.75024 6.40698H12.2502C12.3336 6.40698 12.3752 6.44865 12.3752 6.53198V7.46948C12.3752 7.55282 12.3336 7.59448 12.2502 7.59448H1.75024C1.66691 7.59448 1.62524 7.55282 1.62524 7.46948V6.53198C1.62524 6.44865 1.66691 6.40698 1.75024 6.40698Z"/>
</svg>
