<svg width="190" height="32" viewBox="0 0 190 32" fill="none" xmlns="http://www.w3.org/2000/svg">
<g clip-path="url(#clip0)">
<path d="M189.011 0H180.816C180.357 0 179.968 0.31753 179.862 0.740904L171.596 30.7299C171.42 31.3649 171.914 32 172.55 32H180.745C181.204 32 181.593 31.6825 181.699 31.2591L189.965 1.27012C190.141 0.635061 189.647 0 189.011 0Z" fill="#00BCD4"/>
<path d="M0 0V32H164.743C165.203 32 165.591 31.6825 165.697 31.2591L173.963 1.27012C174.14 0.635061 173.645 0 173.009 0L0 0Z" fill="#00838F"/>
<path d="M76.956 9.814V14.296H72.888V9.814H76.956ZM78.864 14.296V9.814H82.914V14.296H78.864ZM84.768 8.014H70.98V21.352C70.98 22.648 71.682 23.296 73.122 23.296H83.814C84.822 23.242 85.47 22.702 85.758 21.676C85.92 21.064 86.082 20.056 86.226 18.616L84.408 18.04C84.282 19.624 84.156 20.56 84.03 20.848C83.886 21.244 83.616 21.46 83.184 21.496H73.896C73.212 21.496 72.888 21.19 72.888 20.596V16.078H84.768V8.014ZM87.9 12.82V14.638H95.064V21.244H88.62V23.08H103.416V21.244H96.972V14.638H104.082V12.82H96.972V7.222H95.064V12.82H87.9Z" fill="white"/>
<line opacity="0.5" x1="4.37114e-08" y1="15.5" x2="57" y2="15.5" stroke="white"/>
<line opacity="0.5" x1="117" y1="15.5" x2="189" y2="15.5" stroke="white"/>
<circle cx="59" cy="16" r="1.5" stroke="white"/>
<circle cx="115" cy="16" r="1.5" stroke="white"/>
</g>
<defs>
<clipPath id="clip0">
<rect width="190" height="32" fill="white"/>
</clipPath>
</defs>
</svg>
