<svg width="236" height="32" viewBox="0 0 236 32" fill="none" xmlns="http://www.w3.org/2000/svg">
<g clip-path="url(#clip0243223423423423)">
<path d="M235.011 0H226.816C226.357 0 225.968 0.31753 225.862 0.740904L217.596 30.7299C217.42 31.3649 217.914 32 218.55 32H226.745C227.204 32 227.593 31.6825 227.699 31.2591L235.965 1.27012C236.141 0.635061 235.647 0 235.011 0Z" fill="#00BCD4"/>
<path d="M0 0V32H210.743C211.203 32 211.591 31.6825 211.697 31.2591L219.963 1.27012C220.14 0.635061 219.645 0 219.009 0H0V0Z" fill="#00838F"/>
<path d="M99.956 9.814V14.296H95.888V9.814H99.956ZM101.864 14.296V9.814H105.914V14.296H101.864ZM107.768 8.014H93.98V21.352C93.98 22.648 94.682 23.296 96.122 23.296H106.814C107.822 23.242 108.47 22.702 108.758 21.676C108.92 21.064 109.082 20.056 109.226 18.616L107.408 18.04C107.282 19.624 107.156 20.56 107.03 20.848C106.886 21.244 106.616 21.46 106.184 21.496H96.896C96.212 21.496 95.888 21.19 95.888 20.596V16.078H107.768V8.014ZM110.9 12.82V14.638H118.064V21.244H111.62V23.08H126.416V21.244H119.972V14.638H127.082V12.82H119.972V7.222H118.064V12.82H110.9Z" fill="white"/>
<line opacity="0.5" x1="4.37114e-08" y1="15.5" x2="81" y2="15.5" stroke="white"/>
<line opacity="0.5" x1="139" y1="15.5" x2="235" y2="15.5" stroke="white"/>
<circle cx="82" cy="16" r="1.5" stroke="white"/>
<circle cx="138" cy="16" r="1.5" stroke="white"/>
</g>
<defs>
<clipPath id="clip0243223423423423">
<rect width="236" height="32" fill="white"/>
</clipPath>
</defs>
</svg>
