<svg width="160" height="24" viewBox="0 0 160 24" fill="none" xmlns="http://www.w3.org/2000/svg">
<path d="M159.652 1.26507C159.827 0.628471 159.348 0 158.688 0H153.811C153.361 0 152.967 0.300172 152.847 0.733617L146.767 22.7336C146.591 23.3705 147.07 24 147.731 24H152.64C153.09 24 153.485 23.6992 153.604 23.2651L159.652 1.26507Z" fill="#00BCD4"/>
<path d="M0 0V24H140.578C141.028 24 141.422 23.7004 141.542 23.2674L147.648 1.26744C147.825 0.630293 147.346 0 146.685 0H0Z" fill="#00838F"/>
<line opacity="0.5" x1="99" y1="11.5" x2="160" y2="11.5" stroke="white"/>
<circle cx="98" cy="12" r="1.5" stroke="white"/>
<line opacity="0.5" x1="4.37114e-08" y1="11.5" x2="49" y2="11.5" stroke="white"/>
<circle cx="50" cy="12" r="1.5" stroke="white"/>
<path d="M66.188 7.522V11.008H63.024V7.522H66.188ZM67.672 11.008V7.522H70.822V11.008H67.672ZM72.264 6.122H61.54V16.496C61.54 17.504 62.086 18.008 63.206 18.008H71.522C72.306 17.966 72.81 17.546 73.034 16.748C73.16 16.272 73.286 15.488 73.398 14.368L71.984 13.92C71.886 15.152 71.788 15.88 71.69 16.104C71.578 16.412 71.368 16.58 71.032 16.608H63.808C63.276 16.608 63.024 16.37 63.024 15.908V12.394H72.264V6.122ZM74.7 9.86V11.274H80.272V16.412H75.26V17.84H86.768V16.412H81.756V11.274H87.286V9.86H81.756V5.506H80.272V9.86H74.7Z" fill="white"/>
</svg>
