<svg width="140" height="32" viewBox="0 0 140 32" fill="none" xmlns="http://www.w3.org/2000/svg">
<g clip-path="url(#clip0)">
<path d="M139.011 0H130.816C130.357 0 129.968 0.31753 129.862 0.740904L121.596 30.7299C121.42 31.3649 121.914 32 122.55 32H130.745C131.204 32 131.593 31.6825 131.699 31.2591L139.965 1.27012C140.141 0.635061 139.647 0 139.011 0Z" fill="#00BCD4"/>
<path d="M0 0V32H114.743C115.203 32 115.591 31.6825 115.697 31.2591L123.963 1.27012C124.14 0.635061 123.645 0 123.009 0L0 0Z" fill="#00838F"/>
<path d="M51.956 9.814V14.296H47.888V9.814H51.956ZM53.864 14.296V9.814H57.914V14.296H53.864ZM59.768 8.014H45.98V21.352C45.98 22.648 46.682 23.296 48.122 23.296H58.814C59.822 23.242 60.47 22.702 60.758 21.676C60.92 21.064 61.082 20.056 61.226 18.616L59.408 18.04C59.282 19.624 59.156 20.56 59.03 20.848C58.886 21.244 58.616 21.46 58.184 21.496H48.896C48.212 21.496 47.888 21.19 47.888 20.596V16.078H59.768V8.014ZM62.9 12.82V14.638H70.064V21.244H63.62V23.08H78.416V21.244H71.972V14.638H79.082V12.82H71.972V7.222H70.064V12.82H62.9Z" fill="white"/>
<line opacity="0.5" x1="4.37114e-08" y1="15.5" x2="33" y2="15.5" stroke="white"/>
<line opacity="0.5" x1="91" y1="15.5" x2="137" y2="15.5" stroke="white"/>
<circle cx="34" cy="16" r="1.5" stroke="white"/>
<circle cx="90" cy="16" r="1.5" stroke="white"/>
</g>
<defs>
<clipPath id="clip0">
<rect width="140" height="32" fill="white"/>
</clipPath>
</defs>
</svg>
