<svg width="140" height="32" viewBox="0 0 140 32" fill="none" xmlns="http://www.w3.org/2000/svg">
<g clip-path="url(#clip0)">
<path d="M139.011 0H130.816C130.357 0 129.968 0.31753 129.862 0.740904L121.596 30.7299C121.42 31.3649 121.914 32 122.55 32H130.745C131.204 32 131.593 31.6825 131.699 31.2591L139.965 1.27012C140.141 0.635061 139.647 0 139.011 0Z" fill="#FF9800"/>
<path d="M0 0V32H114.743C115.203 32 115.591 31.6825 115.697 31.2591L123.963 1.27012C124.14 0.635061 123.645 0 123.009 0L0 0Z" fill="#EF6C00"/>
<path d="M49.688 12.01H58.13V10.426H49.688V9.4H59.102V7.672H47.87V15.556H45.188V17.284H47.51V21.55C47.51 21.874 47.312 22.108 46.916 22.27L47.672 23.854C50.012 23.458 52.1 22.972 53.9 22.36L53.576 20.686C52.154 21.19 50.732 21.586 49.31 21.874V17.284H60.812V15.556H49.688V14.566H58.148V12.982H49.688V12.01ZM54.098 17.482L52.64 18.328C54.152 21.064 56.69 22.936 60.272 23.944L61.334 22.378C59.732 21.982 58.346 21.388 57.158 20.614C58.13 20.128 59.03 19.48 59.84 18.688L58.634 17.446C57.716 18.382 56.762 19.066 55.754 19.534C55.106 18.922 54.548 18.238 54.098 17.482ZM63.512 7.78V18.976H69.128V7.78H63.512ZM67.346 17.302H65.348V14.206H67.346V17.302ZM65.348 12.514V9.472H67.346V12.514H65.348ZM70.226 13.882V18.976H78.074V13.882H70.226ZM76.238 17.338H72.062V15.538H76.238V17.338ZM72.26 9.544C71.936 10.732 70.982 11.578 69.362 12.1L70.352 13.648C72.512 12.784 73.754 11.416 74.078 9.544H76.634C76.598 10.372 76.544 10.876 76.436 11.074C76.346 11.506 76.148 11.74 75.824 11.758C75.356 11.758 74.78 11.722 74.132 11.668L74.672 13.288C75.176 13.342 75.626 13.378 76.022 13.378C77.03 13.36 77.678 12.946 78.002 12.136C78.29 11.56 78.47 10.102 78.542 7.78H70.01V9.544H72.26ZM64.43 19.516C64.034 21.064 63.548 22.36 63.008 23.368L64.718 23.998C65.276 22.846 65.744 21.496 66.104 19.966L64.43 19.516ZM69.326 19.84L67.598 20.218C67.886 21.28 68.156 22.504 68.372 23.908L70.19 23.458C69.938 22.162 69.65 20.956 69.326 19.84ZM73.142 19.66L71.396 20.038C71.864 21.154 72.26 22.432 72.584 23.872L74.402 23.422C74.042 22.072 73.61 20.812 73.142 19.66ZM76.85 19.282L75.392 20.2C76.328 21.568 77.066 22.828 77.606 23.944L79.1 22.882C78.578 21.856 77.822 20.65 76.85 19.282Z" fill="white"/>
<line opacity="0.5" x1="4.37114e-08" y1="15.5" x2="33" y2="15.5" stroke="white"/>
<line opacity="0.5" x1="91" y1="15.5" x2="137" y2="15.5" stroke="white"/>
<circle cx="34" cy="16" r="1.5" stroke="white"/>
<circle cx="90" cy="16" r="1.5" stroke="white"/>
</g>
<defs>
<clipPath id="clip0">
<rect width="140" height="32" fill="white"/>
</clipPath>
</defs>
</svg>
