<svg width="236" height="32" viewBox="0 0 236 32" fill="none" xmlns="http://www.w3.org/2000/svg">
<g clip-path="url(#clip0werwerwerwe)">
<path d="M235.011 0H226.816C226.357 0 225.968 0.31753 225.862 0.740904L217.596 30.7299C217.42 31.3649 217.914 32 218.55 32H226.745C227.204 32 227.593 31.6825 227.699 31.2591L235.965 1.27012C236.141 0.635061 235.647 0 235.011 0Z" fill="#FF9800"/>
<path d="M0 0V32H210.743C211.203 32 211.591 31.6825 211.697 31.2591L219.963 1.27012C220.14 0.635061 219.645 0 219.009 0H0V0Z" fill="#EF6C00"/>
<path d="M97.688 12.01H106.13V10.426H97.688V9.4H107.102V7.672H95.87V15.556H93.188V17.284H95.51V21.55C95.51 21.874 95.312 22.108 94.916 22.27L95.672 23.854C98.012 23.458 100.1 22.972 101.9 22.36L101.576 20.686C100.154 21.19 98.732 21.586 97.31 21.874V17.284H108.812V15.556H97.688V14.566H106.148V12.982H97.688V12.01ZM102.098 17.482L100.64 18.328C102.152 21.064 104.69 22.936 108.272 23.944L109.334 22.378C107.732 21.982 106.346 21.388 105.158 20.614C106.13 20.128 107.03 19.48 107.84 18.688L106.634 17.446C105.716 18.382 104.762 19.066 103.754 19.534C103.106 18.922 102.548 18.238 102.098 17.482ZM111.512 7.78V18.976H117.128V7.78H111.512ZM115.346 17.302H113.348V14.206H115.346V17.302ZM113.348 12.514V9.472H115.346V12.514H113.348ZM118.226 13.882V18.976H126.074V13.882H118.226ZM124.238 17.338H120.062V15.538H124.238V17.338ZM120.26 9.544C119.936 10.732 118.982 11.578 117.362 12.1L118.352 13.648C120.512 12.784 121.754 11.416 122.078 9.544H124.634C124.598 10.372 124.544 10.876 124.436 11.074C124.346 11.506 124.148 11.74 123.824 11.758C123.356 11.758 122.78 11.722 122.132 11.668L122.672 13.288C123.176 13.342 123.626 13.378 124.022 13.378C125.03 13.36 125.678 12.946 126.002 12.136C126.29 11.56 126.47 10.102 126.542 7.78H118.01V9.544H120.26ZM112.43 19.516C112.034 21.064 111.548 22.36 111.008 23.368L112.718 23.998C113.276 22.846 113.744 21.496 114.104 19.966L112.43 19.516ZM117.326 19.84L115.598 20.218C115.886 21.28 116.156 22.504 116.372 23.908L118.19 23.458C117.938 22.162 117.65 20.956 117.326 19.84ZM121.142 19.66L119.396 20.038C119.864 21.154 120.26 22.432 120.584 23.872L122.402 23.422C122.042 22.072 121.61 20.812 121.142 19.66ZM124.85 19.282L123.392 20.2C124.328 21.568 125.066 22.828 125.606 23.944L127.1 22.882C126.578 21.856 125.822 20.65 124.85 19.282Z" fill="white"/>
<line opacity="0.5" x1="4.37114e-08" y1="15.5" x2="81" y2="15.5" stroke="white"/>
<line opacity="0.5" x1="139" y1="15.5" x2="235" y2="15.5" stroke="white"/>
<circle cx="82" cy="16" r="1.5" stroke="white"/>
<circle cx="138" cy="16" r="1.5" stroke="white"/>
</g>
<defs>
<clipPath id="clip0werwerwerwe">
<rect width="236" height="32" fill="white"/>
</clipPath>
</defs>
</svg>
