<svg width="190" height="32" viewBox="0 0 190 32" fill="none" xmlns="http://www.w3.org/2000/svg">
<g clip-path="url(#clip0)">
<path d="M189.011 0H180.816C180.357 0 179.968 0.31753 179.862 0.740904L171.596 30.7299C171.42 31.3649 171.914 32 172.55 32H180.745C181.204 32 181.593 31.6825 181.699 31.2591L189.965 1.27012C190.141 0.635061 189.647 0 189.011 0Z" fill="#FF9800"/>
<path d="M0 0V32H164.743C165.203 32 165.591 31.6825 165.697 31.2591L173.963 1.27012C174.14 0.635061 173.645 0 173.009 0L0 0Z" fill="#EF6C00"/>
<path d="M74.688 12.01H83.13V10.426H74.688V9.4H84.102V7.672H72.87V15.556H70.188V17.284H72.51V21.55C72.51 21.874 72.312 22.108 71.916 22.27L72.672 23.854C75.012 23.458 77.1 22.972 78.9 22.36L78.576 20.686C77.154 21.19 75.732 21.586 74.31 21.874V17.284H85.812V15.556H74.688V14.566H83.148V12.982H74.688V12.01ZM79.098 17.482L77.64 18.328C79.152 21.064 81.69 22.936 85.272 23.944L86.334 22.378C84.732 21.982 83.346 21.388 82.158 20.614C83.13 20.128 84.03 19.48 84.84 18.688L83.634 17.446C82.716 18.382 81.762 19.066 80.754 19.534C80.106 18.922 79.548 18.238 79.098 17.482ZM88.512 7.78V18.976H94.128V7.78H88.512ZM92.346 17.302H90.348V14.206H92.346V17.302ZM90.348 12.514V9.472H92.346V12.514H90.348ZM95.226 13.882V18.976H103.074V13.882H95.226ZM101.238 17.338H97.062V15.538H101.238V17.338ZM97.26 9.544C96.936 10.732 95.982 11.578 94.362 12.1L95.352 13.648C97.512 12.784 98.754 11.416 99.078 9.544H101.634C101.598 10.372 101.544 10.876 101.436 11.074C101.346 11.506 101.148 11.74 100.824 11.758C100.356 11.758 99.78 11.722 99.132 11.668L99.672 13.288C100.176 13.342 100.626 13.378 101.022 13.378C102.03 13.36 102.678 12.946 103.002 12.136C103.29 11.56 103.47 10.102 103.542 7.78H95.01V9.544H97.26ZM89.43 19.516C89.034 21.064 88.548 22.36 88.008 23.368L89.718 23.998C90.276 22.846 90.744 21.496 91.104 19.966L89.43 19.516ZM94.326 19.84L92.598 20.218C92.886 21.28 93.156 22.504 93.372 23.908L95.19 23.458C94.938 22.162 94.65 20.956 94.326 19.84ZM98.142 19.66L96.396 20.038C96.864 21.154 97.26 22.432 97.584 23.872L99.402 23.422C99.042 22.072 98.61 20.812 98.142 19.66ZM101.85 19.282L100.392 20.2C101.328 21.568 102.066 22.828 102.606 23.944L104.1 22.882C103.578 21.856 102.822 20.65 101.85 19.282Z" fill="white"/>
<line opacity="0.5" x1="4.37114e-08" y1="15.5" x2="57" y2="15.5" stroke="white"/>
<line opacity="0.5" x1="117" y1="15.5" x2="189" y2="15.5" stroke="white"/>
<circle cx="59" cy="16" r="1.5" stroke="white"/>
<circle cx="115" cy="16" r="1.5" stroke="white"/>
</g>
<defs>
<clipPath id="clip0">
<rect width="190" height="32" fill="white"/>
</clipPath>
</defs>
</svg>
