<svg width="190" height="32" viewBox="0 0 190 32" fill="none" xmlns="http://www.w3.org/2000/svg">
<g clip-path="url(#clip0)">
<path d="M189.011 0H180.816C180.357 0 179.968 0.31753 179.862 0.740904L171.596 30.7299C171.42 31.3649 171.914 32 172.55 32H180.745C181.204 32 181.593 31.6825 181.699 31.2591L189.965 1.27012C190.141 0.635061 189.647 0 189.011 0Z" fill="#8BC34A"/>
<path d="M0 0V32H164.743C165.203 32 165.591 31.6825 165.697 31.2591L173.963 1.27012C174.14 0.635061 173.645 0 173.009 0L0 0Z" fill="#558B2F"/>
<path d="M52.8 10.678V12.478H55.86V16.222H51.882V18.058H68.118V16.222H64.14V12.478H67.218V10.678H64.14V7.24H62.25V10.678H57.75V7.168H55.86V10.678H52.8ZM57.75 16.222V12.478H62.25V16.222H57.75ZM57.21 18.274C55.77 19.768 53.97 21.082 51.828 22.198L53.16 23.908C55.32 22.648 57.156 21.19 58.632 19.534L57.21 18.274ZM62.952 18.31L61.602 19.624C63.798 21.154 65.49 22.576 66.678 23.89L68.172 22.396C66.75 21.046 65.004 19.678 62.952 18.31ZM72.366 10.93V14.944H83.652V10.93H72.366ZM81.834 13.36H74.184V12.514H81.834V13.36ZM78.126 7.168L75.948 7.528C76.2 7.834 76.434 8.158 76.65 8.5H70.116V10.264H85.884V8.5H78.81C78.594 8.014 78.36 7.564 78.126 7.168ZM69.72 19.012V20.704H77.388V21.37C77.388 21.982 77.118 22.306 76.578 22.306C76.038 22.306 75.282 22.27 74.328 22.198L74.832 23.872H77.316C78.594 23.872 79.242 23.206 79.242 21.91V20.704H86.28V19.012H79.296C81.204 18.256 82.896 17.572 84.336 16.96V15.646H71.466V17.302H80.556L77.388 18.562V19.012H69.72ZM89.484 11.326V18.76H95.118V19.858H87.954V21.658H95.118V23.89H97.026V21.658H104.046V19.858H97.026V18.76H102.552V11.326H97.026V10.264H103.794V8.5H97.026V7.186H95.118V8.5H88.206V10.264H95.118V11.326H89.484ZM100.734 17.032H97.026V15.88H100.734V17.032ZM95.118 17.032H91.302V15.88H95.118V17.032ZM91.302 14.206V13.036H95.118V14.206H91.302ZM97.026 13.036H100.734V14.206H97.026V13.036ZM111.786 9.382V11.182H115.314C114.306 12.118 112.884 12.892 111.012 13.54L111.984 15.142C113.082 14.674 114.072 14.152 114.936 13.576C115.116 13.756 115.278 13.972 115.44 14.206C114.486 15.214 113.226 16.042 111.678 16.726L112.596 18.328C114.036 17.626 115.242 16.744 116.196 15.682C116.322 15.988 116.43 16.33 116.538 16.69C115.206 18.166 113.352 19.444 110.994 20.524L112.074 22.126C113.892 21.226 115.494 20.092 116.862 18.724C116.88 19.066 116.898 19.426 116.898 19.822C116.898 20.902 116.772 21.55 116.556 21.802C116.304 22.018 115.944 22.144 115.44 22.144H114.072L114.63 23.836C114.954 23.836 115.242 23.818 115.512 23.818C116.664 23.764 117.492 23.548 117.996 23.17C118.464 22.774 118.716 21.658 118.716 19.822C118.716 19.444 118.698 19.066 118.68 18.706C119.454 19.912 120.408 20.992 121.524 21.946L122.478 20.308C120.876 19.138 119.58 17.734 118.59 16.078C119.202 15.646 119.706 15.232 120.102 14.836C120.642 14.314 121.182 13.63 121.722 12.802L120.156 11.848C119.724 12.568 119.256 13.198 118.788 13.702C118.464 14.026 118.122 14.332 117.762 14.584C117.402 13.774 116.934 13.072 116.358 12.46C116.79 12.064 117.168 11.632 117.528 11.182H121.83V9.382H119.562C119.85 8.896 120.138 8.374 120.39 7.798L118.626 7.168C118.338 7.942 118.032 8.68 117.672 9.382H115.782C115.512 8.536 115.206 7.798 114.882 7.15L113.118 7.816C113.424 8.302 113.694 8.824 113.928 9.382H111.786ZM106.224 7.78V23.71H108.096V18.706L108.582 20.236C109.788 20.218 110.634 19.948 111.138 19.426C111.462 19.03 111.624 18.364 111.624 17.392C111.552 16.276 111.102 14.962 110.292 13.45C110.778 11.974 111.21 10.552 111.57 9.184V7.78H106.224ZM108.096 18.382V9.472H109.752C109.428 10.732 108.996 12.154 108.456 13.72C109.356 15.088 109.806 16.312 109.806 17.392C109.806 17.77 109.752 18.04 109.644 18.184C109.518 18.328 109.302 18.436 108.978 18.472C108.744 18.472 108.456 18.436 108.096 18.382Z" fill="white"/>
<line opacity="0.5" x1="4.37114e-08" y1="15.5" x2="40" y2="15.5" stroke="white"/>
<line opacity="0.5" x1="134" y1="15.5" x2="187" y2="15.5" stroke="white"/>
<circle cx="41" cy="16" r="1.5" stroke="white"/>
<circle cx="133" cy="16" r="1.5" stroke="white"/>
</g>
<defs>
<clipPath id="clip0">
<rect width="190" height="32" fill="white"/>
</clipPath>
</defs>
</svg>
