<svg width="160" height="24" viewBox="0 0 160 24" fill="none" xmlns="http://www.w3.org/2000/svg">
<path d="M159.652 1.26507C159.827 0.628471 159.348 0 158.688 0H153.811C153.361 0 152.967 0.300172 152.847 0.733617L146.767 22.7336C146.591 23.3705 147.07 24 147.731 24H152.64C153.09 24 153.485 23.6992 153.604 23.2651L159.652 1.26507Z" fill="#8BC34A"/>
<path d="M0 0V24H140.578C141.028 24 141.422 23.7004 141.542 23.2674L147.648 1.26744C147.825 0.630293 147.346 0 146.685 0H0Z" fill="#558B2F"/>
<line opacity="0.5" x1="113" y1="11.5" x2="158" y2="11.5" stroke="white"/>
<circle cx="112" cy="12" r="1.5" stroke="white"/>
<line opacity="0.5" x1="4.37114e-08" y1="11.5" x2="35" y2="11.5" stroke="white"/>
<circle cx="36" cy="12" r="1.5" stroke="white"/>
<path d="M47.4 8.194V9.594H49.78V12.506H46.686V13.934H59.314V12.506H56.22V9.594H58.614V8.194H56.22V5.52H54.75V8.194H51.25V5.464H49.78V8.194H47.4ZM51.25 12.506V9.594H54.75V12.506H51.25ZM50.83 14.102C49.71 15.264 48.31 16.286 46.644 17.154L47.68 18.484C49.36 17.504 50.788 16.37 51.936 15.082L50.83 14.102ZM55.296 14.13L54.246 15.152C55.954 16.342 57.27 17.448 58.194 18.47L59.356 17.308C58.25 16.258 56.892 15.194 55.296 14.13ZM62.618 8.39V11.512H71.396V8.39H62.618ZM69.982 10.28H64.032V9.622H69.982V10.28ZM67.098 5.464L65.404 5.744C65.6 5.982 65.782 6.234 65.95 6.5H60.868V7.872H73.132V6.5H67.63C67.462 6.122 67.28 5.772 67.098 5.464ZM60.56 14.676V15.992H66.524V16.51C66.524 16.986 66.314 17.238 65.894 17.238C65.474 17.238 64.886 17.21 64.144 17.154L64.536 18.456H66.468C67.462 18.456 67.966 17.938 67.966 16.93V15.992H73.44V14.676H68.008C69.492 14.088 70.808 13.556 71.928 13.08V12.058H61.918V13.346H68.988L66.524 14.326V14.676H60.56ZM75.932 8.698V14.48H80.314V15.334H74.742V16.734H80.314V18.47H81.798V16.734H87.258V15.334H81.798V14.48H86.096V8.698H81.798V7.872H87.062V6.5H81.798V5.478H80.314V6.5H74.938V7.872H80.314V8.698H75.932ZM84.682 13.136H81.798V12.24H84.682V13.136ZM80.314 13.136H77.346V12.24H80.314V13.136ZM77.346 10.938V10.028H80.314V10.938H77.346ZM81.798 10.028H84.682V10.938H81.798V10.028ZM93.278 7.186V8.586H96.022C95.238 9.314 94.132 9.916 92.676 10.42L93.432 11.666C94.286 11.302 95.056 10.896 95.728 10.448C95.868 10.588 95.994 10.756 96.12 10.938C95.378 11.722 94.398 12.366 93.194 12.898L93.908 14.144C95.028 13.598 95.966 12.912 96.708 12.086C96.806 12.324 96.89 12.59 96.974 12.87C95.938 14.018 94.496 15.012 92.662 15.852L93.502 17.098C94.916 16.398 96.162 15.516 97.226 14.452C97.24 14.718 97.254 14.998 97.254 15.306C97.254 16.146 97.156 16.65 96.988 16.846C96.792 17.014 96.512 17.112 96.12 17.112H95.056L95.49 18.428C95.742 18.428 95.966 18.414 96.176 18.414C97.072 18.372 97.716 18.204 98.108 17.91C98.472 17.602 98.668 16.734 98.668 15.306C98.668 15.012 98.654 14.718 98.64 14.438C99.242 15.376 99.984 16.216 100.852 16.958L101.594 15.684C100.348 14.774 99.34 13.682 98.57 12.394C99.046 12.058 99.438 11.736 99.746 11.428C100.166 11.022 100.586 10.49 101.006 9.846L99.788 9.104C99.452 9.664 99.088 10.154 98.724 10.546C98.472 10.798 98.206 11.036 97.926 11.232C97.646 10.602 97.282 10.056 96.834 9.58C97.17 9.272 97.464 8.936 97.744 8.586H101.09V7.186H99.326C99.55 6.808 99.774 6.402 99.97 5.954L98.598 5.464C98.374 6.066 98.136 6.64 97.856 7.186H96.386C96.176 6.528 95.938 5.954 95.686 5.45L94.314 5.968C94.552 6.346 94.762 6.752 94.944 7.186H93.278ZM88.952 5.94V18.33H90.408V14.438L90.786 15.628C91.724 15.614 92.382 15.404 92.774 14.998C93.026 14.69 93.152 14.172 93.152 13.416C93.096 12.548 92.746 11.526 92.116 10.35C92.494 9.202 92.83 8.096 93.11 7.032V5.94H88.952ZM90.408 14.186V7.256H91.696C91.444 8.236 91.108 9.342 90.688 10.56C91.388 11.624 91.738 12.576 91.738 13.416C91.738 13.71 91.696 13.92 91.612 14.032C91.514 14.144 91.346 14.228 91.094 14.256C90.912 14.256 90.688 14.228 90.408 14.186Z" fill="white"/>
</svg>
