<svg width="140" height="32" viewBox="0 0 140 32" fill="none" xmlns="http://www.w3.org/2000/svg">
<g clip-path="url(#clip0)">
<path d="M139.011 0H130.816C130.357 0 129.968 0.31753 129.862 0.740904L121.596 30.7299C121.42 31.3649 121.914 32 122.55 32H130.745C131.204 32 131.593 31.6825 131.699 31.2591L139.965 1.27012C140.141 0.635061 139.647 0 139.011 0Z" fill="#8BC34A"/>
<path d="M0 0V32H114.743C115.203 32 115.591 31.6825 115.697 31.2591L123.963 1.27012C124.14 0.635061 123.645 0 123.009 0L0 0Z" fill="#558B2F"/>
<path d="M27.8 10.678V12.478H30.86V16.222H26.882V18.058H43.118V16.222H39.14V12.478H42.218V10.678H39.14V7.24H37.25V10.678H32.75V7.168H30.86V10.678H27.8ZM32.75 16.222V12.478H37.25V16.222H32.75ZM32.21 18.274C30.77 19.768 28.97 21.082 26.828 22.198L28.16 23.908C30.32 22.648 32.156 21.19 33.632 19.534L32.21 18.274ZM37.952 18.31L36.602 19.624C38.798 21.154 40.49 22.576 41.678 23.89L43.172 22.396C41.75 21.046 40.004 19.678 37.952 18.31ZM47.366 10.93V14.944H58.652V10.93H47.366ZM56.834 13.36H49.184V12.514H56.834V13.36ZM53.126 7.168L50.948 7.528C51.2 7.834 51.434 8.158 51.65 8.5H45.116V10.264H60.884V8.5H53.81C53.594 8.014 53.36 7.564 53.126 7.168ZM44.72 19.012V20.704H52.388V21.37C52.388 21.982 52.118 22.306 51.578 22.306C51.038 22.306 50.282 22.27 49.328 22.198L49.832 23.872H52.316C53.594 23.872 54.242 23.206 54.242 21.91V20.704H61.28V19.012H54.296C56.204 18.256 57.896 17.572 59.336 16.96V15.646H46.466V17.302H55.556L52.388 18.562V19.012H44.72ZM64.484 11.326V18.76H70.118V19.858H62.954V21.658H70.118V23.89H72.026V21.658H79.046V19.858H72.026V18.76H77.552V11.326H72.026V10.264H78.794V8.5H72.026V7.186H70.118V8.5H63.206V10.264H70.118V11.326H64.484ZM75.734 17.032H72.026V15.88H75.734V17.032ZM70.118 17.032H66.302V15.88H70.118V17.032ZM66.302 14.206V13.036H70.118V14.206H66.302ZM72.026 13.036H75.734V14.206H72.026V13.036ZM86.786 9.382V11.182H90.314C89.306 12.118 87.884 12.892 86.012 13.54L86.984 15.142C88.082 14.674 89.072 14.152 89.936 13.576C90.116 13.756 90.278 13.972 90.44 14.206C89.486 15.214 88.226 16.042 86.678 16.726L87.596 18.328C89.036 17.626 90.242 16.744 91.196 15.682C91.322 15.988 91.43 16.33 91.538 16.69C90.206 18.166 88.352 19.444 85.994 20.524L87.074 22.126C88.892 21.226 90.494 20.092 91.862 18.724C91.88 19.066 91.898 19.426 91.898 19.822C91.898 20.902 91.772 21.55 91.556 21.802C91.304 22.018 90.944 22.144 90.44 22.144H89.072L89.63 23.836C89.954 23.836 90.242 23.818 90.512 23.818C91.664 23.764 92.492 23.548 92.996 23.17C93.464 22.774 93.716 21.658 93.716 19.822C93.716 19.444 93.698 19.066 93.68 18.706C94.454 19.912 95.408 20.992 96.524 21.946L97.478 20.308C95.876 19.138 94.58 17.734 93.59 16.078C94.202 15.646 94.706 15.232 95.102 14.836C95.642 14.314 96.182 13.63 96.722 12.802L95.156 11.848C94.724 12.568 94.256 13.198 93.788 13.702C93.464 14.026 93.122 14.332 92.762 14.584C92.402 13.774 91.934 13.072 91.358 12.46C91.79 12.064 92.168 11.632 92.528 11.182H96.83V9.382H94.562C94.85 8.896 95.138 8.374 95.39 7.798L93.626 7.168C93.338 7.942 93.032 8.68 92.672 9.382H90.782C90.512 8.536 90.206 7.798 89.882 7.15L88.118 7.816C88.424 8.302 88.694 8.824 88.928 9.382H86.786ZM81.224 7.78V23.71H83.096V18.706L83.582 20.236C84.788 20.218 85.634 19.948 86.138 19.426C86.462 19.03 86.624 18.364 86.624 17.392C86.552 16.276 86.102 14.962 85.292 13.45C85.778 11.974 86.21 10.552 86.57 9.184V7.78H81.224ZM83.096 18.382V9.472H84.752C84.428 10.732 83.996 12.154 83.456 13.72C84.356 15.088 84.806 16.312 84.806 17.392C84.806 17.77 84.752 18.04 84.644 18.184C84.518 18.328 84.302 18.436 83.978 18.472C83.744 18.472 83.456 18.436 83.096 18.382Z" fill="white"/>
<line opacity="0.5" x1="4.37114e-08" y1="15.5" x2="15" y2="15.5" stroke="white"/>
<line opacity="0.5" x1="109" y1="15.5" x2="137" y2="15.5" stroke="white"/>
<circle cx="16" cy="16" r="1.5" stroke="white"/>
<circle cx="108" cy="16" r="1.5" stroke="white"/>
</g>
<defs>
<clipPath id="clip0">
<rect width="140" height="32" fill="white"/>
</clipPath>
</defs>
</svg>
