<svg width="32" height="46" viewBox="0 0 32 46"  fill="currentColor" xmlns="http://www.w3.org/2000/svg">
<rect width="32" height="46" fill="white"/>
<path d="M18.8315 22.719L13.8002 18.7893C13.7871 18.779 13.7713 18.7725 13.7546 18.7707C13.738 18.769 13.7212 18.7719 13.7062 18.7793C13.6911 18.7866 13.6785 18.798 13.6696 18.8123C13.6608 18.8265 13.6562 18.8429 13.6563 18.8596V19.7223C13.6563 19.777 13.6819 19.8295 13.7243 19.863L17.7422 23.0002L13.7243 26.1375C13.6808 26.171 13.6563 26.2235 13.6563 26.2781V27.1409C13.6563 27.2156 13.7422 27.2569 13.8002 27.2112L18.8315 23.2815C18.8742 23.2481 18.9088 23.2055 18.9326 23.1567C18.9564 23.108 18.9688 23.0545 18.9688 23.0002C18.9688 22.946 18.9564 22.8925 18.9326 22.8438C18.9088 22.795 18.8742 22.7523 18.8315 22.719Z"/>
</svg>
