<svg width="14" height="13" viewBox="0 0 14 13" fill="none" xmlns="http://www.w3.org/2000/svg">
<path d="M11.6666 11.3337H2.33325V12.0003C2.33325 12.1771 2.26301 12.3467 2.13799 12.4717C2.01297 12.5968 1.8434 12.667 1.66659 12.667H0.999919C0.823108 12.667 0.653538 12.5968 0.528514 12.4717C0.40349 12.3467 0.333252 12.1771 0.333252 12.0003V5.33366L1.98659 1.47499C2.08947 1.23499 2.26056 1.03048 2.47862 0.886846C2.69669 0.743207 2.95213 0.66676 3.21325 0.666993H10.7866C11.0475 0.667022 11.3026 0.74359 11.5204 0.887213C11.7382 1.03084 11.9091 1.2352 12.0119 1.47499L13.6666 5.33366V12.0003C13.6666 12.1771 13.5963 12.3467 13.4713 12.4717C13.3463 12.5968 13.1767 12.667 12.9999 12.667H12.3333C12.1564 12.667 11.9869 12.5968 11.8618 12.4717C11.7368 12.3467 11.6666 12.1771 11.6666 12.0003V11.3337ZM12.3333 6.66699H1.66659V10.0003H12.3333V6.66699ZM1.78392 5.33366H12.2159L10.7873 2.00033H3.21325L1.78459 5.33366H1.78392ZM3.33325 9.33366C3.06804 9.33366 2.81368 9.2283 2.62615 9.04077C2.43861 8.85323 2.33325 8.59888 2.33325 8.33366C2.33325 8.06844 2.43861 7.81409 2.62615 7.62655C2.81368 7.43902 3.06804 7.33366 3.33325 7.33366C3.59847 7.33366 3.85282 7.43902 4.04036 7.62655C4.2279 7.81409 4.33325 8.06844 4.33325 8.33366C4.33325 8.59888 4.2279 8.85323 4.04036 9.04077C3.85282 9.2283 3.59847 9.33366 3.33325 9.33366ZM10.6666 9.33366C10.4014 9.33366 10.147 9.2283 9.95948 9.04077C9.77194 8.85323 9.66659 8.59888 9.66659 8.33366C9.66659 8.06844 9.77194 7.81409 9.95948 7.62655C10.147 7.43902 10.4014 7.33366 10.6666 7.33366C10.9318 7.33366 11.1862 7.43902 11.3737 7.62655C11.5612 7.81409 11.6666 8.06844 11.6666 8.33366C11.6666 8.59888 11.5612 8.85323 11.3737 9.04077C11.1862 9.2283 10.9318 9.33366 10.6666 9.33366Z" fill="white"/>
</svg>
