<svg width="22" height="22" viewBox="0 0 22 22" fill="currentColor" xmlns="http://www.w3.org/2000/svg">
<g clip-path="url(#clip0dfgdfgg)">
<path d="M15.2574 7.14174C15.2574 7.03371 15.169 6.94531 15.0609 6.94531L13.4404 6.95268L10.9998 9.86228L8.56161 6.95513L6.93862 6.94777C6.83058 6.94777 6.74219 7.03371 6.74219 7.1442C6.74219 7.19085 6.75937 7.23505 6.78884 7.27188L9.98326 11.0777L6.78884 14.881C6.75917 14.917 6.74271 14.9621 6.74219 15.0087C6.74219 15.1167 6.83058 15.2051 6.93862 15.2051L8.56161 15.1978L10.9998 12.2882L13.4379 15.1953L15.0585 15.2027C15.1665 15.2027 15.2549 15.1167 15.2549 15.0062C15.2549 14.9596 15.2377 14.9154 15.2083 14.8786L12.0188 11.0752L15.2132 7.26942C15.2426 7.23504 15.2574 7.18839 15.2574 7.14174Z" />
<path d="M11 0.0234375C4.92545 0.0234375 0 4.94888 0 11.0234C0 17.098 4.92545 22.0234 11 22.0234C17.0746 22.0234 22 17.098 22 11.0234C22 4.94888 17.0746 0.0234375 11 0.0234375ZM11 20.1574C5.9567 20.1574 1.86607 16.0667 1.86607 11.0234C1.86607 5.98013 5.9567 1.88951 11 1.88951C16.0433 1.88951 20.1339 5.98013 20.1339 11.0234C20.1339 16.0667 16.0433 20.1574 11 20.1574Z" />
</g>
<defs>
<clipPath id="clip0dfgdfgg">
<rect width="22" height="22" fill="white"/>
</clipPath>
</defs>
</svg>
