<svg width="14" height="14" viewBox="0 0 14 14" fill="currentColor" xmlns="http://www.w3.org/2000/svg">
<path d="M12.5 3.25H10.5V2C10.5 1.44844 10.0516 1 9.5 1H4.5C3.94844 1 3.5 1.44844 3.5 2V3.25H1.5C1.22344 3.25 1 3.47344 1 3.75V4.25C1 4.31875 1.05625 4.375 1.125 4.375H2.06875L2.45469 12.5469C2.47969 13.0797 2.92031 13.5 3.45312 13.5H10.5469C11.0813 13.5 11.5203 13.0813 11.5453 12.5469L11.9312 4.375H12.875C12.9438 4.375 13 4.31875 13 4.25V3.75C13 3.47344 12.7766 3.25 12.5 3.25ZM9.375 3.25H4.625V2.125H9.375V3.25Z" />
</svg>
