<svg width="14" height="12" viewBox="0 0 14 12" fill="currentColor" xmlns="http://www.w3.org/2000/svg">
<path fill-rule="evenodd" clip-rule="evenodd" d="M0.875 11.25C0.875 11.25 0 11.25 0 10.375C0 9.5 0.875 6.875 5.25 6.875C9.625 6.875 10.5 9.5 10.5 10.375C10.5 11.25 9.625 11.25 9.625 11.25H0.875ZM5.25 6C5.94619 6 6.61387 5.72344 7.10616 5.23116C7.59844 4.73887 7.875 4.07119 7.875 3.375C7.875 2.67881 7.59844 2.01113 7.10616 1.51884C6.61387 1.02656 5.94619 0.75 5.25 0.75C4.55381 0.75 3.88613 1.02656 3.39384 1.51884C2.90156 2.01113 2.625 2.67881 2.625 3.375C2.625 4.07119 2.90156 4.73887 3.39384 5.23116C3.88613 5.72344 4.55381 6 5.25 6ZM11.8125 3.375C11.9285 3.375 12.0398 3.42109 12.1219 3.50314C12.2039 3.58519 12.25 3.69647 12.25 3.8125V5.5625C12.25 5.67853 12.2039 5.78981 12.1219 5.87186C12.0398 5.95391 11.9285 6 11.8125 6H10.0625C9.94647 6 9.83519 5.95391 9.75314 5.87186C9.67109 5.78981 9.625 5.67853 9.625 5.5625C9.625 5.44647 9.67109 5.33519 9.75314 5.25314C9.83519 5.17109 9.94647 5.125 10.0625 5.125H11.375V3.8125C11.375 3.69647 11.4211 3.58519 11.5031 3.50314C11.5852 3.42109 11.6965 3.375 11.8125 3.375Z"/>
<path fill-rule="evenodd" clip-rule="evenodd" d="M11.375 5.5625C11.375 5.44647 11.4211 5.33519 11.5031 5.25314C11.5852 5.17109 11.6965 5.125 11.8125 5.125H13.5625C13.6785 5.125 13.7898 5.17109 13.8719 5.25314C13.9539 5.33519 14 5.44647 14 5.5625C14 5.67853 13.9539 5.78981 13.8719 5.87186C13.7898 5.95391 13.6785 6 13.5625 6H12.25V7.3125C12.25 7.42853 12.2039 7.53981 12.1219 7.62186C12.0398 7.70391 11.9285 7.75 11.8125 7.75C11.6965 7.75 11.5852 7.70391 11.5031 7.62186C11.4211 7.53981 11.375 7.42853 11.375 7.3125V5.5625Z"/>
</svg>
