<svg width="14" height="14" viewBox="0 0 14 14" fill="currentColor" xmlns="http://www.w3.org/2000/svg">
<path d="M2.08984 7.54609H1V9.72812H2.08984V7.54609ZM7.54609 2.08984H9.72812V1H7.54609V2.08984ZM7.54609 13H9.72812V11.9102H7.54609V13ZM2.08984 10.818H1V13H3.18203V11.9102H2.08984V10.818ZM4.27188 13H6.45391V11.9102H4.27188V13ZM10.818 1V2.08984H11.9078V3.17969H13V1H10.818ZM11.9102 6.45391H13V4.27188H11.9102V6.45391ZM11.9102 11.9102H10.8203V13H13V10.818H11.9102V11.9102ZM11.9102 9.72812H13V7.54609H11.9102V9.72812ZM1 6.45391H6.45391V1H1V6.45391Z" />
</svg>
