<svg width="40" height="40" viewBox="0 0 40 40" fill="none" xmlns="http://www.w3.org/2000/svg">
<circle cx="20" cy="20" r="20" fill="#FF4D4F"/>
<path fill-rule="evenodd" clip-rule="evenodd" d="M20 30C25.523 30 30 25.523 30 20C30 14.477 25.523 10 20 10C14.477 10 10 14.477 10 20C10 25.523 14.477 30 20 30ZM15.094 26.32L26.32 15.094C27.5165 16.6332 28.1098 18.5563 27.9885 20.5021C27.8671 22.4478 27.0394 24.2823 25.6608 25.6608C24.2823 27.0394 22.4478 27.8671 20.5021 27.9885C18.5563 28.1098 16.6332 27.5165 15.094 26.32ZM13.68 24.906C12.4835 23.3668 11.8902 21.4437 12.0115 19.4979C12.1329 17.5522 12.9606 15.7177 14.3392 14.3392C15.7177 12.9606 17.5522 12.1329 19.4979 12.0115C21.4437 11.8902 23.3668 12.4835 24.906 13.68L13.68 24.906Z" fill="white"/>
</svg>
