<svg width="160" height="24" viewBox="0 0 160 24" fill="none" xmlns="http://www.w3.org/2000/svg">
<path d="M159.652 1.26507C159.827 0.628471 159.348 0 158.688 0H153.811C153.361 0 152.967 0.300172 152.847 0.733617L146.767 22.7336C146.591 23.3705 147.07 24 147.731 24H152.64C153.09 24 153.485 23.6992 153.604 23.2651L159.652 1.26507Z" fill="#FF9800"/>
<path d="M0 0V24H140.578C141.028 24 141.422 23.7004 141.542 23.2674L147.648 1.26744C147.825 0.630293 147.346 0 146.685 0H0Z" fill="#EF6C00"/>
<line opacity="0.5" x1="99" y1="11.5" x2="160" y2="11.5" stroke="white"/>
<circle cx="98" cy="12" r="1.5" stroke="white"/>
<line opacity="0.5" x1="4.37114e-08" y1="11.5" x2="49" y2="11.5" stroke="white"/>
<circle cx="50" cy="12" r="1.5" stroke="white"/>
<path d="M64.424 9.23H70.99V7.998H64.424V7.2H71.746V5.856H63.01V11.988H60.924V13.332H62.73V16.65C62.73 16.902 62.576 17.084 62.268 17.21L62.856 18.442C64.676 18.134 66.3 17.756 67.7 17.28L67.448 15.978C66.342 16.37 65.236 16.678 64.13 16.902V13.332H73.076V11.988H64.424V11.218H71.004V9.986H64.424V9.23ZM67.854 13.486L66.72 14.144C67.896 16.272 69.87 17.728 72.656 18.512L73.482 17.294C72.236 16.986 71.158 16.524 70.234 15.922C70.99 15.544 71.69 15.04 72.32 14.424L71.382 13.458C70.668 14.186 69.926 14.718 69.142 15.082C68.638 14.606 68.204 14.074 67.854 13.486ZM75.176 5.94V14.648H79.544V5.94H75.176ZM78.158 13.346H76.604V10.938H78.158V13.346ZM76.604 9.622V7.256H78.158V9.622H76.604ZM80.398 10.686V14.648H86.502V10.686H80.398ZM85.074 13.374H81.826V11.974H85.074V13.374ZM81.98 7.312C81.728 8.236 80.986 8.894 79.726 9.3L80.496 10.504C82.176 9.832 83.142 8.768 83.394 7.312H85.382C85.354 7.956 85.312 8.348 85.228 8.502C85.158 8.838 85.004 9.02 84.752 9.034C84.388 9.034 83.94 9.006 83.436 8.964L83.856 10.224C84.248 10.266 84.598 10.294 84.906 10.294C85.69 10.28 86.194 9.958 86.446 9.328C86.67 8.88 86.81 7.746 86.866 5.94H80.23V7.312H81.98ZM75.89 15.068C75.582 16.272 75.204 17.28 74.784 18.064L76.114 18.554C76.548 17.658 76.912 16.608 77.192 15.418L75.89 15.068ZM79.698 15.32L78.354 15.614C78.578 16.44 78.788 17.392 78.956 18.484L80.37 18.134C80.174 17.126 79.95 16.188 79.698 15.32ZM82.666 15.18L81.308 15.474C81.672 16.342 81.98 17.336 82.232 18.456L83.646 18.106C83.366 17.056 83.03 16.076 82.666 15.18ZM85.55 14.886L84.416 15.6C85.144 16.664 85.718 17.644 86.138 18.512L87.3 17.686C86.894 16.888 86.306 15.95 85.55 14.886Z" fill="white"/>
</svg>
