<svg width="236" height="32" viewBox="0 0 236 32" fill="none" xmlns="http://www.w3.org/2000/svg">
<g clip-path="url(#clip0234234234)">
<path d="M235.011 0H226.816C226.357 0 225.968 0.31753 225.862 0.740904L217.596 30.7299C217.42 31.3649 217.914 32 218.55 32H226.745C227.204 32 227.593 31.6825 227.699 31.2591L235.965 1.27012C236.141 0.635061 235.647 0 235.011 0Z" fill="#8BC34A"/>
<path d="M0 0V32H210.743C211.203 32 211.591 31.6825 211.697 31.2591L219.963 1.27012C220.14 0.635061 219.645 0 219.009 0H0V0Z" fill="#558B2F"/>
<path d="M75.8 10.678V12.478H78.86V16.222H74.882V18.058H91.118V16.222H87.14V12.478H90.218V10.678H87.14V7.24H85.25V10.678H80.75V7.168H78.86V10.678H75.8ZM80.75 16.222V12.478H85.25V16.222H80.75ZM80.21 18.274C78.77 19.768 76.97 21.082 74.828 22.198L76.16 23.908C78.32 22.648 80.156 21.19 81.632 19.534L80.21 18.274ZM85.952 18.31L84.602 19.624C86.798 21.154 88.49 22.576 89.678 23.89L91.172 22.396C89.75 21.046 88.004 19.678 85.952 18.31ZM95.366 10.93V14.944H106.652V10.93H95.366ZM104.834 13.36H97.184V12.514H104.834V13.36ZM101.126 7.168L98.948 7.528C99.2 7.834 99.434 8.158 99.65 8.5H93.116V10.264H108.884V8.5H101.81C101.594 8.014 101.36 7.564 101.126 7.168ZM92.72 19.012V20.704H100.388V21.37C100.388 21.982 100.118 22.306 99.578 22.306C99.038 22.306 98.282 22.27 97.328 22.198L97.832 23.872H100.316C101.594 23.872 102.242 23.206 102.242 21.91V20.704H109.28V19.012H102.296C104.204 18.256 105.896 17.572 107.336 16.96V15.646H94.466V17.302H103.556L100.388 18.562V19.012H92.72ZM112.484 11.326V18.76H118.118V19.858H110.954V21.658H118.118V23.89H120.026V21.658H127.046V19.858H120.026V18.76H125.552V11.326H120.026V10.264H126.794V8.5H120.026V7.186H118.118V8.5H111.206V10.264H118.118V11.326H112.484ZM123.734 17.032H120.026V15.88H123.734V17.032ZM118.118 17.032H114.302V15.88H118.118V17.032ZM114.302 14.206V13.036H118.118V14.206H114.302ZM120.026 13.036H123.734V14.206H120.026V13.036ZM134.786 9.382V11.182H138.314C137.306 12.118 135.884 12.892 134.012 13.54L134.984 15.142C136.082 14.674 137.072 14.152 137.936 13.576C138.116 13.756 138.278 13.972 138.44 14.206C137.486 15.214 136.226 16.042 134.678 16.726L135.596 18.328C137.036 17.626 138.242 16.744 139.196 15.682C139.322 15.988 139.43 16.33 139.538 16.69C138.206 18.166 136.352 19.444 133.994 20.524L135.074 22.126C136.892 21.226 138.494 20.092 139.862 18.724C139.88 19.066 139.898 19.426 139.898 19.822C139.898 20.902 139.772 21.55 139.556 21.802C139.304 22.018 138.944 22.144 138.44 22.144H137.072L137.63 23.836C137.954 23.836 138.242 23.818 138.512 23.818C139.664 23.764 140.492 23.548 140.996 23.17C141.464 22.774 141.716 21.658 141.716 19.822C141.716 19.444 141.698 19.066 141.68 18.706C142.454 19.912 143.408 20.992 144.524 21.946L145.478 20.308C143.876 19.138 142.58 17.734 141.59 16.078C142.202 15.646 142.706 15.232 143.102 14.836C143.642 14.314 144.182 13.63 144.722 12.802L143.156 11.848C142.724 12.568 142.256 13.198 141.788 13.702C141.464 14.026 141.122 14.332 140.762 14.584C140.402 13.774 139.934 13.072 139.358 12.46C139.79 12.064 140.168 11.632 140.528 11.182H144.83V9.382H142.562C142.85 8.896 143.138 8.374 143.39 7.798L141.626 7.168C141.338 7.942 141.032 8.68 140.672 9.382H138.782C138.512 8.536 138.206 7.798 137.882 7.15L136.118 7.816C136.424 8.302 136.694 8.824 136.928 9.382H134.786ZM129.224 7.78V23.71H131.096V18.706L131.582 20.236C132.788 20.218 133.634 19.948 134.138 19.426C134.462 19.03 134.624 18.364 134.624 17.392C134.552 16.276 134.102 14.962 133.292 13.45C133.778 11.974 134.21 10.552 134.57 9.184V7.78H129.224ZM131.096 18.382V9.472H132.752C132.428 10.732 131.996 12.154 131.456 13.72C132.356 15.088 132.806 16.312 132.806 17.392C132.806 17.77 132.752 18.04 132.644 18.184C132.518 18.328 132.302 18.436 131.978 18.472C131.744 18.472 131.456 18.436 131.096 18.382Z" fill="white"/>
<line opacity="0.5" x1="4.37114e-08" y1="15.5" x2="63" y2="15.5" stroke="white"/>
<line opacity="0.5" x1="157" y1="15.5" x2="235" y2="15.5" stroke="white"/>
<circle cx="64" cy="16" r="1.5" stroke="white"/>
<circle cx="156" cy="16" r="1.5" stroke="white"/>
</g>
<defs>
<clipPath id="clip0234234234">
<rect width="236" height="32" fill="white"/>
</clipPath>
</defs>
</svg>
