<svg width="50" height="50" viewBox="0 0 50 50" fill="none" xmlns="http://www.w3.org/2000/svg">
<path d="M25.2082 38.6458L24.9998 38.8542L24.7707 38.6458C14.8748 29.6667 8.33317 23.7292 8.33317 17.7083C8.33317 13.5417 11.4582 10.4167 15.6248 10.4167C18.8332 10.4167 21.9582 12.5 23.0623 15.3333H26.9373C28.0415 12.5 31.1665 10.4167 34.3748 10.4167C38.5415 10.4167 41.6665 13.5417 41.6665 17.7083C41.6665 23.7292 35.1248 29.6667 25.2082 38.6458ZM34.3748 6.25C30.7498 6.25 27.2707 7.9375 24.9998 10.5833C22.729 7.9375 19.2498 6.25 15.6248 6.25C9.20817 6.25 4.1665 11.2708 4.1665 17.7083C4.1665 25.5625 11.2498 32 21.979 41.7292L24.9998 44.4792L28.0207 41.7292C38.7498 32 45.8332 25.5625 45.8332 17.7083C45.8332 11.2708 40.7915 6.25 34.3748 6.25Z" fill="white"/>
</svg>
