<svg width="18" height="12" viewBox="0 0 18 12" fill="currentColor" xmlns="http://www.w3.org/2000/svg">
<path d="M1.99319 6.98438C1.77597 6.98416 1.56458 7.05468 1.39099 7.18527C1.21741 7.31587 1.09107 7.49943 1.03108 7.70821C0.971087 7.91699 0.980711 8.13962 1.05849 8.34244C1.13628 8.54527 1.27798 8.71725 1.46219 8.83238L4.15019 11.5204C4.2431 11.6132 4.35339 11.6869 4.47476 11.7371C4.59613 11.7873 4.7262 11.8131 4.85755 11.8131C4.98889 11.813 5.11895 11.7871 5.24028 11.7368C5.36161 11.6865 5.47185 11.6128 5.56469 11.5199C5.65754 11.427 5.73117 11.3167 5.78139 11.1953C5.83162 11.0739 5.85744 10.9439 5.85739 10.8125C5.85735 10.6812 5.83143 10.5511 5.78112 10.4298C5.73082 10.3085 5.6571 10.1982 5.56419 10.1054L4.44319 8.98537H11.9932C12.2584 8.98537 12.5128 8.88002 12.7003 8.69248C12.8878 8.50495 12.9932 8.25059 12.9932 7.98537C12.9932 7.72016 12.8878 7.4658 12.7003 7.27827C12.5128 7.09073 12.2584 6.98537 11.9932 6.98537H1.99319V6.98438Z" />
<path d="M16.0068 5.0162C16.2241 5.01642 16.4355 4.9459 16.609 4.81531C16.7826 4.68471 16.909 4.50114 16.969 4.29237C17.0289 4.08359 17.0193 3.86096 16.9415 3.65813C16.8638 3.45531 16.722 3.28333 16.5378 3.1682L13.8498 0.480203C13.6622 0.292695 13.4078 0.187406 13.1425 0.1875C12.8772 0.187594 12.6228 0.293062 12.4353 0.480703C12.2478 0.668344 12.1425 0.922786 12.1426 1.18806C12.1427 1.45333 12.2482 1.70769 12.4358 1.8952L13.5568 3.0152H6.00684C5.74162 3.0152 5.48727 3.12056 5.29973 3.3081C5.11219 3.49563 5.00684 3.74999 5.00684 4.0152C5.00684 4.28042 5.11219 4.53477 5.29973 4.72231C5.48727 4.90985 5.74162 5.0152 6.00684 5.0152H16.0068V5.0162Z" />
</svg>
