<svg width="18" height="20" viewBox="0 0 18 20" fill="none" xmlns="http://www.w3.org/2000/svg">
<path d="M17.4805 15.8013H15.6948V14.0156C15.6948 13.9174 15.6145 13.837 15.5162 13.837H14.4448C14.3466 13.837 14.2662 13.9174 14.2662 14.0156V15.8013H12.4805C12.3823 15.8013 12.302 15.8817 12.302 15.9799V17.0513C12.302 17.1495 12.3823 17.2299 12.4805 17.2299H14.2662V19.0156C14.2662 19.1138 14.3466 19.1942 14.4448 19.1942H15.5162C15.6145 19.1942 15.6948 19.1138 15.6948 19.0156V17.2299H17.4805C17.5787 17.2299 17.6591 17.1495 17.6591 17.0513V15.9799C17.6591 15.8817 17.5787 15.8013 17.4805 15.8013ZM5.90686 9.69416C5.88678 9.49996 5.87562 9.30354 5.87562 9.10488C5.87562 8.74997 5.9091 8.40398 5.9716 8.06693C5.98722 7.98657 5.94481 7.90398 5.87115 7.8705C5.56758 7.73434 5.28856 7.54684 5.04749 7.31023C4.76343 7.0348 4.5399 6.70318 4.39116 6.33653C4.24243 5.96989 4.17175 5.57626 4.18365 5.18077C4.20374 4.46425 4.49169 3.78345 4.99392 3.27005C5.54526 2.70532 6.28633 2.39729 7.07428 2.40622C7.78633 2.41291 8.47383 2.68747 8.99392 3.17407C9.17026 3.33925 9.32204 3.52229 9.44928 3.71872C9.49392 3.78791 9.58097 3.81693 9.65687 3.79014C10.0497 3.65398 10.4649 3.558 10.8912 3.51336C11.0162 3.49997 11.0877 3.36604 11.0319 3.25443C10.3064 1.81916 8.82428 0.828091 7.10999 0.801305C4.63678 0.763359 2.57428 2.79238 2.57428 5.26559C2.57428 6.66738 3.21936 7.91738 4.23053 8.73657C3.5207 9.0647 2.86669 9.51782 2.29972 10.0848C1.07651 11.3058 0.384542 12.9174 0.3399 14.6384C0.339304 14.6622 0.343483 14.6859 0.35219 14.7081C0.360896 14.7302 0.373955 14.7505 0.390597 14.7675C0.407239 14.7846 0.427126 14.7981 0.449088 14.8074C0.471049 14.8166 0.49464 14.8214 0.518471 14.8214H1.7707C1.86669 14.8214 1.94704 14.7455 1.94927 14.6495C1.99169 13.3549 2.51624 12.1428 3.43811 11.2232C4.09436 10.5669 4.89794 10.1116 5.77517 9.89059C5.85999 9.86604 5.91803 9.78345 5.90686 9.69416ZM15.9627 9.10488C15.9627 6.66291 14.0006 4.67854 11.5676 4.64059C9.09437 4.60264 7.0341 6.63166 7.0341 9.10488C7.0341 10.5067 7.68142 11.7567 8.69035 12.5759C7.97317 12.9083 7.3203 13.3647 6.76178 13.9241C5.53856 15.1451 4.8466 16.7567 4.80195 18.4754C4.80136 18.4992 4.80554 18.5229 4.81424 18.5451C4.82295 18.5673 4.83601 18.5875 4.85265 18.6046C4.86929 18.6216 4.88918 18.6352 4.91114 18.6444C4.9331 18.6537 4.95669 18.6585 4.98053 18.6584H6.23053C6.32651 18.6584 6.40687 18.5826 6.4091 18.4866C6.45151 17.1919 6.97606 15.9799 7.89794 15.0602C8.85999 14.0982 10.1368 13.5692 11.4984 13.5692C13.9627 13.5692 15.9627 11.5714 15.9627 9.10488ZM13.5185 11.125C12.9783 11.6651 12.2618 11.962 11.4984 11.962C10.735 11.962 10.0185 11.6651 9.47829 11.125C9.20874 10.8568 8.99575 10.5373 8.85197 10.1853C8.70818 9.83331 8.63653 9.45605 8.64124 9.07586C8.64794 8.34372 8.94035 7.63613 9.45151 7.11157C9.98722 6.56247 10.7037 6.25666 11.4694 6.24773C12.2261 6.24104 12.9604 6.53568 13.5006 7.0647C14.0542 7.60711 14.3578 8.33255 14.3578 9.10488C14.3555 9.86827 14.0587 10.5848 13.5185 11.125Z" fill="black" fill-opacity="0.65"/>
</svg>
