<svg width="24" height="26" viewBox="0 0 24 26" fill="none" xmlns="http://www.w3.org/2000/svg">
<path d="M22.9333 -0.000488281H1.06667C0.783769 -0.000488281 0.512458 0.111892 0.31242 0.311931C0.112381 0.51197 0 0.783281 0 1.06618V16.2662C0 16.5491 0.112381 16.8204 0.31242 17.0204C0.512458 17.2205 0.783769 17.3328 1.06667 17.3328H10.6667V25.0662C10.6667 25.1369 10.6948 25.2047 10.7448 25.2547C10.7948 25.3048 10.8626 25.3328 10.9333 25.3328H13.0667C13.1374 25.3328 13.2052 25.3048 13.2552 25.2547C13.3052 25.2047 13.3333 25.1369 13.3333 25.0662V17.3328H22.9333C23.2162 17.3328 23.4875 17.2205 23.6876 17.0204C23.8876 16.8204 24 16.5491 24 16.2662V1.06618C24 0.783281 23.8876 0.51197 23.6876 0.311931C23.4875 0.111892 23.2162 -0.000488281 22.9333 -0.000488281ZM5 14.3995C5 14.4702 4.97191 14.5381 4.9219 14.5881C4.87189 14.6381 4.80406 14.6662 4.73333 14.6662H4C3.92928 14.6662 3.86145 14.6381 3.81144 14.5881C3.76143 14.5381 3.73333 14.4702 3.73333 14.3995V9.59951C3.73333 9.52879 3.76143 9.46096 3.81144 9.41095C3.86145 9.36094 3.92928 9.33285 4 9.33285H4.8C4.87072 9.33285 4.93855 9.36094 4.98856 9.41095C5.03857 9.46096 5.06667 9.52879 5.06667 9.59951L5 14.3995ZM9.66667 14.3995C9.66667 14.4702 9.63857 14.5381 9.58856 14.5881C9.53855 14.6381 9.47073 14.6662 9.4 14.6662H8.6C8.52928 14.6662 8.46145 14.6381 8.41144 14.5881C8.36143 14.5381 8.33333 14.4702 8.33333 14.3995V9.59951C8.33333 9.52879 8.36143 9.46096 8.41144 9.41095C8.46145 9.36094 8.52928 9.33285 8.6 9.33285H9.4C9.47073 9.33285 9.53855 9.36094 9.58856 9.41095C9.63857 9.46096 9.66667 9.52879 9.66667 9.59951V14.3995ZM15 14.3995C15 14.4702 14.9719 14.5381 14.9219 14.5881C14.8719 14.6381 14.8041 14.6662 14.7333 14.6662H13.9333C13.8626 14.6662 13.7948 14.6381 13.7448 14.5881C13.6948 14.5381 13.6667 14.4702 13.6667 14.3995V9.59951C13.6667 9.52879 13.6948 9.46096 13.7448 9.41095C13.7948 9.36094 13.8626 9.33285 13.9333 9.33285H14.7333C14.8041 9.33285 14.8719 9.36094 14.9219 9.41095C14.9719 9.46096 15 9.52879 15 9.59951V14.3995ZM20.3333 14.3995C20.3333 14.4702 20.3052 14.5381 20.2552 14.5881C20.2052 14.6381 20.1374 14.6662 20.0667 14.6662H19.2667C19.1959 14.6662 19.1281 14.6381 19.0781 14.5881C19.0281 14.5381 19 14.4702 19 14.3995V9.59951C19 9.52879 19.0281 9.46096 19.0781 9.41095C19.1281 9.36094 19.1959 9.33285 19.2667 9.33285H20.0667C20.1374 9.33285 20.2052 9.36094 20.2552 9.41095C20.3052 9.46096 20.3333 9.52879 20.3333 9.59951V14.3995ZM22 6.66618H2V1.33285H22V6.66618Z" fill="#FF7A45"/>
</svg>
