<svg width="14" height="16" viewBox="0 0 14 16" fill="none" xmlns="http://www.w3.org/2000/svg">
<path d="M12.7144 7.14509H11.5001V3.14509C11.5001 1.88259 10.4769 0.859375 9.21436 0.859375H4.78578C3.52328 0.859375 2.50007 1.88259 2.50007 3.14509V7.14509H1.28578C0.969713 7.14509 0.714355 7.40045 0.714355 7.71652V14.5737C0.714355 14.8897 0.969713 15.1451 1.28578 15.1451H12.7144C13.0304 15.1451 13.2858 14.8897 13.2858 14.5737V7.71652C13.2858 7.40045 13.0304 7.14509 12.7144 7.14509ZM3.78578 3.14509C3.78578 2.5933 4.234 2.14509 4.78578 2.14509H9.21436C9.76614 2.14509 10.2144 2.5933 10.2144 3.14509V7.14509H3.78578V3.14509ZM12.0001 13.8594H2.00007V8.4308H12.0001V13.8594ZM6.50007 11.3772V12.3237C6.50007 12.4022 6.56436 12.4665 6.64293 12.4665H7.35721C7.43578 12.4665 7.50007 12.4022 7.50007 12.3237V11.3772C7.64748 11.2714 7.7575 11.1215 7.8143 10.9492C7.87111 10.7768 7.87176 10.5909 7.81618 10.4182C7.76059 10.2454 7.65162 10.0948 7.50497 9.98794C7.35831 9.88107 7.18153 9.82349 7.00007 9.82349C6.81861 9.82349 6.64183 9.88107 6.49517 9.98794C6.34852 10.0948 6.23955 10.2454 6.18397 10.4182C6.12838 10.5909 6.12903 10.7768 6.18584 10.9492C6.24264 11.1215 6.35267 11.2714 6.50007 11.3772Z" fill="black" fill-opacity="0.65"/>
</svg>
