<svg width="15" height="83" viewBox="0 0 15 83" fill="none" xmlns="http://www.w3.org/2000/svg">
<rect width="15" height="83" fill="none"/>
<path d="M4.35355 75.1464C4.15829 74.9512 3.84171 74.9512 3.64645 75.1464C3.45118 75.3417 3.45118 75.6583 3.64645 75.8536L4.35355 75.1464ZM7.5 79L7.14645 79.3536C7.34171 79.5488 7.65829 79.5488 7.85355 79.3536L7.5 79ZM11.3536 75.8536C11.5488 75.6583 11.5488 75.3417 11.3536 75.1464C11.1583 74.9512 10.8417 74.9512 10.6464 75.1464L11.3536 75.8536ZM3.64645 75.8536L7.14645 79.3536L7.85355 78.6464L4.35355 75.1464L3.64645 75.8536ZM7.85355 79.3536L11.3536 75.8536L10.6464 75.1464L7.14645 78.6464L7.85355 79.3536Z" fill="#FF7A45"/>
<line x1="7.5" y1="79" x2="7.5" y2="3" stroke="#FF7A45"/>
</svg>
