<svg width="60" height="60" viewBox="0 0 60 60" fill="currentColor" xmlns="http://www.w3.org/2000/svg">
<path fill-rule="evenodd" clip-rule="evenodd" d="M30 56.25C36.9619 56.25 43.6387 53.4844 48.5616 48.5616C53.4844 43.6387 56.25 36.9619 56.25 30C56.25 23.0381 53.4844 16.3613 48.5616 11.4384C43.6387 6.51562 36.9619 3.75 30 3.75C23.0381 3.75 16.3613 6.51562 11.4384 11.4384C6.51562 16.3613 3.75 23.0381 3.75 30C3.75 36.9619 6.51562 43.6387 11.4384 48.5616C16.3613 53.4844 23.0381 56.25 30 56.25ZM30 60C37.9565 60 45.5871 56.8393 51.2132 51.2132C56.8393 45.5871 60 37.9565 60 30C60 22.0435 56.8393 14.4129 51.2132 8.7868C45.5871 3.16071 37.9565 0 30 0C22.0435 0 14.4129 3.16071 8.7868 8.7868C3.16071 14.4129 0 22.0435 0 30C0 37.9565 3.16071 45.5871 8.7868 51.2132C14.4129 56.8393 22.0435 60 30 60Z" />
<path fill-rule="evenodd" clip-rule="evenodd" d="M41.138 18.6373C41.6628 18.1171 42.3713 17.8243 43.1102 17.8223C43.8492 17.8202 44.5592 18.1091 45.0869 18.6264C45.6146 19.1438 45.9175 19.848 45.9301 20.5868C45.9427 21.3257 45.664 22.0398 45.1542 22.5748L30.1842 41.2873C29.9269 41.5645 29.6164 41.7868 29.2712 41.9412C28.926 42.0956 28.5532 42.1787 28.1752 42.1857C27.7971 42.1927 27.4215 42.1234 27.0708 41.982C26.7201 41.8405 26.4016 41.6297 26.1342 41.3623L16.2155 31.4398C15.9391 31.1823 15.7175 30.8718 15.5638 30.5268C15.4101 30.1819 15.3274 29.8094 15.3208 29.4318C15.3141 29.0542 15.3836 28.679 15.525 28.3288C15.6665 27.9786 15.877 27.6605 16.1441 27.3934C16.4111 27.1264 16.7293 26.9158 17.0795 26.7744C17.4297 26.6329 17.8048 26.5634 18.1824 26.5701C18.5601 26.5768 18.9325 26.6594 19.2775 26.8132C19.6225 26.9669 19.933 27.1885 20.1905 27.4648L28.043 35.3136L41.0667 18.7198C41.09 18.6908 41.115 18.6632 41.1417 18.6373H41.138Z"/>
</svg>
