<svg width="60" height="60" viewBox="0 0 60 60" fill="currentColor" xmlns="http://www.w3.org/2000/svg">
<g clip-path="url(#clip0InfoCircle)">
<path d="M30 0C13.433 0 0 13.433 0 30C0 46.567 13.433 60 30 60C46.567 60 60 46.567 60 30C60 13.433 46.567 0 30 0ZM30 54.9107C16.2455 54.9107 5.08929 43.7545 5.08929 30C5.08929 16.2455 16.2455 5.08929 30 5.08929C43.7545 5.08929 54.9107 16.2455 54.9107 30C54.9107 43.7545 43.7545 54.9107 30 54.9107Z"/>
<path d="M26.7847 18.2143C26.7847 19.0668 27.1233 19.8843 27.7261 20.4871C28.3289 21.0899 29.1465 21.4286 29.999 21.4286C30.8514 21.4286 31.669 21.0899 32.2718 20.4871C32.8746 19.8843 33.2132 19.0668 33.2132 18.2143C33.2132 17.3618 32.8746 16.5442 32.2718 15.9414C31.669 15.3386 30.8514 15 29.999 15C29.1465 15 28.3289 15.3386 27.7261 15.9414C27.1233 16.5442 26.7847 17.3618 26.7847 18.2143ZM31.6061 25.7143H28.3918C28.0972 25.7143 27.8561 25.9554 27.8561 26.25V44.4643C27.8561 44.7589 28.0972 45 28.3918 45H31.6061C31.9007 45 32.1418 44.7589 32.1418 44.4643V26.25C32.1418 25.9554 31.9007 25.7143 31.6061 25.7143Z"/>
</g>
<defs>
<clipPath id="clip0InfoCircle">
<rect width="60" height="60" fill="white"/>
</clipPath>
</defs>
</svg>
