<svg width="60" height="60" viewBox="0 0 60 60" fill="currentColor" xmlns="http://www.w3.org/2000/svg">
<path d="M30 60C25.9512 60 22.0195 59.209 18.3223 57.6445C14.748 56.1328 11.543 53.9648 8.78906 51.2109C6.03516 48.457 3.86719 45.252 2.35547 41.6777C0.791016 37.9805 0 34.0488 0 30C0 28.834 0.943359 27.8906 2.10938 27.8906C3.27539 27.8906 4.21875 28.834 4.21875 30C4.21875 33.4805 4.89844 36.8555 6.24609 40.0371C7.54688 43.1074 9.4043 45.8672 11.7715 48.2344C14.1387 50.6016 16.8984 52.4648 19.9688 53.7598C23.1445 55.1016 26.5195 55.7812 30 55.7812C33.4805 55.7812 36.8555 55.1016 40.0371 53.7539C43.1074 52.4531 45.8672 50.5957 48.2344 48.2285C50.6016 45.8613 52.4648 43.1016 53.7598 40.0312C55.1016 36.8555 55.7813 33.4805 55.7813 30C55.7813 26.5195 55.1016 23.1445 53.7539 19.9629C52.4575 16.9 50.5813 14.1165 48.2285 11.7656C45.8803 9.40967 43.0961 7.53302 40.0313 6.24023C36.8555 4.89844 33.4805 4.21875 30 4.21875C28.834 4.21875 27.8906 3.27539 27.8906 2.10938C27.8906 0.943359 28.834 0 30 0C34.0488 0 37.9805 0.791016 41.6777 2.35547C45.252 3.86719 48.457 6.03516 51.2109 8.78906C53.9648 11.543 56.127 14.7539 57.6387 18.3223C59.2031 22.0195 59.9941 25.9512 59.9941 30C59.9941 34.0488 59.2031 37.9805 57.6387 41.6777C56.1328 45.252 53.9648 48.457 51.2109 51.2109C48.457 53.9648 45.2461 56.127 41.6777 57.6387C37.9805 59.209 34.0488 60 30 60Z"/>
</svg>
