<svg width="60" height="60" viewBox="0 0 60 60" fill="currentColor" xmlns="http://www.w3.org/2000/svg">
<path d="M56.5251 19.3644L39.5228 16.8934L31.9224 1.48496C31.7148 1.06308 31.3733 0.721565 30.9514 0.513976C29.8934 -0.00834575 28.6076 0.426922 28.0786 1.48496L20.4782 16.8934L3.47596 19.3644C3.00721 19.4314 2.57863 19.6524 2.25051 19.9872C1.85382 20.3949 1.63523 20.9434 1.64277 21.5122C1.6503 22.0811 1.88334 22.6236 2.29069 23.0207L14.592 35.014L11.6858 51.9492C11.6176 52.3432 11.6612 52.7484 11.8116 53.1188C11.962 53.4892 12.2132 53.8101 12.5367 54.0451C12.8602 54.28 13.243 54.4196 13.6418 54.448C14.0406 54.4765 14.4394 54.3926 14.7929 54.2059L30.0005 46.2104L45.2081 54.2059C45.6233 54.4269 46.1054 54.5006 46.5675 54.4202C47.7327 54.2193 48.5161 53.1144 48.3152 51.9492L45.409 35.014L57.7103 23.0207C58.0452 22.6925 58.2661 22.264 58.3331 21.7952C58.5139 20.6234 57.6969 19.5385 56.5251 19.3644ZM40.2327 33.3265L42.6501 47.4091L30.0005 40.7662L17.351 47.4158L19.7684 33.3332L9.53622 23.3555L23.6791 21.2997L30.0005 8.48942L36.3219 21.2997L50.4648 23.3555L40.2327 33.3265Z"/>
</svg>
