<svg width="14" height="14" viewBox="0 0 14 14" fill="currentColor"  fill-opacity="0.25" xmlns="http://www.w3.org/2000/svg">
<path d="M13.2127 12.3534L9.15492 8.29558C9.78461 7.48152 10.1252 6.48621 10.1252 5.43933C10.1252 4.18621 9.63617 3.01121 8.75179 2.12527C7.86742 1.23933 6.68929 0.751831 5.43773 0.751831C4.18617 0.751831 3.00804 1.24089 2.12367 2.12527C1.23773 3.00964 0.750229 4.18621 0.750229 5.43933C0.750229 6.69089 1.23929 7.86902 2.12367 8.75339C3.00804 9.63933 4.1846 10.1268 5.43773 10.1268C6.4846 10.1268 7.47835 9.78621 8.29242 9.15808L12.3502 13.2143C12.3621 13.2262 12.3763 13.2357 12.3918 13.2421C12.4074 13.2486 12.424 13.2519 12.4409 13.2519C12.4577 13.2519 12.4744 13.2486 12.4899 13.2421C12.5055 13.2357 12.5196 13.2262 12.5315 13.2143L13.2127 12.5346C13.2246 12.5227 13.2341 12.5086 13.2405 12.4931C13.247 12.4775 13.2503 12.4609 13.2503 12.444C13.2503 12.4272 13.247 12.4105 13.2405 12.395C13.2341 12.3794 13.2246 12.3653 13.2127 12.3534ZM7.91273 7.91433C7.25023 8.57527 6.3721 8.93933 5.43773 8.93933C4.50335 8.93933 3.62523 8.57527 2.96273 7.91433C2.30179 7.25183 1.93773 6.37371 1.93773 5.43933C1.93773 4.50496 2.30179 3.62527 2.96273 2.96433C3.62523 2.30339 4.50335 1.93933 5.43773 1.93933C6.3721 1.93933 7.25179 2.30183 7.91273 2.96433C8.57367 3.62683 8.93773 4.50496 8.93773 5.43933C8.93773 6.37371 8.57367 7.25339 7.91273 7.91433Z"/>
</svg>
