<svg width="40" height="40" viewBox="0 0 40 40" fill="none" xmlns="http://www.w3.org/2000/svg">
<path d="M30 11H11.3333C10.9797 11 10.6406 11.1405 10.3905 11.3905C10.1405 11.6406 10 11.9797 10 12.3333V28.3333C10 28.687 10.1405 29.0261 10.3905 29.2761C10.6406 29.5262 10.9797 29.6667 11.3333 29.6667H30C30.3536 29.6667 30.6928 29.5262 30.9428 29.2761C31.1929 29.0261 31.3333 28.687 31.3333 28.3333V12.3333C31.3333 11.9797 31.1929 11.6406 30.9428 11.3905C30.6928 11.1405 30.3536 11 30 11ZM14.6133 13.6667C15.0089 13.6667 15.3956 13.784 15.7245 14.0037C16.0534 14.2235 16.3097 14.5358 16.4611 14.9013C16.6125 15.2668 16.6521 15.6689 16.5749 16.0568C16.4977 16.4448 16.3073 16.8012 16.0275 17.0809C15.7478 17.3606 15.3915 17.5511 15.0035 17.6282C14.6156 17.7054 14.2134 17.6658 13.848 17.5144C13.4825 17.3631 13.1702 17.1067 12.9504 16.7778C12.7306 16.4489 12.6133 16.0622 12.6133 15.6667C12.6133 15.1362 12.824 14.6275 13.1991 14.2525C13.5742 13.8774 14.0829 13.6667 14.6133 13.6667ZM12.6667 26.3333V23.6L16.6667 19.5467C16.7916 19.4225 16.9605 19.3528 17.1367 19.3528C17.3128 19.3528 17.4818 19.4225 17.6067 19.5467L19.3333 21.2333L14.2133 26.3333H12.6667ZM28.6667 26.3333H16.1L20.2533 22.18L23.8533 18.58C23.9782 18.4558 24.1472 18.3861 24.3233 18.3861C24.4995 18.3861 24.6684 18.4558 24.7933 18.58L28.6667 22.4533V26.3333Z" fill="CurrentCOlor"/>
<circle cx="20" cy="20" r="19" stroke="white" stroke-width="2"/>
</svg>
