<svg width="18" height="16" viewBox="0 0 18 16" fill="none" xmlns="http://www.w3.org/2000/svg">
<path d="M6.4213 11.7498H11.5775C11.6635 11.7498 11.7338 11.6794 11.7338 11.5935V9.95288C11.7338 9.86695 11.6635 9.79663 11.5775 9.79663H10.7963C10.7104 9.79663 10.64 9.86695 10.64 9.95288V10.656H7.3588V9.95288C7.3588 9.86695 7.28849 9.79663 7.20255 9.79663H6.4213C6.33536 9.79663 6.26505 9.86695 6.26505 9.95288V11.5935C6.26505 11.6794 6.33536 11.7498 6.4213 11.7498ZM13.0619 9.34741C13.0619 9.55462 13.1442 9.75333 13.2907 9.89984C13.4373 10.0464 13.636 10.1287 13.8432 10.1287C14.0504 10.1287 14.2491 10.0464 14.3956 9.89984C14.5421 9.75333 14.6244 9.55462 14.6244 9.34741C14.6244 9.14021 14.5421 8.9415 14.3956 8.79499C14.2491 8.64847 14.0504 8.56616 13.8432 8.56616C13.636 8.56616 13.4373 8.64847 13.2907 8.79499C13.1442 8.9415 13.0619 9.14021 13.0619 9.34741ZM17.7299 6.07398L17.267 5.26538C17.2462 5.22974 17.2121 5.20377 17.1722 5.19316C17.1323 5.18255 17.0899 5.18815 17.0541 5.20874L16.0639 5.78687L14.5346 1.56421C14.4538 1.31224 14.2951 1.09246 14.0813 0.936588C13.8675 0.780716 13.6097 0.696823 13.3451 0.697022H4.88224C4.2045 0.697022 3.60294 1.13452 3.39395 1.78101L1.93692 5.78882L0.944736 5.21069C0.908964 5.1901 0.866498 5.1845 0.826611 5.19511C0.786723 5.20573 0.752655 5.23169 0.731845 5.26733L0.268955 6.07398C0.225986 6.14819 0.251377 6.24195 0.325595 6.28491L1.50528 6.97241L1.22208 7.75366C1.19864 7.81616 1.18692 7.88257 1.18692 7.94898V14.7498C1.18692 15.0564 1.41739 15.3044 1.7006 15.3044H3.02091C3.26114 15.3044 3.47013 15.1228 3.52091 14.8689L3.6713 14.1326H14.3275L14.4779 14.8689C14.5307 15.1228 14.7377 15.3044 14.9779 15.3044H16.2983C16.5815 15.3044 16.8119 15.0564 16.8119 14.7498V7.94898C16.8119 7.88257 16.8002 7.81616 16.7768 7.75366L16.4936 6.97241L17.6713 6.28491C17.7068 6.26444 17.7328 6.23087 17.7437 6.19142C17.7547 6.15197 17.7497 6.1098 17.7299 6.07398ZM15.4057 8.09741V12.7263H2.59317V8.09741L2.89786 7.25757H15.101L15.4057 8.09741ZM4.71622 2.25952L4.72599 2.23413L4.7338 2.20874C4.75528 2.14429 4.81388 2.10132 4.88224 2.10132H13.2338L14.7065 6.16382H3.2963L4.71622 2.25952ZM3.37442 9.34741C3.37442 9.55462 3.45673 9.75333 3.60325 9.89984C3.74976 10.0464 3.94847 10.1287 4.15567 10.1287C4.36287 10.1287 4.56159 10.0464 4.7081 9.89984C4.85461 9.75333 4.93692 9.55462 4.93692 9.34741C4.93692 9.14021 4.85461 8.9415 4.7081 8.79499C4.56159 8.64847 4.36287 8.56616 4.15567 8.56616C3.94847 8.56616 3.74976 8.64847 3.60325 8.79499C3.45673 8.9415 3.37442 9.14021 3.37442 9.34741Z" fill="#FA541C"/>
</svg>
