<svg width="14" height="14" viewBox="0 0 14 14" fill="none" xmlns="http://www.w3.org/2000/svg">
<path d="M6.53125 1.37573H7.46875C7.55208 1.37573 7.59375 1.4174 7.59375 1.50073V12.5007C7.59375 12.5841 7.55208 12.6257 7.46875 12.6257H6.53125C6.44792 12.6257 6.40625 12.5841 6.40625 12.5007V1.50073C6.40625 1.4174 6.44792 1.37573 6.53125 1.37573Z" fill="#389E0D"/>
<path d="M1.75 6.40698H12.25C12.3333 6.40698 12.375 6.44865 12.375 6.53198V7.46948C12.375 7.55282 12.3333 7.59448 12.25 7.59448H1.75C1.66667 7.59448 1.625 7.55282 1.625 7.46948V6.53198C1.625 6.44865 1.66667 6.40698 1.75 6.40698Z" fill="#389E0D"/>
</svg>
