<svg width="32" height="46" viewBox="0 0 32 46" fill="currentColor" xmlns="http://www.w3.org/2000/svg">
<rect width="32" height="46" fill="white"/>
<path d="M18.3662 19.7219V18.8591C18.3662 18.7844 18.2803 18.7431 18.2223 18.7888L13.191 22.7185C13.1483 22.7518 13.1137 22.7943 13.0899 22.843C13.0661 22.8916 13.0537 22.9451 13.0537 22.9992C13.0537 23.0534 13.0661 23.1068 13.0899 23.1554C13.1137 23.2041 13.1483 23.2467 13.191 23.2799L18.2223 27.2096C18.2814 27.2553 18.3662 27.2141 18.3662 27.1393V26.2766C18.3662 26.2219 18.3406 26.1694 18.2981 26.1359L14.2803 22.9998L18.2981 19.8625C18.3406 19.829 18.3662 19.7766 18.3662 19.7219Z"/>
</svg>
