<svg width="16" height="10" viewBox="0 0 16 10" fill="none" xmlns="http://www.w3.org/2000/svg">
<path d="M8.66675 4.33301C9.06231 4.33301 9.44899 4.21571 9.77789 3.99595C10.1068 3.77619 10.3631 3.46383 10.5145 3.09838C10.6659 2.73292 10.7055 2.33079 10.6283 1.94283C10.5511 1.55487 10.3607 1.1985 10.081 0.918795C9.80126 0.63909 9.44489 0.448609 9.05693 0.371438C8.66897 0.294268 8.26683 0.333874 7.90138 0.48525C7.53593 0.636625 7.22357 0.89297 7.00381 1.22187C6.78405 1.55077 6.66675 1.93745 6.66675 2.33301C6.66675 2.86344 6.87746 3.37215 7.25253 3.74722C7.62761 4.1223 8.13631 4.33301 8.66675 4.33301ZM8.66675 1.66634C8.7986 1.66634 8.9275 1.70544 9.03713 1.7787C9.14676 1.85195 9.23221 1.95607 9.28267 2.07789C9.33313 2.1997 9.34633 2.33375 9.3206 2.46307C9.29488 2.59239 9.23139 2.71118 9.13815 2.80441C9.04492 2.89765 8.92613 2.96114 8.79681 2.98687C8.66749 3.01259 8.53344 2.99939 8.41162 2.94893C8.28981 2.89847 8.18569 2.81302 8.11243 2.70339C8.03918 2.59376 8.00008 2.46486 8.00008 2.33301C8.00008 2.1562 8.07032 1.98663 8.19534 1.8616C8.32037 1.73658 8.48994 1.66634 8.66675 1.66634ZM11.4067 4.23968C11.7968 3.68036 12.0059 3.01489 12.0059 2.33301C12.0059 1.65113 11.7968 0.985655 11.4067 0.426342C11.5985 0.364617 11.7987 0.333129 12.0001 0.333009C12.5305 0.333009 13.0392 0.543722 13.4143 0.918795C13.7894 1.29387 14.0001 1.80258 14.0001 2.33301C14.0001 2.86344 13.7894 3.37215 13.4143 3.74722C13.0392 4.1223 12.5305 4.33301 12.0001 4.33301C11.7987 4.33289 11.5985 4.3014 11.4067 4.23968ZM8.66675 5.66634C4.66675 5.66634 4.66675 8.33301 4.66675 8.33301V9.66634H12.6667V8.33301C12.6667 8.33301 12.6667 5.66634 8.66675 5.66634ZM6.00008 8.33301C6.00008 8.13968 6.21341 6.99968 8.66675 6.99968C11.0001 6.99968 11.2934 8.03968 11.3334 8.33301H6.00008ZM16.0001 8.33301V9.66634H14.0001V8.33301C13.9845 7.83744 13.8704 7.34993 13.6643 6.89895C13.4583 6.44797 13.1645 6.04254 12.8001 5.70634C16.0001 6.03301 16.0001 8.33301 16.0001 8.33301ZM4.89341 2.94634L5.66675 3.88634L2.50008 7.05301L0.666748 5.05301L1.44008 4.27968L2.50008 5.33301L4.89341 2.94634Z" fill="#FA8C16"/>
</svg>
