<svg width="14" height="16" viewBox="0 0 14 16" fill="none" xmlns="http://www.w3.org/2000/svg">
<path d="M13.7858 12.641H12.3572V11.2125C12.3572 11.1339 12.2929 11.0696 12.2144 11.0696H11.3572C11.2786 11.0696 11.2144 11.1339 11.2144 11.2125V12.641H9.78579C9.70722 12.641 9.64293 12.7053 9.64293 12.7839V13.641C9.64293 13.7196 9.70722 13.7839 9.78579 13.7839H11.2144V15.2125C11.2144 15.291 11.2786 15.3553 11.3572 15.3553H12.2144C12.2929 15.3553 12.3572 15.291 12.3572 15.2125V13.7839H13.7858C13.8644 13.7839 13.9286 13.7196 13.9286 13.641V12.7839C13.9286 12.7053 13.8644 12.641 13.7858 12.641ZM4.52686 7.75533C4.51079 7.59997 4.50186 7.44283 4.50186 7.2839C4.50186 6.99997 4.52864 6.72319 4.57864 6.45354C4.59114 6.38926 4.55722 6.32319 4.49829 6.2964C4.25543 6.18747 4.03222 6.03747 3.83936 5.84819C3.61211 5.62784 3.43328 5.36255 3.3143 5.06923C3.19531 4.77591 3.13877 4.46101 3.14829 4.14462C3.16436 3.5714 3.39472 3.02676 3.7965 2.61604C4.23757 2.16426 4.83043 1.91783 5.46079 1.92497C6.03043 1.93033 6.58043 2.14997 6.9965 2.53926C7.13757 2.6714 7.259 2.81783 7.36079 2.97497C7.3965 3.03033 7.46615 3.05354 7.52686 3.03212C7.84115 2.92319 8.17329 2.8464 8.51436 2.81069C8.61436 2.79997 8.6715 2.69283 8.62686 2.60354C8.0465 1.45533 6.86079 0.662473 5.48936 0.641044C3.51079 0.610687 1.86079 2.2339 1.86079 4.21247C1.86079 5.3339 2.37686 6.3339 3.18579 6.98926C2.61793 7.25176 2.09472 7.61426 1.64114 8.06783C0.662573 9.04462 0.109001 10.3339 0.0732868 11.7107C0.0728102 11.7297 0.0761533 11.7487 0.0831188 11.7665C0.0900844 11.7842 0.100532 11.8004 0.113845 11.814C0.127158 11.8277 0.143068 11.8385 0.160637 11.8459C0.178206 11.8533 0.19708 11.8571 0.216144 11.8571H1.21793C1.29472 11.8571 1.359 11.7964 1.36079 11.7196C1.39472 10.6839 1.81436 9.71426 2.55186 8.97854C3.07686 8.45354 3.71972 8.08926 4.4215 7.91247C4.48936 7.89283 4.53579 7.82676 4.52686 7.75533ZM12.5715 7.2839C12.5715 5.33033 11.0019 3.74283 9.05543 3.71247C7.07686 3.68212 5.42864 5.30533 5.42864 7.2839C5.42864 8.40533 5.9465 9.40533 6.75364 10.0607C6.17991 10.3266 5.65761 10.6918 5.21079 11.1393C4.23222 12.116 3.67864 13.4053 3.64293 14.7803C3.64245 14.7994 3.6458 14.8183 3.65276 14.8361C3.65973 14.8538 3.67017 14.87 3.68349 14.8837C3.6968 14.8973 3.71271 14.9081 3.73028 14.9156C3.74785 14.923 3.76672 14.9268 3.78579 14.9268H4.78579C4.86257 14.9268 4.92686 14.866 4.92864 14.7893C4.96257 13.7535 5.38222 12.7839 6.11972 12.0482C6.88936 11.2785 7.91079 10.8553 9.00007 10.8553C10.9715 10.8553 12.5715 9.25712 12.5715 7.2839ZM10.6161 8.89997C10.184 9.33212 9.61079 9.56962 9.00007 9.56962C8.38936 9.56962 7.81614 9.33212 7.384 8.89997C7.16835 8.68545 6.99797 8.42982 6.88294 8.14824C6.76791 7.86665 6.71059 7.56484 6.71436 7.26069C6.71972 6.67497 6.95364 6.1089 7.36257 5.68926C7.79114 5.24997 8.36436 5.00533 8.97686 4.99819C9.58222 4.99283 10.1697 5.22854 10.6019 5.65176C11.0447 6.08569 11.2876 6.66604 11.2876 7.2839C11.2858 7.89462 11.0483 8.46783 10.6161 8.89997Z" fill="#FA8C16"/>
</svg>
