<svg width="140" height="140" viewBox="0 0 140 140" fill="none" xmlns="http://www.w3.org/2000/svg">
<circle cx="70" cy="70" r="70" fill="white"/>
<g clip-path="url(#clip0werwerwefsdfwefsdfsdf)">
<path d="M70.3927 104.493C95.0264 104.493 114.996 100.761 114.996 96.1584C114.996 91.5556 95.0264 87.8242 70.3927 87.8242C45.759 87.8242 25.7894 91.5556 25.7894 96.1584C25.7894 100.761 45.759 104.493 70.3927 104.493Z" fill="#F5F5F7" fill-opacity="0.8"/>
<path fill-rule="evenodd" clip-rule="evenodd" d="M106.075 71.6744L90.3348 52.3027C89.5795 51.3908 88.4756 50.8389 87.3131 50.8389H53.471C52.3091 50.8389 51.2052 51.3908 50.4499 52.3027L34.7104 71.6744V81.7948H106.076V71.6744H106.075Z" fill="#AEB8C2"/>
<path fill-rule="evenodd" clip-rule="evenodd" d="M48.046 25.8359H92.7388C93.4367 25.8359 94.1061 26.1132 94.5996 26.6067C95.0931 27.1002 95.3704 27.7696 95.3704 28.4675V89.878C95.3704 90.576 95.0931 91.2453 94.5996 91.7388C94.1061 92.2324 93.4367 92.5096 92.7388 92.5096H48.046C47.3481 92.5096 46.6787 92.2324 46.1852 91.7388C45.6917 91.2453 45.4144 90.576 45.4144 89.878V28.4675C45.4144 27.7696 45.6917 27.1002 46.1852 26.6067C46.6787 26.1132 47.3481 25.8359 48.046 25.8359V25.8359Z" fill="#F5F5F7"/>
<path fill-rule="evenodd" clip-rule="evenodd" d="M53.8671 32.3838H86.9177C87.2667 32.3838 87.6014 32.5224 87.8481 32.7692C88.0949 33.0159 88.2335 33.3506 88.2335 33.6996V50.1187C88.2335 50.4676 88.0949 50.8023 87.8481 51.0491C87.6014 51.2958 87.2667 51.4344 86.9177 51.4344H53.8671C53.5181 51.4344 53.1834 51.2958 52.9367 51.0491C52.6899 50.8023 52.5513 50.4676 52.5513 50.1187V33.6996C52.5513 33.3506 52.6899 33.0159 52.9367 32.7692C53.1834 32.5224 53.5181 32.3838 53.8671 32.3838ZM54.0394 58.5772H86.7454C87.1401 58.5772 87.5186 58.734 87.7977 59.0131C88.0767 59.2922 88.2335 59.6707 88.2335 60.0654C88.2335 60.4601 88.0767 60.8386 87.7977 61.1177C87.5186 61.3967 87.1401 61.5535 86.7454 61.5535H54.0394C53.6448 61.5535 53.2662 61.3967 52.9872 61.1177C52.7081 60.8386 52.5513 60.4601 52.5513 60.0654C52.5513 59.6707 52.7081 59.2922 52.9872 59.0131C53.2662 58.734 53.6448 58.5772 54.0394 58.5772ZM54.0394 66.316H86.7454C87.1401 66.316 87.5187 66.4729 87.7979 66.752C88.077 67.0311 88.2339 67.4097 88.2339 67.8045C88.2339 68.1993 88.077 68.5779 87.7979 68.857C87.5187 69.1362 87.1401 69.293 86.7454 69.293H54.0394C53.6447 69.293 53.2661 69.1362 52.9869 68.857C52.7078 68.5779 52.551 68.1993 52.551 67.8045C52.551 67.4097 52.7078 67.0311 52.9869 66.752C53.2661 66.4729 53.6447 66.316 54.0394 66.316ZM105.93 94.9358C105.42 96.9562 103.629 98.4621 101.499 98.4621H39.2862C37.1559 98.4621 35.3651 96.9555 34.8559 94.9358C34.7588 94.5508 34.7097 94.1552 34.7098 93.7581V71.6746H52.0243C53.9368 71.6746 55.4783 73.2851 55.4783 75.2404V75.2667C55.4783 77.2213 57.0375 78.7996 58.95 78.7996H81.8348C83.7473 78.7996 85.3066 77.2068 85.3066 75.2515V75.2437C85.3066 73.2884 86.848 71.6739 88.7605 71.6739H106.075V93.7588C106.075 94.1647 106.024 94.5588 105.93 94.9358Z" fill="#DCE0E6"/>
<path fill-rule="evenodd" clip-rule="evenodd" d="M108.106 26.9026L103.612 28.6461C103.497 28.6909 103.371 28.7023 103.25 28.6789C103.128 28.6555 103.015 28.5982 102.925 28.5137C102.834 28.4292 102.77 28.3208 102.738 28.2011C102.706 28.0813 102.709 27.9551 102.746 27.8368L104.02 23.7533C102.317 21.8164 101.317 19.4546 101.317 16.9059C101.317 10.3303 107.974 5 116.185 5C124.395 5 131.053 10.3303 131.053 16.9059C131.053 23.4816 124.396 28.8118 116.185 28.8118C113.206 28.8118 110.432 28.1105 108.106 26.9026Z" fill="#DCE0E6"/>
<path d="M122.042 19.0555C123.077 19.0555 123.916 18.2264 123.916 17.2035C123.916 16.1807 123.077 15.3516 122.042 15.3516C121.007 15.3516 120.168 16.1807 120.168 17.2035C120.168 18.2264 121.007 19.0555 122.042 19.0555Z" fill="white"/>
<path fill-rule="evenodd" clip-rule="evenodd" d="M112.203 18.8238H108.454L110.36 15.583L112.203 18.8238ZM114.545 15.583H117.825V18.8238H114.545V15.583Z" fill="white"/>
<path d="M46.209 120.329V123.124H48.315V123.696H45.715V124.372H48.315V125.165H49.186V124.372H51.734V123.696H49.186V123.124H51.305V120.329H49.186V119.77H51.643V119.107H49.186V118.405H48.315V119.107H45.845V119.77H48.315V120.329H46.209ZM50.525 122.591H49.147V121.954H50.525V122.591ZM48.38 122.591H46.989V121.954H48.38V122.591ZM46.989 121.486V120.875H48.38V121.486H46.989ZM49.147 120.875H50.525V121.486H49.147V120.875ZM53.294 121.941H54.958V125.152H55.816V121.941H57.246V121.109H53.294L53.281 119.913C54.607 119.848 55.803 119.627 56.869 119.25L56.466 118.522C55.374 118.925 54.035 119.159 52.462 119.211V121.863C52.436 123.111 52.15 124.073 51.63 124.775L52.41 125.152C52.956 124.424 53.242 123.358 53.294 121.941ZM55.829 125.516H47.327V130.3H48.237V129.741H54.919V130.3H55.829V125.516ZM48.237 128.974V127.999H54.919V128.974H48.237ZM48.237 127.245V126.27H54.919V127.245H48.237ZM60.561 120.537V122.786H59.014V123.644H60.561V125.815H58.806V126.686H70.194V125.815H68.686V123.644H69.999V122.786H68.686V120.498H69.726V119.614H61.146C61.328 119.25 61.484 118.873 61.614 118.47L60.704 118.353C60.34 119.445 59.664 120.368 58.676 121.135L59.248 121.876C59.755 121.473 60.197 121.031 60.561 120.537ZM61.458 125.815V123.644H62.953V125.815H61.458ZM63.863 125.815V123.644H65.384V125.815H63.863ZM66.281 125.815V123.644H67.776V125.815H66.281ZM67.776 122.786H66.281V120.498H67.776V122.786ZM65.384 122.786H63.863V120.498H65.384V122.786ZM62.953 122.786H61.458V120.498H62.953V122.786ZM60.47 127.245C60.054 128.233 59.56 129.078 58.988 129.793L59.755 130.352C60.327 129.585 60.834 128.675 61.263 127.622L60.47 127.245ZM63.304 127.518L62.446 127.713C62.68 128.454 62.888 129.312 63.057 130.274L64.006 130.066C63.798 129.156 63.564 128.298 63.304 127.518ZM66.099 127.44L65.228 127.635C65.566 128.389 65.852 129.247 66.086 130.222L67.022 130.014C66.762 129.091 66.45 128.233 66.099 127.44ZM68.556 127.18L67.828 127.635C68.53 128.61 69.089 129.507 69.505 130.313L70.285 129.767C69.882 129.039 69.31 128.168 68.556 127.18ZM79.632 121.265H81.517C81.465 123.215 81.127 124.879 80.516 126.27C79.905 125.126 79.515 123.8 79.333 122.318C79.437 121.98 79.528 121.629 79.632 121.265ZM80.022 127.219C79.463 128.142 78.748 128.909 77.877 129.52L78.384 130.339C79.242 129.702 79.957 128.935 80.555 128.038C81.179 128.922 81.959 129.689 82.895 130.352L83.454 129.611C82.492 128.922 81.686 128.103 81.049 127.167C81.881 125.568 82.323 123.605 82.388 121.265H83.285V120.368H79.827C79.957 119.744 80.061 119.094 80.152 118.405L79.229 118.249C78.956 120.654 78.436 122.565 77.669 123.969L78.254 124.697C78.423 124.424 78.592 124.125 78.748 123.8C79.008 125.061 79.424 126.205 80.022 127.219ZM72.274 119.055V120.537H71.741V121.317H72.274V122.799H74.367V123.449H72.092V125.568H74.159C74.029 125.802 73.886 126.036 73.743 126.283H71.637V127.011H73.301C73.054 127.401 72.794 127.804 72.521 128.194C73.067 128.35 73.613 128.545 74.172 128.753C73.47 129.091 72.651 129.39 71.715 129.65L72.222 130.326C73.34 129.988 74.302 129.598 75.108 129.13C75.849 129.442 76.59 129.793 77.344 130.209L77.851 129.546C77.175 129.208 76.525 128.896 75.888 128.636C76.59 128.116 77.123 127.531 77.513 126.881V126.283H74.653C74.783 126.062 74.913 125.828 75.056 125.568H77.513V123.449H75.225V122.799H77.331V121.317H77.864V120.537H77.331V119.055H75.225V118.392H74.367V119.055H72.274ZM75.017 128.285C74.562 128.116 74.12 127.973 73.678 127.856C73.834 127.609 74.016 127.323 74.224 127.011H76.512C76.122 127.479 75.628 127.895 75.017 128.285ZM76.525 122.136H75.225V121.239H76.525V122.136ZM75.225 120.615V119.731H76.525V120.615H75.225ZM74.367 122.136H73.08V121.239H74.367V122.136ZM73.08 120.615V119.731H74.367V120.615H73.08ZM76.707 124.918H75.225V124.086H76.707V124.918ZM74.367 124.918H72.898V124.086H74.367V124.918ZM94.413 123.891C94.803 123.891 95.089 123.839 95.271 123.748C95.479 123.631 95.622 123.306 95.7 122.786L94.92 122.539C94.881 122.89 94.816 123.098 94.712 123.176C94.621 123.228 94.465 123.254 94.257 123.254H92.944C92.736 123.254 92.632 123.163 92.632 123.007V122.565L94.517 122.37L94.426 121.798L92.632 121.98V121.187H95.349C95.271 121.564 95.167 121.915 95.037 122.227L95.817 122.448C95.999 121.902 96.129 121.356 96.22 120.81V120.42H92.671V119.692H95.583V118.964H92.671V118.392H91.787V120.42H88.953V125.334C88.914 127.102 88.563 128.558 87.9 129.702L88.563 130.287C89.369 128.909 89.785 127.258 89.785 125.308V121.187H91.8V122.084L90.253 122.266L90.344 122.916L91.8 122.747V123.176C91.8 123.644 92.112 123.891 92.749 123.891H94.413ZM95.453 125.399C94.933 125.971 94.387 126.4 93.815 126.699C93.633 126.231 93.36 125.815 92.996 125.425C93.1 125.321 93.191 125.217 93.295 125.1H95.856V124.398H90.448V125.1H92.515C92.047 125.516 91.254 125.893 90.149 126.231L90.526 126.842C91.28 126.556 91.93 126.244 92.45 125.88C92.554 126.01 92.658 126.166 92.762 126.335C91.982 126.907 91.059 127.362 89.993 127.7L90.383 128.285C91.371 127.947 92.242 127.479 93.022 126.855C93.1 127.024 93.152 127.219 93.204 127.427C92.268 128.194 91.124 128.792 89.798 129.221L90.227 129.858C91.371 129.442 92.398 128.87 93.308 128.142C93.308 128.207 93.321 128.285 93.321 128.376C93.321 128.87 93.269 129.195 93.178 129.364C93.1 129.494 92.918 129.559 92.606 129.572H91.8L92.06 130.287H92.723C93.347 130.287 93.75 130.131 93.919 129.832C94.075 129.559 94.153 129.078 94.153 128.376C94.14 128.025 94.101 127.687 94.023 127.349C94.166 127.284 94.322 127.206 94.478 127.128C94.829 128.259 95.336 129.13 95.986 129.741L96.545 129.104C95.895 128.61 95.401 127.83 95.037 126.764C95.362 126.53 95.674 126.244 95.986 125.932L95.453 125.399ZM84.715 120.875V121.72H86.288V124.593C85.716 124.788 85.144 124.957 84.559 125.087L84.78 125.971C85.3 125.815 85.794 125.659 86.288 125.477V128.922C86.288 129.234 86.132 129.39 85.82 129.39C85.482 129.39 85.118 129.364 84.754 129.325L84.936 130.17H86.119C86.834 130.17 87.198 129.819 87.198 129.143V125.113C87.575 124.957 87.952 124.775 88.329 124.593V123.696C87.965 123.878 87.588 124.06 87.198 124.229V121.72H88.355V120.875H87.198V118.431H86.288V120.875H84.715Z" fill="black" fill-opacity="0.85"/>
</g>
<defs>
<clipPath id="clip0werwerwefsdfwefsdfsdf">
<rect width="121" height="130" fill="white" transform="translate(10 5)"/>
</clipPath>
</defs>
</svg>
