<svg width="16" height="16" viewBox="0 0 16 16" fill="none" xmlns="http://www.w3.org/2000/svg">
<path d="M13.3379 15.1309L15.416 13.0508C15.6699 12.7969 15.8125 12.457 15.8125 12.0977C15.8125 11.7383 15.6719 11.3984 15.416 11.1445L13.1797 8.9043C12.9258 8.65039 12.584 8.50781 12.2246 8.50781C11.8633 8.50781 11.5254 8.64844 11.2695 8.9043L9.51758 10.6543C8.5887 10.2556 7.74473 9.68282 7.03125 8.9668C6.31055 8.25 5.74219 7.41211 5.33984 6.48242L7.0918 4.73242C7.3457 4.47852 7.48828 4.13867 7.48828 3.7793C7.48894 3.60204 7.45421 3.42643 7.38613 3.26276C7.31804 3.0991 7.21798 2.95067 7.0918 2.82617L4.85547 0.583984C4.60156 0.330078 4.25977 0.187499 3.90039 0.187499C3.53906 0.187499 3.20117 0.328125 2.94531 0.583984L0.867188 2.66211C0.433595 3.0957 0.185549 3.69336 0.185549 4.30664C0.185549 4.43359 0.195314 4.55664 0.216799 4.68164C0.64258 7.26758 2.01953 9.83398 4.08984 11.9062C6.16406 13.9766 8.73047 15.3516 11.3184 15.7812C12.0527 15.9043 12.8086 15.6582 13.3379 15.1309ZM11.5508 14.3965C9.24805 14.0156 6.95117 12.7773 5.08594 10.9121C3.2207 9.04687 1.98242 6.75195 1.60156 4.44922C1.55274 4.16016 1.65039 3.86328 1.85938 3.65234L3.90039 1.61133L6.06641 3.77539L3.72266 6.11523L3.70508 6.13281L3.86133 6.55469C4.33163 7.83384 5.07445 8.99544 6.03832 9.95897C7.00219 10.9225 8.16404 11.6649 9.44336 12.1348L9.86523 12.291L12.2227 9.93164L14.3887 12.0957L12.3477 14.1367C12.1367 14.3477 11.8398 14.4453 11.5508 14.3965Z" fill="black" fill-opacity="0.85"/>
</svg>
