<svg width="50" height="24" viewBox="0 0 50 24" fill="none" xmlns="http://www.w3.org/2000/svg">
<rect width="50" height="24" rx="12" fill="#1890FF"/>
<path d="M16.2703 17.7047L17.9328 16.0406C18.1359 15.8375 18.25 15.5656 18.25 15.2781C18.25 14.9906 18.1375 14.7187 17.9328 14.5156L16.1437 12.7234C15.9406 12.5203 15.6672 12.4062 15.3797 12.4062C15.0906 12.4062 14.8203 12.5187 14.6156 12.7234L13.2141 14.1234C12.471 13.8045 11.7958 13.3463 11.225 12.7734C10.6484 12.2 10.1938 11.5297 9.87188 10.7859L11.2734 9.38594C11.4766 9.18281 11.5906 8.91094 11.5906 8.62344C11.5911 8.48163 11.5634 8.34114 11.5089 8.21021C11.4544 8.07928 11.3744 7.96053 11.2734 7.86094L9.48438 6.06719C9.28125 5.86406 9.00781 5.75 8.72031 5.75C8.43125 5.75 8.16094 5.8625 7.95625 6.06719L6.29375 7.72969C5.94688 8.07656 5.74844 8.55469 5.74844 9.04531C5.74844 9.14687 5.75625 9.24531 5.77344 9.34531C6.11406 11.4141 7.21563 13.4672 8.87188 15.125C10.5312 16.7812 12.5844 17.8812 14.6547 18.225C15.2422 18.3234 15.8469 18.1266 16.2703 17.7047ZM14.8406 17.1172C12.9984 16.8125 11.1609 15.8219 9.66875 14.3297C8.17656 12.8375 7.18594 11.0016 6.88125 9.15937C6.84219 8.92812 6.92031 8.69062 7.0875 8.52187L8.72031 6.88906L10.4531 8.62031L8.57813 10.4922L8.56406 10.5062L8.68906 10.8437C9.0653 11.8671 9.65956 12.7963 10.4307 13.5672C11.2017 14.338 12.1312 14.9319 13.1547 15.3078L13.4922 15.4328L15.3781 13.5453L17.1109 15.2766L15.4781 16.9094C15.3094 17.0781 15.0719 17.1562 14.8406 17.1172Z" fill="white"/>
<path d="M28.316 6.328L27.176 6.184C26.924 8.716 26.312 10.672 25.34 12.064L26.06 12.964C26.348 12.604 26.624 12.172 26.888 11.668C27.2 12.484 27.596 13.252 28.052 13.972C27.404 14.932 26.576 15.76 25.58 16.432L26.324 17.296C27.26 16.648 28.064 15.868 28.736 14.956C29.348 15.772 30.068 16.516 30.884 17.2L31.652 16.3C30.764 15.652 29.984 14.908 29.324 14.044C30.116 12.652 30.656 10.984 30.92 9.04V8.044H28.028C28.124 7.516 28.22 6.94 28.316 6.328ZM28.616 13.024C28.124 12.22 27.716 11.344 27.404 10.384C27.536 9.988 27.668 9.556 27.788 9.1H29.84C29.624 10.564 29.216 11.872 28.616 13.024ZM25.616 14.956C24.992 15.112 24.356 15.256 23.708 15.376V13.708H25.364V12.604H23.708V11.236H22.616V12.604H20.9V13.708H22.616V15.58C21.92 15.7 21.224 15.796 20.516 15.88L20.78 16.96C22.496 16.708 24.104 16.408 25.616 16.048V14.956ZM20.516 6.568V7.648H22.364C21.728 8.92 21.212 9.712 20.804 10.024C20.756 10.048 20.672 10.084 20.576 10.12L20.828 11.104C22.196 11.008 23.48 10.876 24.668 10.732C24.74 10.948 24.824 11.164 24.908 11.404L25.868 10.972C25.532 10.012 25.136 9.124 24.68 8.284L23.732 8.596C23.924 8.98 24.116 9.388 24.308 9.844C23.588 9.94 22.868 10.012 22.124 10.072C22.52 9.544 22.976 8.728 23.492 7.648H25.736V6.568H20.516ZM33.68 11.656V15.424H37.424V16.048C37.424 16.72 37.796 17.056 38.54 17.056H43.304V16.084H38.864C38.636 16.084 38.528 15.988 38.528 15.796V15.424H42.26V11.656H38.528V11.104H37.424V11.656H33.68ZM41.204 14.56H38.528V13.888H41.204V14.56ZM37.424 14.56H34.748V13.888H37.424V14.56ZM34.748 13.132V12.496H37.424V13.132H34.748ZM38.528 12.496H41.204V13.132H38.528V12.496ZM33.308 6.424V7.348H37.448V7.864H32.84V10.348H33.884V8.716H37.448V10.828H38.552V8.716H42.116V10.348H43.16V7.864H38.552V7.348H42.692V6.424H33.308ZM39.368 10.264L39.056 10.876C39.872 10.972 40.652 11.104 41.42 11.284L41.72 10.564C40.964 10.432 40.184 10.336 39.368 10.264ZM34.724 9.052L34.376 9.724C35.168 9.784 35.936 9.868 36.668 9.988L36.944 9.328C36.236 9.208 35.492 9.112 34.724 9.052ZM36.704 10.252C36.212 10.372 35.408 10.444 34.28 10.492L34.496 11.212C35.636 11.128 36.44 11.02 36.92 10.888L36.704 10.252ZM39.236 10.024C40.124 9.952 40.892 9.856 41.552 9.724L41.276 8.992C40.64 9.172 39.92 9.292 39.116 9.352L39.236 10.024Z" fill="white"/>
</svg>
