<svg width="23" height="22" viewBox="0 0 23 22" fill="none" xmlns="http://www.w3.org/2000/svg">
<path fill-rule="evenodd" clip-rule="evenodd" d="M8.99999 0.999917C9.00018 0.791366 8.93516 0.587975 8.81403 0.418207C8.6929 0.248439 8.52172 0.12079 8.32445 0.0531239C8.12718 -0.0145425 7.91369 -0.0188402 7.71386 0.0408324C7.51403 0.100505 7.33786 0.221162 7.20999 0.385917L0.209992 9.38592C0.0734375 9.56146 -0.000701904 9.77752 -0.000701904 9.99992C-0.000701904 10.2223 0.0734375 10.4384 0.209992 10.6139L7.20999 19.6139C7.33786 19.7787 7.51403 19.8993 7.71386 19.959C7.91369 20.0187 8.12718 20.0144 8.32445 19.9467C8.52172 19.879 8.6929 19.7514 8.81403 19.5816C8.93516 19.4119 9.00018 19.2085 8.99999 18.9999V15.0099C14.379 15.1219 16.963 16.1429 18.261 17.2529C19.495 18.3079 19.721 19.5489 19.956 20.8489L20.017 21.1839C20.0619 21.4236 20.1928 21.6387 20.3851 21.7886C20.5775 21.9385 20.818 22.013 21.0614 21.998C21.3048 21.983 21.5343 21.8796 21.7068 21.7072C21.8793 21.5348 21.9829 21.3053 21.998 21.0619C22.169 18.3139 21.912 14.3319 19.971 11.0009C18.087 7.76792 14.694 5.28192 8.99999 5.02192V0.999917Z" fill="#3D3D3D"/>
</svg>
