<svg width="24" height="28" viewBox="0 0 24 28" fill="none" xmlns="http://www.w3.org/2000/svg">
<path d="M5.60154 11.6818V14.7543C4.85893 15.1846 4.22516 15.7798 3.74917 16.4939C3.27318 17.2081 2.9677 18.0221 2.85634 18.8731C2.74497 19.7241 2.8307 20.5893 3.10689 21.402C3.38308 22.2146 3.84235 22.9528 4.44923 23.5597C5.05611 24.1666 5.79436 24.6258 6.60697 24.902C7.41957 25.1782 8.28479 25.264 9.13579 25.1526C9.98679 25.0412 10.8008 24.7357 11.515 24.2598C12.2292 23.7838 12.8244 23.15 13.2546 22.4074H16.3257C15.6629 24.2739 14.3622 25.8464 12.6531 26.8475C10.9439 27.8486 8.93613 28.2139 6.98392 27.879C5.0317 27.544 3.26049 26.5304 1.98273 25.017C0.704967 23.5035 0.00276645 21.5873 0 19.6066C-7.18777e-06 17.8687 0.538622 16.1735 1.54176 14.7543C2.54489 13.3351 3.96322 12.2617 5.60154 11.6818ZM11.2031 21.007C10.0889 21.007 9.02028 20.5644 8.23241 19.7765C7.44454 18.9886 7.00192 17.9201 7.00192 16.8058V11.2043C7.00192 9.7423 7.74973 8.45394 8.88264 7.70194C8.13044 7.20289 7.55898 6.47484 7.2529 5.62562C6.94683 4.77641 6.92243 3.85119 7.18331 2.98701C7.44419 2.12284 7.97648 1.36568 8.70133 0.827678C9.42618 0.289678 10.305 -0.000544009 11.2077 7.65545e-07C12.1104 0.00054554 12.9889 0.291828 13.7131 0.830702C14.4373 1.36958 14.9687 2.12738 15.2285 2.99187C15.4884 3.85636 15.4629 4.78155 15.1558 5.63039C14.8487 6.47924 14.2763 7.2066 13.5235 7.70474C14.1023 8.08671 14.5771 8.60644 14.9054 9.21726C15.2336 9.82808 15.405 10.5109 15.4042 11.2043V18.2048L17.4124 18.2062C17.8577 18.2063 18.2965 18.3126 18.6925 18.5162C19.0885 18.7198 19.4303 19.0149 19.6894 19.3769L19.814 19.566L23.6063 25.8887L21.206 27.3283L17.411 21.007L15.4042 21.0056L11.2031 21.007ZM11.2031 9.80391C10.8317 9.80391 10.4755 9.95145 10.2129 10.2141C9.95024 10.4767 9.8027 10.8329 9.8027 11.2043V16.8058C9.8027 17.1772 9.95024 17.5334 10.2129 17.7961C10.4755 18.0587 10.8317 18.2062 11.2031 18.2062H12.6021L12.6035 11.2043C12.6035 10.8329 12.4559 10.4767 12.1933 10.2141C11.9307 9.95145 11.5745 9.80391 11.2031 9.80391ZM11.2031 2.80199C10.8317 2.80199 10.4755 2.94953 10.2129 3.21215C9.95024 3.47477 9.8027 3.83097 9.8027 4.20237C9.8027 4.57378 9.95024 4.92997 10.2129 5.19259C10.4755 5.45522 10.8317 5.60276 11.2031 5.60276C11.5745 5.60276 11.9307 5.45522 12.1933 5.19259C12.4559 4.92997 12.6035 4.57378 12.6035 4.20237C12.6035 3.83097 12.4559 3.47477 12.1933 3.21215C11.9307 2.94953 11.5745 2.80199 11.2031 2.80199Z" fill="#F38C00"/>
</svg>
