<svg width="16" height="16" viewBox="0 0 16 16" fill="currentColor" fill-opacity="0.65" xmlns="http://www.w3.org/2000/svg">
<path d="M15.6822 7.53763C15.0545 6.21513 14.3075 5.13656 13.4412 4.30191L12.5326 5.21049C13.2735 5.91852 13.9189 6.84477 14.4769 7.99834C12.9912 11.0733 10.8822 12.5341 8.0001 12.5341C7.13498 12.5341 6.33814 12.4008 5.60957 12.1344L4.6251 13.1189C5.63701 13.5861 6.76201 13.8198 8.0001 13.8198C11.4322 13.8198 13.993 12.0323 15.6822 8.45727C15.7502 8.3135 15.7854 8.15646 15.7854 7.99745C15.7854 7.83844 15.7502 7.68141 15.6822 7.53763ZM14.5471 1.81191L13.7858 1.04977C13.7726 1.03649 13.7568 1.02595 13.7395 1.01876C13.7221 1.01157 13.7035 1.00787 13.6847 1.00787C13.666 1.00787 13.6474 1.01157 13.63 1.01876C13.6127 1.02595 13.5969 1.03649 13.5837 1.04977L11.6306 3.00191C10.5539 2.45191 9.34367 2.17691 8.0001 2.17691C4.56796 2.17691 2.00725 3.96442 0.31796 7.53942C0.250059 7.6832 0.214844 7.84023 0.214844 7.99924C0.214844 8.15824 0.250059 8.31528 0.31796 8.45906C0.992841 9.88049 1.80534 11.0198 2.75546 11.8771L0.865817 13.7662C0.839047 13.793 0.824009 13.8293 0.824009 13.8672C0.824009 13.9051 0.839047 13.9414 0.865817 13.9682L1.62814 14.7305C1.65493 14.7573 1.69125 14.7723 1.72912 14.7723C1.76699 14.7723 1.80331 14.7573 1.8301 14.7305L14.5471 2.01406C14.5604 2.00079 14.5709 1.98503 14.5781 1.96769C14.5853 1.95035 14.589 1.93176 14.589 1.91299C14.589 1.89421 14.5853 1.87562 14.5781 1.85828C14.5709 1.84094 14.5604 1.82518 14.5471 1.81191ZM1.52332 7.99834C3.01082 4.92334 5.11975 3.46263 8.0001 3.46263C8.97403 3.46263 9.85957 3.62977 10.663 3.96959L9.4076 5.22495C8.81308 4.90774 8.13235 4.79002 7.46583 4.88914C6.7993 4.98826 6.18229 5.29899 5.7058 5.77547C5.22932 6.25196 4.91859 6.86897 4.81947 7.5355C4.72035 8.20202 4.83807 8.88275 5.15528 9.47727L3.66564 10.9669C2.84117 10.2392 2.13046 9.25334 1.52332 7.99834ZM5.92867 7.99834C5.92899 7.68346 6.00357 7.37309 6.14637 7.09245C6.28917 6.8118 6.49616 6.5688 6.75052 6.38318C7.00487 6.19756 7.29943 6.07456 7.61026 6.02417C7.92108 5.97378 8.23942 5.99742 8.53939 6.09317L6.0235 8.60906C5.96044 8.41163 5.92845 8.2056 5.92867 7.99834Z"/>
<path d="M7.92898 10.0012C7.8672 10.0012 7.80631 9.99833 7.74595 9.9928L6.80273 10.936C7.37004 11.1533 7.98813 11.2015 8.58229 11.075C9.17645 10.9485 9.72123 10.6525 10.1508 10.223C10.5803 9.79344 10.8763 9.24865 11.0028 8.65449C11.1293 8.06033 11.0811 7.44224 10.8638 6.87494L9.92059 7.81815C9.92613 7.87851 9.92898 7.9394 9.92898 8.00119C9.92912 8.26387 9.87749 8.52401 9.77703 8.76672C9.67657 9.00944 9.52926 9.22997 9.34351 9.41572C9.15777 9.60146 8.93723 9.74878 8.69452 9.84924C8.4518 9.94969 8.19167 10.0013 7.92898 10.0012Z"/>
</svg>
