<svg width="20" height="20" viewBox="0 0 20 20" fill="none" xmlns="http://www.w3.org/2000/svg">
<path d="M11.7854 2.50254L11.7854 18.036C11.7854 18.1342 11.8658 18.2146 11.964 18.2146L13.3033 18.2146C13.4015 18.2146 13.4819 18.1342 13.4819 18.036L13.4819 4.5271L17.5667 7.74808C17.6828 7.8396 17.8569 7.75701 17.8569 7.60745L17.8569 5.98915C17.8569 5.87978 17.8078 5.7771 17.7207 5.7079L12.9417 1.94004C12.4729 1.57174 11.7854 1.90433 11.7854 2.50254ZM6.51758 1.9646L6.51758 15.4735L2.43276 12.2525C2.31669 12.161 2.14258 12.2436 2.14258 12.3932L2.14258 14.0115C2.14258 14.1208 2.19169 14.2235 2.27874 14.2927L7.05776 18.0606C7.52651 18.4289 8.21401 18.0963 8.21401 17.5003L8.21401 1.9646C8.21401 1.86638 8.13365 1.78603 8.03543 1.78603L6.69615 1.78603C6.59793 1.78603 6.51758 1.86638 6.51758 1.9646Z" fill="#1890FF"/>
</svg>
