<svg width="24" height="24" viewBox="0 0 24 24" fill="none" xmlns="http://www.w3.org/2000/svg">
<circle cx="12" cy="12" r="12" fill="#FA8C16"/>
<path d="M16.438 15.404C17.586 15.404 17.992 15.11 18.132 13.122C17.824 13.08 17.474 12.954 17.194 12.786C17.138 14.256 17.012 14.424 16.452 14.424H12.35C11.804 14.424 11.454 14.312 11.454 13.976C11.454 13.584 11.818 12.968 16.606 9.93C16.69 9.86 16.746 9.79 16.788 9.72L16.074 9.356L15.836 9.384H10.712V10.322H14.282C10.544 12.856 10.39 13.528 10.39 14.13C10.404 14.942 11.006 15.404 12.392 15.404H16.438ZM18.048 7.956V7.004H12.014C12.28 6.542 12.504 6.052 12.7 5.562L11.664 5.282C11.104 6.752 10.18 8.18 9.088 9.09C9.354 9.244 9.774 9.58 9.97 9.748C10.474 9.258 10.978 8.642 11.44 7.956H18.048ZM9.298 7.13C8.836 6.584 7.814 5.898 6.988 5.464L6.302 6.108C7.142 6.57 8.122 7.298 8.57 7.844L9.298 7.13ZM8.892 9.86C8.36 9.328 7.31 8.656 6.442 8.264L5.756 8.936C6.638 9.37 7.674 10.07 8.178 10.602L8.892 9.86ZM8.542 11.75H5.7V12.716H7.534V15.32C6.876 15.908 6.134 16.496 5.518 16.916L6.064 17.938C6.778 17.336 7.464 16.748 8.094 16.146C8.976 17.224 10.25 17.728 12.084 17.812C13.638 17.854 16.564 17.826 18.104 17.77C18.16 17.448 18.314 16.972 18.454 16.734C16.788 16.846 13.61 16.874 12.07 16.832C10.446 16.762 9.214 16.286 8.542 15.25V11.75Z" fill="white"/>
</svg>
