<svg width="24" height="30" viewBox="0 0 24 30" fill="none" xmlns="http://www.w3.org/2000/svg">
<circle cx="12" cy="15" r="12" fill="#FA8C16"/>
<path d="M16.62 12.79H12.672V17.34C12.672 18.516 13.05 18.824 14.352 18.824H16.802C17.992 18.824 18.286 18.306 18.426 16.332C18.132 16.248 17.712 16.094 17.488 15.926C17.432 17.592 17.32 17.872 16.732 17.872H14.45C13.778 17.872 13.68 17.802 13.68 17.34V13.714H16.62V14.064H17.628V8.954H12.532V9.878H16.62V12.79ZM9.606 16.472H11.874V15.548H9.606V13.476H12.014V12.552H9.396V10.774H11.65V9.864H9.396V8.31H8.402V9.864H6.092V10.774H8.402V12.552H5.728V13.476H8.654V18.782C8.066 18.306 7.632 17.606 7.324 16.584C7.366 15.968 7.394 15.324 7.408 14.652L6.428 14.582C6.386 17.06 6.232 19.286 5.434 20.686C5.658 20.798 6.12 21.05 6.288 21.19C6.694 20.406 6.96 19.44 7.128 18.334C8.15 20.252 9.802 20.714 12.77 20.714H18.104C18.174 20.406 18.37 19.93 18.524 19.678C17.684 19.72 13.428 19.72 12.756 19.706C11.454 19.706 10.418 19.608 9.606 19.3V16.472Z" fill="white"/>
</svg>
