<svg width="14" height="14" viewBox="0 0 14 14" fill="currentColor" xmlns="http://www.w3.org/2000/svg">
<path d="M13.48 12.765H1.52C1.23237 12.765 1 12.9974 1 13.285V13.87C1 13.9415 1.0585 14 1.13 14H13.87C13.9415 14 14 13.9415 14 13.87V13.285C14 12.9974 13.7676 12.765 13.48 12.765ZM3.36762 11.4C3.40013 11.4 3.43263 11.3967 3.46513 11.3919L6.19837 10.9125C6.23087 10.906 6.26175 10.8914 6.2845 10.867L13.1729 3.97862C13.1879 3.96359 13.1999 3.94573 13.208 3.92608C13.2162 3.90642 13.2204 3.88534 13.2204 3.86406C13.2204 3.84278 13.2162 3.82171 13.208 3.80205C13.1999 3.78239 13.1879 3.76453 13.1729 3.7495L10.4721 1.04713C10.4412 1.01625 10.4006 1 10.3567 1C10.3129 1 10.2723 1.01625 10.2414 1.04713L3.353 7.9355C3.32862 7.95987 3.314 7.98912 3.3075 8.02162L2.82812 10.7549C2.81232 10.8419 2.81797 10.9315 2.84458 11.0159C2.8712 11.1003 2.91798 11.1769 2.98087 11.2391C3.08812 11.3431 3.223 11.4 3.36762 11.4Z"/>
</svg>
