<svg width="7" height="7" viewBox="0 0 7 7" fill="currentColor" xmlns="http://www.w3.org/2000/svg">
<path d="M6.45724 5.40078L3.70255 1.60312C3.60255 1.46563 3.39786 1.46563 3.29864 1.60312L0.543174 5.40078C0.536393 5.41012 0.532331 5.42116 0.531437 5.43266C0.530544 5.44417 0.532855 5.4557 0.538114 5.46598C0.543372 5.47625 0.551373 5.48487 0.56123 5.49087C0.571086 5.49688 0.582413 5.50004 0.593955 5.5H1.17989C1.21974 5.5 1.25724 5.48047 1.28067 5.44844L3.50021 2.38906L5.71974 5.44844C5.74317 5.48047 5.78067 5.5 5.82052 5.5H6.40646C6.45724 5.5 6.48692 5.44219 6.45724 5.40078Z" />
</svg>
