<svg width="14" height="14" viewBox="0 0 14 14" fill="currentColor" xmlns="http://www.w3.org/2000/svg">
<path d="M6.32881 4.83534V7.29034C6.32881 7.52383 6.45557 7.74397 6.6557 7.86406L8.73711 9.09822C8.97727 9.23832 9.28414 9.15826 9.42424 8.92477C9.56433 8.68461 9.49095 8.37774 9.25079 8.23764L7.33616 7.09687V4.82867C7.32949 4.56183 7.10267 4.33501 6.82915 4.33501C6.55563 4.33501 6.32881 4.56183 6.32881 4.83534ZM13 5.33568V1.80663C13 1.50643 12.6397 1.35966 12.4329 1.57314L11.2455 2.76061C10.6206 2.13566 9.86552 1.65621 9.03414 1.35641C8.20276 1.05661 7.3155 0.943827 6.43555 1.02611C3.64033 1.27961 1.33878 3.52779 1.0319 6.32301C0.86969 7.89032 1.3301 9.45858 2.3138 10.6895C3.2975 11.9204 4.72565 12.7152 6.29015 12.9026C7.85465 13.0899 9.4301 12.6548 10.6766 11.691C11.9232 10.7271 12.7408 9.31194 12.9533 7.75065C13 7.35038 12.6864 7.00347 12.2862 7.00347C11.9526 7.00347 11.6724 7.25031 11.6324 7.5772C11.3455 9.90543 9.33751 11.7066 6.92922 11.6733C4.45422 11.6399 2.36614 9.55186 2.32611 7.07019C2.28609 4.46843 4.40085 2.33365 6.99593 2.33365C8.28347 2.33365 9.45092 2.86068 10.2982 3.70124L8.90389 5.09552C8.69041 5.309 8.83717 5.66924 9.13738 5.66924H12.6664C12.8532 5.66924 13 5.52247 13 5.33568Z" />
</svg>
