<svg width="40" height="40" viewBox="0 0 40 40" fill="none" xmlns="http://www.w3.org/2000/svg">
<path fill-rule="evenodd" clip-rule="evenodd" d="M20 40C31.0457 40 40 31.0457 40 20C40 8.95431 31.0457 0 20 0C8.95431 0 0 8.95431 0 20C0 31.0457 8.95431 40 20 40Z" fill="#3E79FF"/>
<path d="M28.625 27.5938H11.375C10.9602 27.5938 10.625 27.9289 10.625 28.3438V29.1875C10.625 29.2906 10.7094 29.375 10.8125 29.375H29.1875C29.2906 29.375 29.375 29.2906 29.375 29.1875V28.3438C29.375 27.9289 29.0398 27.5938 28.625 27.5938ZM14.0398 25.625C14.0867 25.625 14.1336 25.6203 14.1805 25.6133L18.1227 24.9219C18.1695 24.9125 18.2141 24.8914 18.2469 24.8563L28.182 14.9211C28.2038 14.8994 28.221 14.8737 28.2328 14.8453C28.2445 14.8169 28.2506 14.7866 28.2506 14.7559C28.2506 14.7252 28.2445 14.6948 28.2328 14.6664C28.221 14.6381 28.2038 14.6123 28.182 14.5906L24.2867 10.693C24.2422 10.6484 24.1836 10.625 24.1203 10.625C24.057 10.625 23.9984 10.6484 23.9539 10.693L14.0187 20.6281C13.9836 20.6633 13.9625 20.7055 13.9531 20.7523L13.2617 24.6945C13.2389 24.8201 13.2471 24.9493 13.2855 25.071C13.3238 25.1927 13.3913 25.3032 13.482 25.393C13.6367 25.543 13.8313 25.625 14.0398 25.625Z" fill="white"/>
</svg>
