<svg width="14" height="13" viewBox="0 0 14 13" fill="none" xmlns="http://www.w3.org/2000/svg">
<path d="M11.6667 11.3332H2.33333V11.9998C2.33333 12.1766 2.26309 12.3462 2.13807 12.4712C2.01304 12.5963 1.84347 12.6665 1.66666 12.6665H0.999995C0.823184 12.6665 0.653615 12.5963 0.52859 12.4712C0.403566 12.3462 0.333328 12.1766 0.333328 11.9998V5.33317L1.98666 1.4745C2.08954 1.2345 2.26063 1.03 2.4787 0.886358C2.69676 0.742719 2.95221 0.666272 3.21333 0.666504H10.7867C11.0476 0.666533 11.3027 0.743102 11.5205 0.886725C11.7383 1.03035 11.9092 1.23471 12.012 1.4745L13.6667 5.33317V11.9998C13.6667 12.1766 13.5964 12.3462 13.4714 12.4712C13.3464 12.5963 13.1768 12.6665 13 12.6665H12.3333C12.1565 12.6665 11.9869 12.5963 11.8619 12.4712C11.7369 12.3462 11.6667 12.1766 11.6667 11.9998V11.3332ZM12.3333 6.6665H1.66666V9.99984H12.3333V6.6665ZM1.784 5.33317H12.216L10.7873 1.99984H3.21333L1.78466 5.33317H1.784ZM3.33333 9.33317C3.06811 9.33317 2.81376 9.22781 2.62622 9.04028C2.43868 8.85274 2.33333 8.59839 2.33333 8.33317C2.33333 8.06796 2.43868 7.8136 2.62622 7.62606C2.81376 7.43853 3.06811 7.33317 3.33333 7.33317C3.59854 7.33317 3.8529 7.43853 4.04044 7.62606C4.22797 7.8136 4.33333 8.06796 4.33333 8.33317C4.33333 8.59839 4.22797 8.85274 4.04044 9.04028C3.8529 9.22781 3.59854 9.33317 3.33333 9.33317ZM10.6667 9.33317C10.4014 9.33317 10.1471 9.22781 9.95956 9.04028C9.77202 8.85274 9.66666 8.59839 9.66666 8.33317C9.66666 8.06796 9.77202 7.8136 9.95956 7.62606C10.1471 7.43853 10.4014 7.33317 10.6667 7.33317C10.9319 7.33317 11.1862 7.43853 11.3738 7.62606C11.5613 7.8136 11.6667 8.06796 11.6667 8.33317C11.6667 8.59839 11.5613 8.85274 11.3738 9.04028C11.1862 9.22781 10.9319 9.33317 10.6667 9.33317Z" fill="#FA8C16"/>
</svg>
