<svg width="16" height="16" viewBox="0 0 16 16" fill="currentColor" xmlns="http://www.w3.org/2000/svg">
<g clip-path="url(#clip0)">
<path d="M5.64314 11.4257H10.3574C10.436 11.4257 10.5003 11.3614 10.5003 11.2828V9.78281C10.5003 9.70424 10.436 9.63996 10.3574 9.63996H9.64314C9.56457 9.63996 9.50028 9.70424 9.50028 9.78281V10.4257H6.50028V9.78281C6.50028 9.70424 6.436 9.63996 6.35742 9.63996H5.64314C5.56457 9.63996 5.50028 9.70424 5.50028 9.78281V11.2828C5.50028 11.3614 5.56457 11.4257 5.64314 11.4257ZM11.7146 9.22924C11.7146 9.41868 11.7898 9.60036 11.9238 9.73432C12.0577 9.86827 12.2394 9.94353 12.4289 9.94353C12.6183 9.94353 12.8 9.86827 12.9339 9.73432C13.0679 9.60036 13.1431 9.41868 13.1431 9.22924C13.1431 9.0398 13.0679 8.85812 12.9339 8.72417C12.8 8.59021 12.6183 8.51496 12.4289 8.51496C12.2394 8.51496 12.0577 8.59021 11.9238 8.72417C11.7898 8.85812 11.7146 9.0398 11.7146 9.22924ZM15.9824 6.23638L15.5592 5.4971C15.5402 5.46451 15.509 5.44077 15.4726 5.43107C15.4361 5.42136 15.3973 5.42649 15.3646 5.44531L14.4592 5.97389L13.061 2.11317C12.9872 1.8828 12.8421 1.68186 12.6466 1.53934C12.4511 1.39683 12.2154 1.32013 11.9735 1.32031H4.236C3.61635 1.32031 3.06635 1.72031 2.87528 2.31138L1.54314 5.97567L0.635996 5.4471C0.603291 5.42827 0.564465 5.42315 0.527996 5.43285C0.491527 5.44256 0.460379 5.46629 0.441353 5.49888L0.0181393 6.23638C-0.0211464 6.30424 0.00206788 6.38996 0.069925 6.42924L1.1485 7.05781L0.889568 7.7721C0.868139 7.82924 0.857425 7.88996 0.857425 7.95067V14.1685C0.857425 14.4489 1.06814 14.6757 1.32707 14.6757H2.53421C2.75385 14.6757 2.94492 14.5096 2.99135 14.2775L3.12885 13.6042H12.8717L13.0092 14.2775C13.0574 14.5096 13.2467 14.6757 13.4664 14.6757H14.6735C14.9324 14.6757 15.1431 14.4489 15.1431 14.1685V7.95067C15.1431 7.88996 15.1324 7.82924 15.111 7.7721L14.8521 7.05781L15.9289 6.42924C15.9613 6.41052 15.985 6.37983 15.9951 6.34376C16.0051 6.3077 16.0005 6.26914 15.9824 6.23638ZM13.8574 8.08639V12.3185H2.14314V8.08639L2.42171 7.31853H13.5789L13.8574 8.08639ZM4.08421 2.74888L4.09314 2.72567L4.10028 2.70246C4.11992 2.64353 4.1735 2.60424 4.236 2.60424H11.8717L13.2181 6.31853H2.786L4.08421 2.74888ZM2.85742 9.22924C2.85742 9.41868 2.93268 9.60036 3.06663 9.73432C3.20059 9.86827 3.38227 9.94353 3.57171 9.94353C3.76115 9.94353 3.94283 9.86827 4.07679 9.73432C4.21074 9.60036 4.286 9.41868 4.286 9.22924C4.286 9.0398 4.21074 8.85812 4.07679 8.72417C3.94283 8.59021 3.76115 8.51496 3.57171 8.51496C3.38227 8.51496 3.20059 8.59021 3.06663 8.72417C2.93268 8.85812 2.85742 9.0398 2.85742 9.22924Z" />
</g>
<defs>
<clipPath id="clip0">
<rect width="16" height="16" fill="white"/>
</clipPath>
</defs>
</svg>
