<svg width="18" height="14" viewBox="0 0 18 14" fill="none" xmlns="http://www.w3.org/2000/svg">
<path fill-rule="evenodd" clip-rule="evenodd" d="M14.63 0.46187C14.9274 0.167072 15.3289 0.00116139 15.7476 6.07419e-06C16.1664 -0.00114924 16.5687 0.162544 16.8677 0.455696C17.1668 0.748848 17.3384 1.1479 17.3455 1.56659C17.3527 1.98528 17.1947 2.38995 16.9059 2.69312L8.42288 13.2969C8.27709 13.4539 8.10112 13.5799 7.90551 13.6674C7.7099 13.7549 7.49866 13.802 7.28441 13.806C7.07017 13.8099 6.85733 13.7707 6.65861 13.6905C6.4599 13.6103 6.27939 13.4909 6.12788 13.3394L0.507255 7.71662C0.350671 7.57071 0.225079 7.39476 0.137971 7.19926C0.050863 7.00377 0.0040237 6.79273 0.00024803 6.57873C-0.00352764 6.36474 0.0358377 6.15218 0.115995 5.95373C0.196152 5.75528 0.315459 5.575 0.466799 5.42366C0.618139 5.27232 0.798411 5.15302 0.996861 5.07286C1.19531 4.9927 1.40787 4.95334 1.62187 4.95711C1.83586 4.96089 2.0469 5.00773 2.2424 5.09484C2.4379 5.18194 2.61385 5.30754 2.75976 5.46412L7.20951 9.91175L14.5896 0.508621C14.6028 0.492159 14.617 0.476544 14.6321 0.46187H14.63Z" fill="#1890FF"/>
</svg>
