<svg width="26" height="28" viewBox="0 0 26 28" fill="none" xmlns="http://www.w3.org/2000/svg">
<path d="M16.7333 14.0199C16.7333 17.8233 16.7333 21.6266 16.7333 25.4266C16.7342 25.7169 16.6707 26.0039 16.5473 26.2667C16.424 26.5295 16.2439 26.7618 16.02 26.9466C15.6408 27.2015 15.1897 27.3277 14.7333 27.3066C12.4 27.3399 10.03 27.3066 7.67997 27.3066C6.10663 27.3066 4.52997 27.3066 2.9533 27.3066C2.65952 27.3151 2.36739 27.2599 2.09696 27.1448C1.82653 27.0298 1.58421 26.8575 1.38663 26.6399C1.2078 26.3603 1.0771 26.0527 0.999966 25.7299C0.994966 25.7024 0.994966 25.6742 0.999966 25.6466C0.999966 17.8822 0.999966 10.111 0.999966 2.33327C1.01348 2.07402 1.0827 1.82073 1.20292 1.59064C1.32314 1.36056 1.49153 1.15908 1.69663 0.999938C2.03176 0.768301 2.43286 0.651362 2.83997 0.666605C6.86663 0.666605 10.8866 0.666605 14.91 0.666605C15.1861 0.663719 15.4591 0.726243 15.7065 0.849066C15.9538 0.971888 16.1686 1.15152 16.3333 1.37327C16.5883 1.70501 16.7329 2.10839 16.7466 2.52661C16.72 6.35661 16.7333 10.1899 16.7333 14.0199ZM2.16997 22.4666H15.5033V4.87661H2.6933C2.16997 4.87661 2.16997 4.87661 2.16997 5.41327C2.16997 10.9399 2.16997 16.4666 2.16997 21.9933V22.4666ZM8.83663 25.5266C9.45997 25.5266 10.0833 25.5266 10.7066 25.5266C10.7851 25.5271 10.8628 25.5118 10.9353 25.4817C11.0077 25.4516 11.0734 25.4072 11.1284 25.3513C11.1834 25.2953 11.2267 25.2289 11.2556 25.156C11.2845 25.083 11.2984 25.005 11.2966 24.9266C11.3006 24.77 11.2444 24.6178 11.1396 24.5012C11.0349 24.3847 10.8895 24.3127 10.7333 24.2999C9.48663 24.2999 8.23997 24.2999 6.99663 24.2999C6.85179 24.305 6.7143 24.365 6.61213 24.4678C6.50996 24.5706 6.45078 24.7084 6.44663 24.8533C6.43428 24.9383 6.44084 25.025 6.46587 25.1071C6.49089 25.1893 6.53375 25.2649 6.59139 25.3286C6.64902 25.3923 6.72001 25.4425 6.79929 25.4755C6.87856 25.5086 6.96416 25.5238 7.04997 25.5199C7.63997 25.5333 8.2333 25.5266 8.82997 25.5266H8.83663Z" fill="#3D3D3D"/>
<path d="M25.21 13.7033C25.2216 13.9343 25.2216 14.1657 25.21 14.3966C25.1496 15.1428 24.9766 15.8756 24.6966 16.57C24.6633 16.6433 24.6733 16.7333 24.6433 16.8066C24.47 17.23 24.31 17.6533 24.1166 18.07C23.9933 18.3533 23.8533 18.63 23.7066 18.9033C23.6156 19.0794 23.512 19.2488 23.3966 19.41C23.0966 19.8066 22.79 20.2 22.47 20.5833C22.4345 20.6038 22.3943 20.6146 22.3533 20.6146C22.3124 20.6146 22.2721 20.6038 22.2366 20.5833C22.0438 20.421 21.8674 20.2401 21.71 20.0433C21.679 19.9979 21.6598 19.9455 21.6539 19.8908C21.6481 19.8362 21.6559 19.7809 21.6766 19.73C21.98 19.3066 22.3433 18.91 22.6233 18.4766C22.8165 18.1615 22.9891 17.8341 23.14 17.4966C23.3233 17.1266 23.5 16.7533 23.68 16.38C23.7001 16.3449 23.7136 16.3065 23.72 16.2666C23.7866 15.4866 24.1533 14.7533 24.0533 13.9333C24 13.5166 24.0533 13.09 24.0266 12.6733C23.9895 12.0053 23.8099 11.3529 23.5 10.76C23.4741 10.7126 23.4582 10.6604 23.4533 10.6066C23.3119 9.95521 23.0145 9.34783 22.5866 8.83663C22.21 8.32663 21.79 7.83663 21.4133 7.33663C21.3939 7.28149 21.3869 7.22277 21.3926 7.1646C21.3984 7.10644 21.4168 7.05024 21.4466 6.99997C21.6166 6.7933 21.8166 6.5333 22.0466 6.48663C22.1733 6.45997 22.38 6.81997 22.55 6.99997C23.0538 7.47901 23.469 8.04322 23.7766 8.66663C24.069 9.14507 24.3371 9.63791 24.58 10.1433C24.7236 10.579 24.835 11.0246 24.9133 11.4766C25.0207 11.8293 25.1086 12.1876 25.1766 12.55C25.2 12.9285 25.2 13.3081 25.1766 13.6866L25.21 13.7033Z" fill="#3D3D3D"/>
<path d="M21.6666 13.7066C21.55 14.1433 21.43 14.5866 21.3333 15.04C21.3033 15.1566 21.3333 15.29 21.2933 15.4033C21.24 15.5833 21.1566 15.7366 21.0866 15.9266C21.06 15.9866 21.03 16.0466 21.0033 16.11C20.8967 16.4106 20.772 16.7044 20.63 16.99C20.4866 17.2433 20.2033 17.43 20.1133 17.6933C20.1023 17.7455 20.0796 17.7946 20.0469 17.8368C20.0143 17.879 19.9725 17.9132 19.9247 17.9369C19.8769 17.9607 19.8244 17.9733 19.771 17.9738C19.7176 17.9743 19.6649 17.9628 19.6166 17.94C19.4116 17.8171 19.2533 17.6294 19.1666 17.4066C19 17 19.4066 16.7666 19.5633 16.4666C19.72 16.1666 20.02 15.98 20.0433 15.72C20.1066 15.0866 20.5566 14.54 20.4166 13.8666C20.36 13.59 20.4166 13.2933 20.39 13.0133C20.3395 12.7915 20.2681 12.5749 20.1766 12.3666C20.1505 12.3197 20.1315 12.2691 20.12 12.2166C20.0546 11.577 19.7469 10.9866 19.26 10.5666C19.0896 10.3863 18.952 10.1776 18.8533 9.94997C18.6766 9.55664 19.0466 9.36997 19.2466 9.17997C19.38 9.05331 19.58 9.17997 19.8 9.34997C20.3333 9.73997 20.51 10.35 20.8933 10.83C21.15 11.1466 21.1866 11.65 21.2966 12.0766C21.4333 12.6 21.5466 13.13 21.6666 13.7066Z" fill="#3D3D3D"/>
<path d="M2.16998 22.4665V21.9998C2.16998 16.4732 2.16998 10.9465 2.16998 5.41985C2.16998 4.88318 2.16998 4.88318 2.69332 4.88318H15.5133V22.4665H2.16998Z" fill="white"/>
<path d="M8.83003 25.5267C8.23336 25.5267 7.64003 25.5267 7.04336 25.5267C6.95755 25.5305 6.87195 25.5153 6.79268 25.4823C6.71341 25.4492 6.64242 25.399 6.58478 25.3353C6.52715 25.2717 6.48428 25.196 6.45926 25.1139C6.43424 25.0317 6.42767 24.945 6.44003 24.86C6.44345 24.7129 6.50365 24.5728 6.60803 24.469C6.71241 24.3652 6.85287 24.3059 7.00003 24.3033C8.24336 24.28 9.49003 24.3033 10.7367 24.3033C10.8929 24.3161 11.0383 24.3881 11.143 24.5046C11.2478 24.6211 11.304 24.7734 11.3 24.93C11.3018 25.0084 11.2878 25.0864 11.259 25.1594C11.2301 25.2323 11.1868 25.2987 11.1318 25.3547C11.0768 25.4106 11.0111 25.455 10.9387 25.4851C10.8662 25.5152 10.7885 25.5305 10.71 25.53C10.0767 25.5333 9.45336 25.5267 8.83003 25.5267Z" fill="white"/>
</svg>
