<svg width="16" height="16" viewBox="0 0 16 16" fill="currentColor" xmlns="http://www.w3.org/2000/svg">
<path d="M13.2601 12.9266C12.6623 11.511 11.5357 10.3845 10.1201 9.78665C10.7852 9.30488 11.2806 8.62481 11.5352 7.84402C11.7898 7.06323 11.7906 6.22185 11.5374 5.4406C11.2842 4.65935 10.79 3.97839 10.1257 3.49543C9.46149 3.01246 8.66134 2.75232 7.84008 2.75232C7.01882 2.75232 6.21866 3.01246 5.55442 3.49543C4.89018 3.97839 4.396 4.65935 4.14277 5.4406C3.88955 6.22185 3.89031 7.06323 4.14493 7.84402C4.39956 8.62481 4.89497 9.30488 5.56008 9.78665C4.5079 10.2321 3.60733 10.9729 2.96726 11.9194C2.3272 12.8659 1.97505 13.9776 1.95341 15.12C1.95043 15.1376 1.95043 15.1557 1.95341 15.1733C1.9515 15.1866 1.9515 15.2001 1.95341 15.2133C1.95341 15.2133 1.95341 15.2133 1.99341 15.2133H2.04008H2.98008C3.01367 15.2133 3.04589 15.2 3.06964 15.1762C3.0934 15.1525 3.10674 15.1202 3.10674 15.0866C3.131 14.1651 3.42499 13.2708 3.95233 12.5146C4.47966 11.7584 5.21718 11.1735 6.07359 10.8322C6.92999 10.4909 7.86768 10.4083 8.77058 10.5945C9.67348 10.7807 10.5019 11.2277 11.1534 11.88C12.0085 12.7312 12.5007 13.8804 12.5267 15.0866C12.5284 15.1197 12.5422 15.151 12.5656 15.1744C12.589 15.1978 12.6203 15.2117 12.6534 15.2133H13.6001H13.6467H13.6867C13.6887 15.2001 13.6887 15.1866 13.6867 15.1733C13.6934 15.1562 13.6934 15.1371 13.6867 15.12C13.6889 14.368 13.5439 13.6229 13.2601 12.9266ZM7.82008 9.33331C7.19358 9.33512 6.58585 9.11954 6.10054 8.72334C5.61523 8.32713 5.28239 7.77484 5.15879 7.16065C5.03519 6.54646 5.12848 5.90842 5.42275 5.35533C5.71702 4.80224 6.19405 4.36836 6.77248 4.12768C7.3509 3.88701 7.99491 3.85444 8.59467 4.03554C9.19442 4.21664 9.71278 4.60019 10.0613 5.12078C10.4099 5.64137 10.5671 6.26675 10.5061 6.89027C10.445 7.5138 10.1696 8.09684 9.72674 8.53998C9.47764 8.79234 9.18071 8.99249 8.85332 9.12871C8.52594 9.26493 8.17467 9.33449 7.82008 9.33331Z" />
<path d="M2.9401 5.10001L2.27344 4.82668C2.27344 4.78668 3.8201 1.06668 7.83344 1.06668C11.8468 1.06668 13.3334 4.78668 13.3734 4.82668L12.7068 5.09335C12.3002 4.13312 11.6242 3.31116 10.7606 2.72675C9.89702 2.14233 8.88267 1.82046 7.8401 1.80001C6.79167 1.81713 5.77071 2.13801 4.90098 2.72374C4.03126 3.30948 3.35011 4.13492 2.9401 5.10001Z"/>
<path d="M3.24664 7.33332H2.87998C2.48569 7.33332 2.10755 7.17669 1.82875 6.89788C1.54994 6.61908 1.39331 6.24094 1.39331 5.84665C1.39331 5.45236 1.54994 5.07422 1.82875 4.79542C2.10755 4.51662 2.48569 4.35999 2.87998 4.35999H3.24664V7.33332ZM2.51331 5.22665C2.401 5.2969 2.3092 5.39552 2.24717 5.51256C2.18513 5.62961 2.15506 5.76094 2.15998 5.89332C2.15639 6.02548 2.18705 6.15631 2.24896 6.27313C2.31087 6.38994 2.40193 6.48876 2.51331 6.55999V5.22665Z"/>
<path d="M12.74 7.33334H12.3733V4.38H12.74C13.1342 4.38 13.5124 4.53664 13.7912 4.81544C14.07 5.09424 14.2266 5.47238 14.2266 5.86667C14.2266 6.26096 14.07 6.6391 13.7912 6.9179C13.5124 7.19671 13.1342 7.35334 12.74 7.35334V7.33334ZM13.1066 5.20667V6.51334C13.2189 6.44309 13.3107 6.34447 13.3728 6.22743C13.4348 6.11038 13.4649 5.97905 13.46 5.84667C13.4581 5.72192 13.4247 5.59966 13.363 5.49127C13.3012 5.38287 13.213 5.29185 13.1066 5.22667V5.20667Z" />
</svg>
