<svg width="28" height="26" viewBox="0 0 28 26" fill="none" xmlns="http://www.w3.org/2000/svg">
<path d="M18.47 3.10664H10.9467C10.7511 3.08001 10.5523 3.08905 10.36 3.13331C10.1167 3.22998 9.73334 3.39331 9.72001 3.55998C9.67667 3.98664 9.42334 4.45331 9.89334 4.87664C10.1918 5.16551 10.5851 5.33609 11 5.35664C16 5.38998 21 5.38331 26.0167 5.35664C26.3637 5.30777 26.701 5.20545 27.0167 5.05331C27.05 5.05331 27.0533 4.95664 27.08 4.90664C27.1114 4.85351 27.1459 4.80231 27.1833 4.75331C27.2567 4.64331 27.3833 4.53664 27.39 4.41998C27.4177 4.27766 27.4097 4.13069 27.3666 3.99223C27.3236 3.85378 27.2469 3.72817 27.1433 3.62664C27.0164 3.4624 26.8538 3.32908 26.6679 3.23671C26.482 3.14433 26.2776 3.0953 26.07 3.09331C23.5333 3.11331 21 3.10664 18.47 3.10664ZM27 21.2933L27.0167 21.2166C26.8367 21.1866 26.5767 21.2166 26.49 21.1133C26.2667 20.8366 25.9933 20.9166 25.7333 20.9166C21.51 20.9166 17.2867 20.8966 13.0667 20.9166C12.16 20.9166 11.23 20.72 10.33 21.13C9.93668 21.3133 9.66334 21.5033 9.66334 21.95C9.66334 22.2266 9.66334 22.5 9.66334 22.7633C9.80334 22.8033 9.92334 22.8066 9.95001 22.8533C10.1867 23.3233 10.6167 23.1866 10.9833 23.1866C14.0133 23.1866 17.0467 23.1866 20.0767 23.1866C22.1233 23.1866 24.1733 23.1866 26.22 23.1866C26.43 23.1866 26.6933 23.2966 26.8133 22.95C26.87 22.79 27.0833 22.6733 27.2433 22.5666C27.4033 22.46 27.5 21.71 27.3 21.5666C27.1948 21.4814 27.0946 21.3902 27 21.2933ZM26.9033 12.16H10.0167L10.06 12.2333L9.66667 12.6166V13.7766L9.74667 13.73L10.08 14.12H26.92C27.5767 13.4633 27.5933 12.8366 26.9 12.16H26.9033ZM1.00001 20.6L0.950008 20.5666C0.906675 20.7633 0.930008 21.0633 0.813341 21.1366C0.732423 21.1901 0.668432 21.2656 0.628875 21.3541C0.589318 21.4427 0.575835 21.5407 0.590008 21.6366C0.590008 21.9466 0.590008 22.26 0.590008 22.5733C0.590008 22.66 0.590008 22.8033 0.656675 22.8266C0.943341 22.9466 0.870008 23.1933 0.910008 23.41C0.930277 23.5543 0.977787 23.6934 1.05001 23.82C1.13109 23.9278 1.22513 24.0252 1.33001 24.11C1.37334 24.2 1.51667 24.21 1.55001 24.2766C1.63026 24.4436 1.74719 24.5903 1.89207 24.7057C2.03694 24.8211 2.20602 24.9024 2.38667 24.9433C2.51334 24.9766 2.61001 25.1933 2.72001 25.1966C3.51334 25.22 4.30667 25.1966 5.10334 25.1966C5.15334 25.1966 5.24334 25.1633 5.24667 25.1366C5.28334 24.87 5.52667 24.95 5.67001 24.86C5.86976 24.7362 6.06026 24.598 6.24001 24.4466C6.33384 24.3507 6.41658 24.2444 6.48667 24.13C6.58001 24.0666 6.61001 23.8866 6.66667 23.88C7.00001 23.83 6.88667 23.5766 6.92334 23.3933C6.96001 23.21 6.94001 22.98 7.01667 22.95C7.31001 22.8333 7.25001 22.6166 7.25334 22.4033C7.25334 22.09 7.25334 21.78 7.25334 21.4666C7.25334 21.3933 7.22334 21.26 7.19001 21.2533C6.87667 21.2066 6.96667 20.96 6.93334 20.7733C6.93334 20.6966 6.93334 20.5633 6.88667 20.5566C6.52667 20.4666 6.65334 20.1233 6.55334 19.9566C6.44112 19.9063 6.33672 19.84 6.24334 19.76C6.06655 19.4731 5.786 19.2654 5.46001 19.18C5.39334 19.18 5.28667 19.18 5.26667 19.1333C5.12001 18.8 4.83001 18.8766 4.57667 18.8733C4.10434 18.8299 3.62901 18.8299 3.15667 18.8733C2.76426 18.9691 2.3832 19.1065 2.02001 19.2833C1.99667 19.2833 1.99001 19.3433 1.96667 19.3666C1.81001 19.53 1.68334 19.7633 1.49334 19.83C1.30334 19.8966 1.28334 20.0133 1.23667 20.1633C1.17692 20.3184 1.09737 20.4652 1.00001 20.6ZM2.78334 15.36L3.33334 15.15C3.41667 15.12 3.55667 15.1133 3.57334 15.0633C3.66667 14.78 4.02334 14.6666 4.00001 14.29C4.01376 14.1944 4.05155 14.1039 4.10986 14.0269C4.16816 13.95 4.24506 13.8891 4.33334 13.85C4.75001 13.7266 4.56001 13.1833 4.94334 13.05C5.05667 13.0133 5.11334 12.82 5.19667 12.6966C5.28001 12.5733 5.29001 12.2533 5.38001 12.2233C5.61001 12.15 5.60334 11.9733 5.68334 11.8266C5.76334 11.68 5.88667 11.65 5.94334 11.54C6.03019 11.3528 6.10479 11.1602 6.16667 10.9633L5.90334 10.18C5.81334 10.1233 5.68667 10.0866 5.62667 9.99998C5.48847 9.86519 5.30306 9.78975 5.11001 9.78975C4.91696 9.78975 4.73155 9.86519 4.59334 9.99998C4.45336 10.161 4.29943 10.3094 4.13334 10.4433C3.97334 10.6 3.76001 10.7333 3.67334 10.9233C3.58667 11.1133 3.63667 11.3966 3.34001 11.5233C3.27001 11.55 3.22001 11.8133 3.02334 11.8566C2.99667 11.8566 2.99334 11.9566 2.98001 12.0133C2.95667 12.1466 2.93334 12.28 2.90001 12.4766C2.70001 12.43 2.40001 12.43 2.36667 12.3366C2.28667 12.0966 2.13667 12.12 1.96667 12.1166H1.07667C0.410008 12.8066 0.446675 13.45 1.05667 14.1C1.05667 14.1 1.22667 14.1 1.23001 14.1466C1.26001 14.36 1.42001 14.3966 1.56334 14.5C1.73433 14.6628 1.88135 14.8491 2.00001 15.0533C2.03001 15.0933 2.09667 15.1 2.14667 15.12L2.78334 15.36ZM3.37001 2.50331L2.84667 3.41998C2.61001 3.36664 2.32334 3.56998 2.18001 3.17998C2.11667 3.00664 1.36001 3.11664 1.23001 3.27664C1.10001 3.43664 0.973341 3.63664 0.796675 3.70331C0.620008 3.76998 0.576675 3.90998 0.586675 4.07331C0.606675 4.34664 0.536675 4.59998 0.866675 4.83664C1.08001 4.98998 1.26667 5.25664 1.50334 5.44664C1.65336 5.58341 1.7937 5.73043 1.92334 5.88664C2.09001 6.05998 2.23001 6.29331 2.43334 6.38998C2.6497 6.46215 2.88365 6.46215 3.10001 6.38998C3.29902 6.30468 3.47329 6.17054 3.60667 5.99998C3.76334 5.82331 3.83667 5.52331 4.02001 5.43331C4.38334 5.25331 4.18667 4.74331 4.59001 4.61331C4.70001 4.57664 4.77001 4.41331 4.86001 4.30664C4.9593 3.98055 5.12883 3.68018 5.35667 3.42664C5.4896 3.31411 5.58785 3.16615 5.64001 2.99998C5.67667 2.91331 5.77001 2.85331 5.83334 2.77664C5.87807 2.73057 5.9152 2.67769 5.94334 2.61998C6.02334 2.38664 6.09001 2.14664 6.15667 1.95331L5.88667 1.26664C5.62334 1.10331 5.42667 0.976643 5.22001 0.86331C5.14938 0.835114 5.07063 0.835114 5.00001 0.86331C4.77667 0.97331 4.56334 1.10331 4.27667 1.25998C4.27667 1.25998 4.26001 1.40998 4.19334 1.43998C3.83334 1.59664 3.94334 2.07664 3.61667 2.25664C3.51667 2.26998 3.45667 2.40664 3.38334 2.50331H3.37001Z" fill="white"/>
<path d="M18.47 3.1067C21.0033 3.1067 23.5333 3.1067 26.0667 3.1067C26.2743 3.1087 26.4787 3.15773 26.6646 3.2501C26.8505 3.34248 27.013 3.4758 27.14 3.64004C27.2435 3.74156 27.3202 3.86718 27.3633 4.00563C27.4063 4.14408 27.4144 4.29105 27.3867 4.43337C27.3867 4.5467 27.2533 4.65337 27.18 4.7667C27.1425 4.8157 27.108 4.86691 27.0767 4.92004C27.05 4.97004 27.0467 5.0567 27.0133 5.0667C26.6977 5.21884 26.3603 5.32117 26.0133 5.37004C21.0133 5.39004 16.0133 5.3967 10.9967 5.37004C10.5841 5.34789 10.1935 5.17743 9.89668 4.89004C9.42668 4.4667 9.68001 4.00004 9.72335 3.57337C9.72335 3.4067 10.12 3.24004 10.3633 3.1467C10.5557 3.10244 10.7545 3.09341 10.95 3.12004L18.47 3.1067Z" fill="#3D3D3D"/>
<path d="M26.9999 21.2934C27.0895 21.3852 27.1841 21.472 27.2833 21.5534C27.4833 21.7 27.4366 22.4167 27.2266 22.5534C27.0166 22.69 26.8533 22.7767 26.7966 22.9367C26.6766 23.27 26.4133 23.1734 26.2033 23.1734C24.1566 23.1734 22.1066 23.1734 20.0599 23.1734C17.0299 23.1734 13.9966 23.1734 10.9666 23.1734C10.6033 23.1734 10.1699 23.3267 9.93327 22.84C9.90661 22.7934 9.78661 22.79 9.64661 22.75C9.64661 22.4867 9.64661 22.2134 9.64661 21.9367C9.64661 21.49 9.93327 21.3 10.3133 21.1167C11.2133 20.7067 12.1433 20.91 13.0499 20.9034C17.2733 20.8767 21.4966 20.9034 25.7166 20.9034C25.9766 20.9034 26.2499 20.8234 26.4733 21.1C26.5599 21.2067 26.8066 21.1734 26.9999 21.2034V21.2934Z" fill="#3D3D3D"/>
<path d="M26.9 12.16C27.5933 12.8267 27.5666 13.4634 26.92 14.12H10.09L9.75664 13.73L9.67664 13.7767V12.6167L10.0666 12.2334L10.0233 12.16H26.9Z" fill="#3D3D3D"/>
<path d="M0.999991 20.6001C1.0987 20.4699 1.18046 20.3276 1.24332 20.1768C1.28999 20.0234 1.29332 19.9168 1.49999 19.8434C1.70666 19.7701 1.83332 19.5434 1.97332 19.3801C1.99666 19.3568 2.00332 19.3034 2.02666 19.2968C2.38985 19.12 2.77091 18.9825 3.16332 18.8868C3.63566 18.8434 4.11098 18.8434 4.58332 18.8868C4.83666 18.8868 5.12666 18.8268 5.27332 19.1468C5.29332 19.1834 5.39999 19.1835 5.46666 19.1935C5.79265 19.2788 6.0732 19.4866 6.24999 19.7735C6.34337 19.8535 6.44777 19.9198 6.55999 19.9701C6.64999 20.1368 6.52332 20.4801 6.89332 20.5701C6.92332 20.5701 6.92666 20.7101 6.93999 20.7868C6.97332 20.9735 6.88332 21.2201 7.19666 21.2668C7.22999 21.2668 7.25999 21.4068 7.25999 21.4801C7.25999 21.7935 7.27999 22.1035 7.25999 22.4168C7.25999 22.6235 7.31666 22.8468 7.02332 22.9635C6.94666 22.9935 6.96332 23.2535 6.92999 23.4068C6.89666 23.5601 6.99666 23.8435 6.67332 23.8935C6.61666 23.8935 6.58666 24.0801 6.49332 24.1435C6.42323 24.2579 6.34049 24.3641 6.24666 24.4601C6.06691 24.6115 5.87641 24.7496 5.67666 24.8735C5.53332 24.9635 5.28999 24.8735 5.25332 25.1501C5.25332 25.1768 5.15999 25.2101 5.10999 25.2101C4.31332 25.2101 3.51999 25.2101 2.72666 25.2101C2.60999 25.2101 2.51332 24.9901 2.39332 24.9568C2.21267 24.9158 2.04359 24.8346 1.89872 24.7192C1.75384 24.6037 1.63691 24.4571 1.55666 24.2901C1.52332 24.2235 1.37999 24.2135 1.33666 24.1235C1.23178 24.0386 1.13774 23.9412 1.05666 23.8335C0.984436 23.7069 0.936927 23.5678 0.916657 23.4235C0.876657 23.2068 0.949991 22.9601 0.663324 22.8401C0.613324 22.8168 0.599991 22.6735 0.596657 22.5868C0.596657 22.2735 0.576657 21.9601 0.596657 21.6501C0.582484 21.5542 0.595967 21.4562 0.635524 21.3676C0.675081 21.279 0.739072 21.2036 0.819991 21.1501C0.936657 21.0768 0.913324 20.7768 0.956657 20.5801L0.999991 20.6001ZM4.94999 22.7335C4.94999 22.4768 4.94999 22.1668 4.94999 21.8568C4.94999 21.4735 4.90666 21.1435 4.40666 21.1368C4.35332 21.1368 4.30332 21.0035 4.24332 20.9968C4.03906 20.9501 3.82893 20.9343 3.61999 20.9501C3.47666 20.9735 3.36332 21.1468 3.21666 21.1835C3.17094 21.1867 3.12638 21.1992 3.08575 21.2204C3.04513 21.2416 3.0093 21.271 2.98053 21.3066C2.95175 21.3423 2.93063 21.3835 2.91849 21.4277C2.90636 21.4719 2.90346 21.5181 2.90999 21.5635C2.90999 21.9768 2.90999 22.3901 2.90999 22.7401C3.60332 23.4068 4.25666 23.3901 4.96332 22.7335H4.94999Z" fill="#3D3D3D"/>
<path d="M2.79663 15.3601L2.12997 15.1201C2.07997 15.1001 2.0133 15.0935 1.9833 15.0535C1.86901 14.8588 1.72884 14.6805 1.56663 14.5235C1.41997 14.4201 1.25997 14.3835 1.2333 14.1701C1.2333 14.1368 1.06997 14.1268 1.05997 14.1235C0.449965 13.4568 0.393299 12.8301 1.07997 12.1401H1.93997C2.10997 12.1401 2.2733 12.1201 2.33997 12.3601C2.3733 12.4535 2.6733 12.4535 2.8733 12.5001C2.90663 12.3035 2.92997 12.1668 2.9533 12.0368C2.9533 11.9801 2.96997 11.8868 2.99663 11.8801C3.1933 11.8235 3.2433 11.5468 3.3133 11.5468C3.6233 11.4201 3.5633 11.1601 3.64663 10.9468C3.72996 10.7335 3.94663 10.6135 4.10663 10.4668C4.27837 10.3261 4.43682 10.1699 4.57997 10.0001C4.71817 9.86536 4.90358 9.78992 5.09663 9.78992C5.28968 9.78992 5.47509 9.86536 5.6133 10.0001C5.6733 10.0868 5.79996 10.1235 5.88997 10.1801L6.1533 10.9635C6.09141 11.1603 6.01681 11.353 5.92997 11.5401C5.8733 11.6501 5.72997 11.7168 5.66997 11.8268C5.60997 11.9368 5.59663 12.1601 5.36663 12.2235C5.27663 12.2535 5.2733 12.5568 5.1833 12.6968C5.0933 12.8368 5.0433 13.0135 4.92997 13.0501C4.54663 13.1868 4.73663 13.7168 4.31997 13.8501C4.23418 13.891 4.15997 13.9527 4.10408 14.0295C4.04819 14.1063 4.0124 14.1959 3.99997 14.2901C3.99997 14.6601 3.66663 14.7801 3.5633 15.0635C3.54663 15.1135 3.40663 15.1201 3.3233 15.1501L2.79663 15.3601Z" fill="#3D3D3D"/>
<path d="M3.38329 2.50339C3.45663 2.40673 3.51663 2.27006 3.61663 2.21673C3.94996 2.03673 3.83329 1.55006 4.1933 1.40006C4.25996 1.37006 4.27663 1.22339 4.27663 1.22006C4.56329 1.06339 4.77663 0.933393 4.99996 0.823393C5.07058 0.795197 5.14934 0.795197 5.21996 0.823393C5.42663 0.936726 5.62329 1.06339 5.88663 1.22673L6.15663 1.91339C6.08996 2.12006 6.02329 2.36006 5.9433 2.58006C5.91515 2.63777 5.87802 2.69065 5.83329 2.73673C5.76996 2.81339 5.67663 2.87339 5.63996 2.96006C5.59187 3.13468 5.49331 3.29122 5.35663 3.41006C5.12878 3.66359 4.95925 3.96397 4.85996 4.29006C4.76996 4.39673 4.69996 4.56006 4.58996 4.59673C4.18663 4.72673 4.38329 5.23673 4.01996 5.41673C3.83663 5.50673 3.76329 5.80673 3.60663 5.98339C3.48006 6.15499 3.31282 6.29245 3.11996 6.38339C2.9036 6.45557 2.66966 6.45557 2.45329 6.38339C2.24996 6.28673 2.11996 6.05006 1.94329 5.88006C1.81365 5.72384 1.67331 5.57682 1.5233 5.44006C1.28663 5.25006 1.09996 4.98339 0.886628 4.83006C0.553295 4.59339 0.626628 4.34006 0.606628 4.06673C0.606628 3.90339 0.606628 3.78006 0.816628 3.69673C1.02663 3.61339 1.1233 3.42673 1.24996 3.27006C1.37663 3.11339 2.13663 3.00006 2.19996 3.17339C2.34996 3.56339 2.63663 3.36006 2.86663 3.41339L3.38329 2.50339Z" fill="#3D3D3D"/>
<path d="M4.96332 22.7334C4.25665 23.4001 3.60332 23.4001 2.92332 22.7334C2.92332 22.4001 2.92332 21.9701 2.92332 21.5568C2.91679 21.5114 2.91969 21.4652 2.93182 21.421C2.94396 21.3768 2.96508 21.3356 2.99386 21.2999C3.02263 21.2643 3.05846 21.2349 3.09908 21.2137C3.13971 21.1926 3.18427 21.18 3.22999 21.1768C3.37665 21.1401 3.48999 20.9668 3.63332 20.9434C3.84226 20.9277 4.05239 20.9434 4.25665 20.9901C4.31665 20.9901 4.36665 21.1268 4.41999 21.1301C4.91999 21.1301 4.96999 21.4634 4.96332 21.8501C4.95999 22.1668 4.96332 22.4768 4.96332 22.7334Z" fill="white"/>
</svg>
