<svg width="16" height="16" viewBox="0 0 16 16" fill="currentColor" xmlns="http://www.w3.org/2000/svg">
<g clip-path="url(#clip0currentColor)">
<path d="M15.3712 10.033L14.2016 9.03304C14.257 8.69375 14.2855 8.34732 14.2855 8.00089C14.2855 7.65446 14.257 7.30804 14.2016 6.96875L15.3712 5.96875C15.4595 5.89323 15.5226 5.79264 15.5523 5.68035C15.5819 5.56807 15.5767 5.44942 15.5373 5.34018L15.5212 5.29375C15.1992 4.3938 14.7171 3.55953 14.098 2.83125L14.0659 2.79375C13.9908 2.70545 13.8907 2.64198 13.7788 2.61169C13.6669 2.58141 13.5485 2.58574 13.4391 2.62411L11.9873 3.14018C11.4516 2.70089 10.8534 2.35446 10.207 2.11161L9.92659 0.59375C9.90544 0.47954 9.85004 0.374469 9.76775 0.292496C9.68546 0.210524 9.58017 0.15553 9.46588 0.134821L9.41767 0.125893C8.48731 -0.0419643 7.50874 -0.0419643 6.57838 0.125893L6.53017 0.134821C6.41587 0.15553 6.31059 0.210524 6.2283 0.292496C6.14601 0.374469 6.0906 0.47954 6.06945 0.59375L5.78731 2.11875C5.14604 2.36166 4.54886 2.7079 4.01945 3.14375L2.55695 2.62411C2.4476 2.58543 2.32908 2.58095 2.21712 2.61125C2.10516 2.64155 2.00508 2.7052 1.93017 2.79375L1.89802 2.83125C1.27971 3.56004 0.797623 4.39417 0.474808 5.29375L0.458737 5.34018C0.37838 5.56339 0.444451 5.81339 0.624808 5.96875L1.80874 6.97946C1.75338 7.31518 1.72659 7.65804 1.72659 7.99911C1.72659 8.34196 1.75338 8.68482 1.80874 9.01875L0.624808 10.0295C0.536586 10.105 0.473445 10.2056 0.44378 10.3179C0.414115 10.4301 0.419331 10.5488 0.458737 10.658L0.474808 10.7045C0.798023 11.6045 1.27659 12.4348 1.89802 13.167L1.93017 13.2045C2.00526 13.2928 2.10535 13.3562 2.21724 13.3865C2.32913 13.4168 2.44757 13.4125 2.55695 13.3741L4.01945 12.8545C4.55159 13.292 5.14624 13.6384 5.78731 13.8795L6.06945 15.4045C6.0906 15.5187 6.14601 15.6237 6.2283 15.7057C6.31059 15.7877 6.41587 15.8427 6.53017 15.8634L6.57838 15.8723C7.51729 16.0411 8.47876 16.0411 9.41767 15.8723L9.46588 15.8634C9.58017 15.8427 9.68546 15.7877 9.76775 15.7057C9.85004 15.6237 9.90544 15.5187 9.92659 15.4045L10.207 13.8866C10.8531 13.6444 11.4547 13.2968 11.9873 12.858L13.4391 13.3741C13.5484 13.4128 13.667 13.4173 13.7789 13.387C13.8909 13.3567 13.991 13.293 14.0659 13.2045L14.098 13.167C14.7195 12.433 15.198 11.6045 15.5212 10.7045L15.5373 10.658C15.6177 10.4384 15.5516 10.1884 15.3712 10.033ZM12.9337 7.17946C12.9784 7.44911 13.0016 7.72589 13.0016 8.00268C13.0016 8.27946 12.9784 8.55625 12.9337 8.82589L12.8159 9.54197L14.1498 10.683C13.9476 11.1489 13.6923 11.5899 13.3891 11.9973L11.732 11.4098L11.1712 11.8705C10.7445 12.2205 10.2695 12.4955 9.75517 12.6884L9.07481 12.9438L8.75517 14.6759C8.25083 14.733 7.74165 14.733 7.23731 14.6759L6.91767 12.9402L6.24267 12.6813C5.73374 12.4884 5.26052 12.2134 4.83731 11.8652L4.27659 11.4027L2.60874 11.9955C2.30517 11.5866 2.05159 11.1455 1.84802 10.6813L3.19624 9.52946L3.08017 8.81518C3.03731 8.54911 3.01409 8.27411 3.01409 8.00268C3.01409 7.72946 3.03552 7.45625 3.08017 7.19018L3.19624 6.47589L1.84802 5.32411C2.04981 4.85804 2.30517 4.41875 2.60874 4.00982L4.27659 4.60268L4.83731 4.14018C5.26052 3.79196 5.73374 3.51696 6.24267 3.32411L6.91945 3.06875L7.23909 1.33304C7.74088 1.27589 8.25338 1.27589 8.75695 1.33304L9.07659 3.06518L9.75695 3.32054C10.2695 3.51339 10.7462 3.78839 11.173 4.13839L11.7337 4.59911L13.3909 4.01161C13.6945 4.42054 13.948 4.86161 14.1516 5.32589L12.8177 6.46696L12.9337 7.17946ZM7.99981 4.68125C6.26409 4.68125 4.85695 6.08839 4.85695 7.82411C4.85695 9.55982 6.26409 10.967 7.99981 10.967C9.73552 10.967 11.1427 9.55982 11.1427 7.82411C11.1427 6.08839 9.73552 4.68125 7.99981 4.68125ZM9.41409 9.23839C9.2286 9.42442 9.00815 9.57194 8.76543 9.67246C8.52271 9.77298 8.26252 9.82452 7.99981 9.82411C7.46588 9.82411 6.96409 9.61518 6.58552 9.23839C6.39949 9.0529 6.25198 8.83245 6.15146 8.58973C6.05094 8.34701 5.9994 8.08682 5.99981 7.82411C5.99981 7.29018 6.20874 6.78839 6.58552 6.40982C6.96409 6.03125 7.46588 5.82411 7.99981 5.82411C8.53374 5.82411 9.03552 6.03125 9.41409 6.40982C9.60012 6.59532 9.74764 6.81577 9.84816 7.05848C9.94868 7.3012 10.0002 7.5614 9.99981 7.82411C9.99981 8.35804 9.79088 8.85982 9.41409 9.23839Z" />
</g>
<defs>
<clipPath id="clip0currentColor">
<rect width="16" height="16" fill="white"/>
</clipPath>
</defs>
</svg>
