<svg width="24" height="24" viewBox="0 0 24 24" fill="none" xmlns="http://www.w3.org/2000/svg">
<path d="M21 24H3C2.17188 24 1.46484 23.707 0.878906 23.1211C0.292969 22.5352 0 21.8281 0 21V6C0 5.17188 0.292969 4.46484 0.878906 3.87891C1.46484 3.29297 2.17188 3 3 3H4.5V1.5C4.5 1.07812 4.64453 0.722656 4.93359 0.433594C5.22266 0.144531 5.57812 0 6 0C6.42188 0 6.77734 0.144531 7.06641 0.433594C7.35547 0.722656 7.5 1.07812 7.5 1.5V3H10.5V1.5C10.5 1.07812 10.6445 0.722656 10.9336 0.433594C11.2227 0.144531 11.5781 0 12 0C12.4219 0 12.7773 0.144531 13.0664 0.433594C13.3555 0.722656 13.5 1.07812 13.5 1.5V3H16.5V1.5C16.5 1.07812 16.6445 0.722656 16.9336 0.433594C17.2227 0.144531 17.5781 0 18 0C18.4219 0 18.7773 0.144531 19.0664 0.433594C19.3555 0.722656 19.5 1.07812 19.5 1.5V3H21C21.8281 3 22.5352 3.29297 23.1211 3.87891C23.707 4.46484 24 5.17188 24 6V21C24 21.8281 23.707 22.5352 23.1211 23.1211C22.5352 23.707 21.8281 24 21 24ZM19.0664 9.41016C18.7773 9.12109 18.4336 8.97656 18.0352 8.97656C17.6367 8.97656 17.2891 9.11719 16.9922 9.39844L10.5 15.9141L6.98438 12.3984C6.6875 12.1172 6.33984 11.9766 5.94141 11.9766C5.54297 11.9766 5.19922 12.1211 4.91016 12.4102C4.62109 12.6992 4.47656 13.043 4.47656 13.4414C4.47656 13.8398 4.625 14.1797 4.92188 14.4609L9.21094 18.75C9.30469 18.9219 9.36719 19.0312 9.39844 19.0781C9.69531 19.3594 10.0625 19.4922 10.5 19.4766C10.9219 19.4922 11.2812 19.3594 11.5781 19.0781C11.6094 19.0312 11.6719 18.9219 11.7656 18.75L19.0781 11.4609C19.3594 11.1797 19.5 10.8398 19.5 10.4414C19.5 10.043 19.3555 9.69922 19.0664 9.41016Z" fill="#484848"/>
</svg>
