<svg version="1.1" xmlns="http://www.w3.org/2000/svg" height="1024" width="1024" viewBox="0 0 1024 1024"><path d="M486.4 609.28h51.2v138.24h-51.2zM371.2 453.12h-51.2v-102.4c0-102.4 81.92-184.32 184.32-184.32s184.32 81.92 184.32 184.32v61.44h-51.2v-61.44c0-74.24-58.88-133.12-133.12-133.12-74.24 0-133.12 58.88-133.12 133.12v102.4z" fill="#333333"></path><path d="M512 593.92m-48.64 0a48.64 48.64 0 1 0 97.28 0 48.64 48.64 0 1 0-97.28 0Z" fill="#333333"></path><path d="M724.48 893.44H299.52c-33.28 0-58.88-25.6-58.88-58.88v-332.8c0-33.28 25.6-58.88 58.88-58.88h422.4c33.28 0 58.88 25.6 58.88 58.88v332.8c2.56 33.28-25.6 58.88-56.32 58.88zM299.52 491.52c-5.12 0-7.68 2.56-7.68 7.68v332.8c0 5.12 2.56 7.68 7.68 7.68h422.4c5.12 0 7.68-2.56 7.68-7.68v-332.8c0-5.12-2.56-7.68-7.68-7.68H299.52z" fill="#333333"></path></svg>