<svg width="16" height="16" viewBox="0 0 16 16" fill="currentColor" xmlns="http://www.w3.org/2000/svg">
<path d="M2.66663 10.0003V5.66699C2.66663 4.87134 2.9827 4.10828 3.54531 3.54567C4.10791 2.98306 4.87098 2.66699 5.66663 2.66699C6.46228 2.66699 7.22534 2.98306 7.78795 3.54567C8.35056 4.10828 8.66663 4.87134 8.66663 5.66699V10.3337C8.66663 10.7757 8.84222 11.1996 9.15478 11.5122C9.46734 11.8247 9.89127 12.0003 10.3333 12.0003C10.7753 12.0003 11.1992 11.8247 11.5118 11.5122C11.8244 11.1996 12 10.7757 12 10.3337V5.88699C11.555 5.72972 11.1799 5.42019 10.9411 5.01312C10.7022 4.60605 10.615 4.12764 10.6948 3.66247C10.7745 3.19729 11.0162 2.7753 11.377 2.47108C11.7379 2.16686 12.1947 2 12.6666 2C13.1386 2 13.5954 2.16686 13.9562 2.47108C14.317 2.7753 14.5587 3.19729 14.6385 3.66247C14.7183 4.12764 14.631 4.60605 14.3922 5.01312C14.1534 5.42019 13.7783 5.72972 13.3333 5.88699V10.3337C13.3333 11.1293 13.0172 11.8924 12.4546 12.455C11.892 13.0176 11.1289 13.3337 10.3333 13.3337C9.53764 13.3337 8.77458 13.0176 8.21197 12.455C7.64936 11.8924 7.33329 11.1293 7.33329 10.3337V5.66699C7.33329 5.22496 7.1577 4.80104 6.84514 4.48848C6.53258 4.17592 6.10865 4.00033 5.66663 4.00033C5.2246 4.00033 4.80068 4.17592 4.48811 4.48848C4.17555 4.80104 3.99996 5.22496 3.99996 5.66699V10.0003H5.99996L3.33329 13.3337L0.666626 10.0003H2.66663ZM12.6666 4.66699C12.8434 4.66699 13.013 4.59675 13.138 4.47173C13.2631 4.34671 13.3333 4.17714 13.3333 4.00033C13.3333 3.82351 13.2631 3.65395 13.138 3.52892C13.013 3.4039 12.8434 3.33366 12.6666 3.33366C12.4898 3.33366 12.3202 3.4039 12.1952 3.52892C12.0702 3.65395 12 3.82351 12 4.00033C12 4.17714 12.0702 4.34671 12.1952 4.47173C12.3202 4.59675 12.4898 4.66699 12.6666 4.66699Z"/>
</svg>
