<svg width="28" height="25" viewBox="0 0 28 25" fill="none" xmlns="http://www.w3.org/2000/svg">
<path d="M4.54994 16.1167C4.62661 16.1367 4.73327 16.1167 4.74661 16.1701C4.93327 16.6267 5.33327 16.4701 5.65994 16.4834C6.21994 16.5067 6.77994 16.4834 7.32661 16.5067C7.43994 16.5067 7.63661 16.6167 7.63994 16.6801C7.66327 17.3467 7.63994 18.0134 7.63994 18.6534C7.52994 18.6734 7.44994 18.6867 7.36994 18.7067C7.18961 18.7414 7.02604 18.8353 6.90524 18.9737C6.78444 19.112 6.71335 19.2867 6.70327 19.4701C6.70404 19.7702 6.72632 20.0698 6.76994 20.3667C6.76994 20.4201 6.79661 20.5067 6.82994 20.5167C7.18075 20.6808 7.55353 20.7931 7.93661 20.8501C9.46327 20.8867 10.9933 20.8501 12.5199 20.8501H13.0266C13.1699 21.1834 13.2199 21.5767 13.4366 21.7767C13.7133 22.0301 13.7133 22.4434 14.0333 22.6401C14.2199 22.7601 14.3666 22.9467 14.5633 23.0534C14.8599 23.2234 15.1799 23.3501 15.4866 23.4967C15.5166 23.4967 15.5266 23.5567 15.5533 23.5734C15.6235 23.635 15.7035 23.6846 15.7899 23.7201C16.1766 23.8134 16.6299 23.6067 16.9633 23.9801C16.9833 24.0001 17.0699 23.9801 17.1233 23.9534C17.3233 23.8901 17.5299 23.7434 17.7133 23.7734C18.2999 23.8667 18.7133 23.4401 19.2533 23.3601C19.2799 23.3601 19.2999 23.3167 19.3233 23.2934L19.9166 22.7601C20.0766 22.6613 20.2176 22.5349 20.3333 22.3867C20.4533 22.1334 20.7566 21.9667 20.7033 21.6267C20.7033 21.6034 20.7999 21.5767 20.8333 21.5367C20.8938 21.4817 20.9407 21.4132 20.9699 21.3367C20.9894 21.1842 20.9994 21.0305 20.9999 20.8767H21.6399C23.4799 20.8767 25.3066 20.8767 27.1666 20.8767C27.4766 20.8767 27.5833 20.7534 27.6033 20.4834C27.6033 20.4034 27.6033 20.3201 27.6033 20.2367V9.20339H23.4766C23.4766 8.33006 23.4366 7.49006 23.4766 6.65673C23.5066 6.19339 23.1433 5.89006 23.1433 5.46006C23.1433 5.33006 22.8899 5.12673 22.7299 5.11006C22.3816 5.08353 22.0317 5.08353 21.6833 5.11006C21.6333 5.28339 21.6299 5.42673 21.5599 5.50006C21.1966 5.87339 21.3066 6.33339 21.2999 6.77006C21.2999 7.46006 21.2999 8.14672 21.2999 8.83672C21.2999 8.96006 21.2999 9.08006 21.2766 9.21339H13.7399C13.4866 8.60673 14.0733 8.19339 14.0533 7.65006C14.055 7.64493 14.0581 7.64037 14.0622 7.63684C14.0663 7.63332 14.0713 7.63098 14.0766 7.63006C14.3633 7.56006 14.3233 7.32339 14.3299 7.12339C14.3299 6.70673 14.6833 6.53673 14.8733 6.25339C15.0171 5.96702 15.189 5.69568 15.3866 5.44339C15.5266 5.27339 15.7199 5.16006 15.8833 5.00006C16.0466 4.84006 16.1366 4.64006 16.2966 4.50006C16.5833 4.25006 16.9633 4.12672 17.2499 3.88006C17.5602 3.69505 17.8977 3.56006 18.2499 3.48006C18.2899 3.46339 18.3666 3.46339 18.3733 3.44006C18.4799 3.10673 18.7666 3.23673 18.9866 3.20006C19.0999 3.18006 19.2799 3.20006 19.3199 3.14006C19.5166 2.80673 19.8266 2.89006 20.0999 2.88673C22.4566 2.88673 24.8099 2.88673 27.1666 2.87006H27.6033C27.6033 2.24006 27.6033 1.66006 27.6033 1.08006C27.6033 0.846726 27.4999 0.713392 27.2099 0.716725C25.1466 0.716725 23.0833 0.716725 21.0166 0.716725C20.9166 0.716725 20.7633 0.700059 20.7199 0.760059C20.5433 0.986725 20.3066 0.940059 20.0833 0.950059C19.7499 0.966726 19.3833 0.976726 19.0333 1.00006C18.9329 1.01456 18.8352 1.04376 18.7433 1.08673C18.5799 1.15339 18.4099 1.24339 18.2566 1.29339C17.8299 1.42673 17.3999 1.54006 16.9733 1.66339C16.9433 1.66339 16.8999 1.70339 16.8966 1.72673C16.8799 1.99673 16.6533 1.91006 16.5066 1.96339C16.4146 2.00825 16.3284 2.06423 16.2499 2.13006L15.5833 2.57339C15.4833 2.64339 15.3833 2.71339 15.2899 2.79339C15.1333 2.92673 14.9866 3.06673 14.8266 3.19673C14.6585 3.31657 14.4971 3.44566 14.3433 3.58339C14.1799 3.75006 14.0799 3.98006 13.9099 4.13006C13.6449 4.31886 13.4437 4.58398 13.3333 4.89006C13.3069 4.94923 13.2721 5.00426 13.2299 5.05339C13.0452 5.25005 12.8932 5.47515 12.7799 5.72006C12.7066 5.97673 12.5999 6.05339 12.3633 6.05339C12.2466 6.05339 12.1299 6.05339 12.0299 6.05339H7.57994C7.11327 6.05339 6.91327 6.34006 6.68661 6.69673C6.38327 7.15006 6.77994 7.42673 6.78661 7.78673C6.79086 7.82041 6.80749 7.8513 6.83327 7.87339C7.15168 8.01984 7.48786 8.12405 7.83327 8.18339C8.92661 8.22339 10.0266 8.18339 11.1199 8.20006C11.2717 8.19763 11.4235 8.20879 11.5733 8.23339C11.6098 8.24033 11.6444 8.25491 11.6748 8.27616C11.7052 8.29742 11.7309 8.32487 11.7499 8.35673C11.7666 8.41006 11.7033 8.49006 11.6666 8.55672C11.5936 8.65975 11.5342 8.77179 11.4899 8.89006C11.4571 9.07185 11.436 9.25556 11.4266 9.44006C11.2433 9.48339 10.9766 9.48006 10.9466 9.56339C10.7999 9.97339 10.2199 9.68673 10.1199 10.1201C9.59661 10.1201 9.38327 10.6234 9.00327 10.8567C8.62327 11.0901 8.62994 11.5234 8.33661 11.8034C8.11327 12.0367 8.06994 12.4401 7.94994 12.7667C7.92661 12.8301 7.91327 12.9434 7.87994 12.9501C7.62661 13.0067 7.68661 13.2101 7.67661 13.3701C7.66661 13.5301 7.67661 13.7667 7.67661 13.9634C7.67661 14.5501 7.65661 14.5634 7.06327 14.5701C6.39661 14.5701 5.75661 14.5701 5.10661 14.5934C5.00985 14.6054 4.91851 14.6447 4.84327 14.7067C4.73543 14.8055 4.63305 14.9101 4.53661 15.0201L4.54994 16.1167ZM4.99994 10.4834C4.92661 10.4834 4.71661 10.5067 4.63994 10.4234C4.53385 10.3259 4.40522 10.2563 4.26559 10.2208C4.12596 10.1853 3.9797 10.1851 3.83994 10.2201C3.21661 10.2567 2.58327 10.1034 1.96994 10.4334C1.63661 10.6234 1.36327 10.7901 1.35327 11.1601C1.34494 11.3111 1.34494 11.4624 1.35327 11.6134C1.37442 11.8063 1.46225 11.9858 1.60161 12.1209C1.74096 12.256 1.92311 12.3382 2.11661 12.3534C2.91994 12.3534 3.72327 12.3534 4.52661 12.3534C4.64539 12.3271 4.75345 12.2655 4.83661 12.1767C4.98661 12.0467 5.11327 11.8867 5.26661 11.7601C5.41994 11.6334 5.50994 10.9901 5.34661 10.8401C5.26994 10.7434 5.17661 10.6467 4.99994 10.4834ZM10.7399 3.81673C11.2833 3.81673 11.2833 3.81673 11.5266 3.35339C11.5633 3.29006 11.6733 3.25006 11.6799 3.19006C11.7187 2.97889 11.7243 2.76296 11.6966 2.55006C11.6416 2.40522 11.5538 2.27513 11.4399 2.17006C11.3708 2.07352 11.2777 1.99657 11.1699 1.94673C11.0095 1.91766 10.846 1.9087 10.6833 1.92006C10.5789 1.90875 10.4733 1.91969 10.3734 1.95216C10.2735 1.98464 10.1817 2.0379 10.1039 2.10844C10.0261 2.17899 9.96413 2.26522 9.92209 2.36144C9.88004 2.45767 9.85886 2.56172 9.85994 2.66673C9.75994 3.37673 10.1066 3.83006 10.7533 3.83006L10.7399 3.81673ZM1.33327 14.5601C0.623273 14.5601 0.406606 14.7734 0.396606 15.4601C0.396606 16.2034 0.59994 16.4134 1.17661 16.5034C1.75327 16.5934 1.96661 16.2034 2.22994 15.8567C2.27261 15.7668 2.29751 15.6694 2.30327 15.5701C2.37994 15.1767 1.96994 15.0101 1.87994 14.6767C1.85327 14.5967 1.51327 14.5967 1.33327 14.5601Z" fill="white"/>
<path d="M4.54999 16.1167V15.03C4.64643 14.9201 4.74881 14.8155 4.85665 14.7167C4.93189 14.6547 5.02323 14.6154 5.11999 14.6034C5.76999 14.5867 6.42332 14.5867 7.07665 14.58C7.66999 14.58 7.68332 14.56 7.68999 13.9734C7.68999 13.7767 7.68999 13.5767 7.68999 13.38C7.68999 13.1834 7.63999 13.0167 7.89332 12.96C7.92665 12.96 7.93999 12.84 7.96332 12.7767C8.08332 12.4434 8.12665 12.0467 8.34999 11.8134C8.62999 11.52 8.68332 11.0667 9.01665 10.8667C9.34999 10.6667 9.60999 10.14 10.1333 10.13C10.2333 9.69669 10.8 9.98335 10.96 9.57335C10.99 9.49002 11.2567 9.49335 11.44 9.45002C11.4494 9.26552 11.4705 9.08182 11.5033 8.90002C11.5476 8.78175 11.607 8.66971 11.68 8.56669C11.7167 8.50002 11.78 8.42002 11.7633 8.36669C11.7442 8.33484 11.7186 8.30738 11.6882 8.28613C11.6577 8.26487 11.6231 8.25029 11.5867 8.24335C11.4368 8.21875 11.2851 8.2076 11.1333 8.21002C10.04 8.21002 8.93999 8.23336 7.84665 8.19336C7.50124 8.13402 7.16506 8.0298 6.84665 7.88336C6.82087 7.86127 6.80424 7.83037 6.79999 7.79669C6.79999 7.43669 6.39665 7.16002 6.69999 6.70669C6.93665 6.35002 7.12665 6.06335 7.59332 6.06335H12.0233C12.14 6.06335 12.2567 6.06335 12.3567 6.06335C12.5933 6.06335 12.69 5.98669 12.7733 5.73002C12.8866 5.48511 13.0385 5.26001 13.2233 5.06335C13.2655 5.01422 13.3003 4.9592 13.3267 4.90002C13.4377 4.59061 13.6414 4.32291 13.91 4.13335C14.08 3.98335 14.18 3.75335 14.3433 3.58669C14.4972 3.44896 14.6585 3.31987 14.8267 3.20002C14.9867 3.07002 15.1333 2.93002 15.29 2.79669C15.3833 2.71669 15.4833 2.64669 15.5833 2.57669L16.25 2.13335C16.3284 2.06752 16.4146 2.01155 16.5067 1.96669C16.6533 1.91335 16.88 2.00002 16.8967 1.73002C16.8967 1.70669 16.9433 1.67669 16.9733 1.66669C17.4 1.54335 17.83 1.43002 18.2567 1.29669C18.4233 1.24669 18.59 1.15669 18.7433 1.09002C18.8352 1.04706 18.9329 1.01785 19.0333 1.00335C19.3667 0.980021 19.7333 0.970021 20.0833 0.953355C20.3067 0.953355 20.5433 0.990021 20.72 0.763355C20.7633 0.703355 20.9167 0.720021 21.0167 0.720021C23.0833 0.720021 25.1467 0.720021 27.21 0.720021C27.5 0.720021 27.5967 0.850021 27.6033 1.08335C27.6033 1.66335 27.6033 2.24336 27.6033 2.87335H27.1733C24.8167 2.87335 22.4633 2.87335 20.1067 2.89002C19.8333 2.89002 19.5233 2.82335 19.3267 3.14335C19.29 3.20669 19.11 3.18335 18.9933 3.20335C18.7733 3.24002 18.4867 3.10669 18.38 3.44335C18.38 3.46669 18.2967 3.46669 18.2567 3.48335C17.9044 3.56336 17.5669 3.69834 17.2567 3.88335C16.9533 4.13002 16.59 4.25335 16.3033 4.50335C16.1433 4.64335 16.04 4.83669 15.89 5.00335C15.74 5.17002 15.5333 5.27669 15.3933 5.44669C15.1957 5.69898 15.0238 5.97032 14.88 6.25669C14.69 6.54002 14.3467 6.71002 14.3367 7.12669C14.3367 7.32669 14.37 7.56335 14.0833 7.63335C14.078 7.63427 14.073 7.63662 14.0689 7.64014C14.0648 7.64366 14.0617 7.64823 14.06 7.65335C14.0867 8.19669 13.4933 8.61002 13.7467 9.21669H21.2767C21.2767 9.08335 21.3 8.96336 21.3 8.84002C21.3 8.15002 21.3 7.46335 21.3 6.77335C21.3 6.33669 21.1967 5.87669 21.56 5.50335C21.63 5.43002 21.6333 5.28669 21.6833 5.11335C22.0317 5.08683 22.3816 5.08683 22.73 5.11335C22.89 5.13669 23.1367 5.33335 23.1433 5.46335C23.1667 5.89335 23.52 6.19669 23.4767 6.66002C23.42 7.49335 23.4767 8.32669 23.4767 9.20669H27.6133V20.2434C27.6133 20.3267 27.6133 20.41 27.6133 20.49C27.5933 20.76 27.4867 20.8867 27.1767 20.8834C25.3333 20.8667 23.49 20.8834 21.65 20.8834H21C20.9958 21.034 20.9824 21.1843 20.96 21.3334C20.9307 21.4098 20.8839 21.4783 20.8233 21.5334C20.79 21.5734 20.69 21.6 20.6933 21.6234C20.7467 21.9567 20.4433 22.13 20.3233 22.3834C20.2181 22.5387 20.086 22.6742 19.9333 22.7834L19.3333 23.3334C19.31 23.3567 19.29 23.3967 19.2633 23.4C18.7333 23.4734 18.31 23.9067 17.7233 23.8134C17.54 23.7834 17.3333 23.93 17.1333 23.9934C17.08 23.9934 16.9933 24.04 16.9733 24.02C16.64 23.6467 16.1867 23.8534 15.8 23.76C15.7135 23.7245 15.6336 23.675 15.5633 23.6134C15.5367 23.6134 15.5267 23.55 15.4967 23.5367C15.19 23.39 14.87 23.2634 14.5733 23.0934C14.38 22.9867 14.24 22.8 14.0433 22.68C13.71 22.4767 13.71 22.07 13.4467 21.8167C13.23 21.6167 13.18 21.2334 13.0367 20.89H12.5367C11.01 20.89 9.47999 20.91 7.95332 20.89C7.57024 20.8331 7.19746 20.7208 6.84665 20.5567C6.81332 20.5567 6.78999 20.46 6.78665 20.4067C6.74304 20.1098 6.72076 19.8101 6.71999 19.51C6.73007 19.3267 6.80116 19.1519 6.92195 19.0136C7.04275 18.8753 7.20632 18.7814 7.38665 18.7467C7.46665 18.7267 7.54665 18.7134 7.65665 18.6934C7.66665 18 7.66665 17.3334 7.66665 16.6667C7.66665 16.6034 7.46665 16.4967 7.35332 16.4934C6.79665 16.4734 6.23665 16.4934 5.68665 16.47C5.35332 16.47 4.95999 16.6134 4.77332 16.1567C4.73332 16.1334 4.62665 16.1367 4.54999 16.1167ZM15.37 18.45L15.3133 18.41C15.2767 18.5434 15.2867 18.7434 15.2 18.8034C14.8667 19.07 14.9867 19.4267 14.96 19.7567C14.9667 19.861 14.9667 19.9657 14.96 20.07C14.8633 20.5134 15.3267 20.7367 15.3767 21.13C15.4027 21.2106 15.4461 21.2846 15.5036 21.3468C15.5612 21.4089 15.6316 21.4578 15.71 21.49C15.9267 21.58 16.2233 21.49 16.3167 21.8234C16.7992 21.8702 17.2855 21.8635 17.7667 21.8034C18.1125 21.6825 18.4221 21.4761 18.6667 21.2034C18.8709 21.0153 19.0089 20.7663 19.06 20.4934C19.095 19.9828 19.095 19.4705 19.06 18.96C19.0584 18.8701 19.0293 18.7829 18.9767 18.71C18.8143 18.5071 18.6384 18.3156 18.45 18.1367C18.29 17.9934 18.1167 17.8034 17.9167 17.7734C17.3266 17.7234 16.7334 17.7234 16.1433 17.7734C15.9433 17.7734 15.7533 18.0067 15.5767 18.15C15.4969 18.2457 15.4276 18.3496 15.37 18.46V18.45Z" fill="#3D3D3D"/>
<path d="M4.99995 10.4834C5.16328 10.6467 5.25662 10.7434 5.35328 10.8167C5.51662 10.9667 5.44995 11.5934 5.27328 11.7367C5.09662 11.88 4.99328 12.0234 4.84328 12.1534C4.76012 12.2422 4.65206 12.3038 4.53328 12.3301C3.72995 12.3301 2.92662 12.3301 2.12328 12.3301C1.92978 12.3149 1.74764 12.2327 1.60828 12.0976C1.46892 11.9625 1.3811 11.783 1.35995 11.59C1.35162 11.4391 1.35162 11.2877 1.35995 11.1367C1.35995 10.7667 1.62662 10.6 1.97662 10.41C2.58995 10.0767 3.22328 10.2334 3.84662 10.1967C3.98637 10.1617 4.13263 10.162 4.27227 10.1975C4.4119 10.233 4.54053 10.3026 4.64662 10.4C4.72995 10.5067 4.93995 10.4734 4.99995 10.4834Z" fill="#3D3D3D"/>
<path d="M10.7533 3.83005C10.1067 3.83005 9.75334 3.37671 9.86001 2.66338C9.86106 2.55851 9.88428 2.45505 9.92816 2.3598C9.97204 2.26455 10.0356 2.17966 10.1146 2.11072C10.1936 2.04177 10.2863 1.99032 10.3867 1.95976C10.487 1.9292 10.5926 1.9202 10.6967 1.93338C10.8594 1.92202 11.0229 1.93098 11.1833 1.96004C11.2911 2.00989 11.3842 2.08684 11.4533 2.18338C11.5672 2.28845 11.655 2.41854 11.71 2.56338C11.7377 2.77628 11.7321 2.99221 11.6933 3.20338C11.6933 3.26338 11.5767 3.30338 11.54 3.36671C11.2967 3.82338 11.2967 3.82671 10.7533 3.83005Z" fill="#3D3D3D"/>
<path d="M1.33332 14.5601C1.52332 14.5967 1.86332 14.5967 1.87998 14.6767C1.96332 15.0101 2.37998 15.1767 2.30332 15.5701C2.29755 15.6694 2.27265 15.7668 2.22998 15.8567C1.96665 16.1901 1.75998 16.5901 1.17665 16.5034C0.593317 16.4167 0.383317 16.2034 0.39665 15.4601C0.39665 14.7734 0.613317 14.5734 1.33332 14.5601Z" fill="#3D3D3D"/>
<path d="M15.37 18.46C15.4355 18.352 15.5127 18.2514 15.6 18.16C15.7767 18.0167 15.9667 17.8 16.1667 17.7833C16.7567 17.7334 17.35 17.7334 17.94 17.7833C18.1267 17.7833 18.3133 18.0033 18.4733 18.1467C18.6614 18.3224 18.8373 18.5106 19 18.71C19.0527 18.7829 19.0818 18.8701 19.0833 18.96C19.1183 19.4705 19.1183 19.9828 19.0833 20.4933C19.026 20.7693 18.8796 21.0187 18.6667 21.2033C18.4179 21.4797 18.1022 21.6874 17.75 21.8067C17.2689 21.8668 16.7826 21.8735 16.3 21.8267C16.2067 21.4933 15.91 21.59 15.6933 21.4933C15.615 21.4611 15.5445 21.4123 15.487 21.3501C15.4294 21.2879 15.3861 21.214 15.36 21.1333C15.31 20.74 14.8467 20.5167 14.9433 20.0733C14.95 19.969 14.95 19.8643 14.9433 19.76C14.97 19.4267 14.85 19.0733 15.1833 18.8067C15.27 18.7333 15.26 18.5467 15.2967 18.4133L15.37 18.46Z" fill="white"/>
</svg>
