<svg width="30" height="30" viewBox="0 0 30 30" fill="none" xmlns="http://www.w3.org/2000/svg">
<path d="M8.50002 1.75996C12.7667 1.78662 15.5 5.89996 13.9333 9.96663C13.2667 11.7366 12.09 13.18 10.7333 14.48C10.11 15.08 9.42668 15.6133 8.77002 16.18C8.61335 16.3133 8.48002 16.38 8.27335 16.2233C6.19002 14.6433 4.33335 12.86 3.24668 10.4433C2.16001 8.02663 2.33335 5.75329 4.11001 3.69329C4.6633 3.07876 5.34072 2.58866 6.09748 2.25539C6.85425 1.92211 7.67314 1.75325 8.50002 1.75996ZM5.55001 7.59996C5.54738 8.18331 5.71795 8.75433 6.04012 9.24066C6.3623 9.72698 6.82158 10.1067 7.35977 10.3318C7.89797 10.5569 8.49086 10.6171 9.06333 10.505C9.6358 10.3928 10.1621 10.1132 10.5755 9.70162C10.989 9.29006 11.2709 8.76504 11.3857 8.19308C11.5005 7.62112 11.4429 7.02796 11.2203 6.48875C10.9977 5.94954 10.62 5.48855 10.1351 5.16417C9.65028 4.83979 9.08004 4.66663 8.49668 4.66663C8.11011 4.66398 7.72684 4.73795 7.36901 4.88427C7.01118 5.03058 6.68588 5.24633 6.41191 5.51907C6.13793 5.79181 5.9207 6.11612 5.77277 6.47328C5.62483 6.83044 5.54913 7.21337 5.55001 7.59996Z" fill="#3D3D3D"/>
<path d="M8.35665 10.5833C10.0595 10.5833 11.44 9.21479 11.44 7.52664C11.44 5.83849 10.0595 4.46997 8.35665 4.46997C6.65377 4.46997 5.27332 5.83849 5.27332 7.52664C5.27332 9.21479 6.65377 10.5833 8.35665 10.5833Z" fill="white"/>
<path d="M28.2667 24.64H22.1567C22.1567 24.64 22.1934 27.6934 18.1934 27.7667C18.1934 27.7667 14.9567 27.91 14.63 24.64H9.06672C9.06672 24.64 7.97672 24.4934 8.23005 23.5467C8.23005 23.5467 7.97671 22.71 9.46671 22.6734L9.43005 20.5667H7.25005C7.10867 20.5868 6.96448 20.5706 6.83112 20.5195C6.69776 20.4684 6.57962 20.3842 6.48787 20.2748C6.39612 20.1653 6.33378 20.0343 6.30675 19.8941C6.27972 19.7539 6.28888 19.6091 6.33338 19.4734C6.33338 19.4734 6.11338 18.71 7.09672 18.6734H9.38671C9.38671 18.6734 9.46005 14.53 12.95 13.8734L13.3334 12.8167H9.28672C9.01306 12.7762 8.76188 12.6422 8.57592 12.4374C8.38995 12.2325 8.28069 11.9696 8.26671 11.6934C8.26671 11.6934 8.41338 10.71 9.32005 10.71H14.1567C14.1567 10.71 16.1934 6.42003 20.45 5.84003L28.2667 5.69336V7.80336L21.1767 7.73003C21.1767 7.73003 16.9567 7.58336 15.1034 13.62L22.1034 13.6567L22.14 10.2734C22.14 10.2734 22.2134 9.44669 23.4134 9.58669C23.5145 9.56346 23.6193 9.56118 23.7214 9.57999C23.8234 9.5988 23.9205 9.63832 24.0067 9.69609C24.0929 9.75387 24.1664 9.82868 24.2225 9.91592C24.2787 10.0032 24.3164 10.101 24.3334 10.2034L24.37 13.73L28.26 13.6934L28.2667 24.64Z" fill="white"/>
<path d="M18.15 27.9333C17.7367 27.9333 14.8767 27.8233 14.4833 24.8066H9.06668C8.71269 24.7621 8.38991 24.5816 8.16668 24.3033C8.09624 24.1914 8.05032 24.0657 8.03193 23.9347C8.01355 23.8037 8.02312 23.6703 8.06001 23.5433C8.04183 23.4452 8.04368 23.3444 8.06544 23.247C8.08721 23.1497 8.12845 23.0577 8.18668 22.9767C8.32668 22.8233 8.49868 22.7026 8.69049 22.6231C8.88231 22.5436 9.08925 22.5073 9.29668 22.5167L9.26668 20.7333H7.25001C7.08789 20.7404 6.92601 20.7145 6.77419 20.6572C6.62236 20.5999 6.48373 20.5124 6.36668 20.4C6.26529 20.2721 6.1948 20.1226 6.16069 19.963C6.12658 19.8034 6.12977 19.6381 6.17001 19.48C6.14731 19.3728 6.14623 19.2622 6.16684 19.1546C6.18744 19.0469 6.22932 18.9445 6.29001 18.8533C6.39053 18.7404 6.51534 18.6517 6.65506 18.594C6.79478 18.5363 6.94577 18.511 7.09668 18.52H9.23668C9.29668 17.7366 9.74001 14.39 12.83 13.7433L13.0867 13H9.28668C8.97314 12.9588 8.68366 12.81 8.46778 12.5789C8.25191 12.3479 8.12308 12.0489 8.10334 11.7333V11.6666C8.13792 11.3624 8.28158 11.0809 8.50772 10.8744C8.73386 10.6678 9.02717 10.5502 9.33334 10.5433H14.0567C14.39 9.89998 16.49 6.20998 20.4267 5.67332L28.4267 5.52332V7.96998L21.1667 7.89665C21 7.89332 17.1533 7.83332 15.3333 13.4533L21.96 13.49L21.9933 10.2733C22.0269 10.0357 22.1482 9.81927 22.3333 9.66665C22.4907 9.55508 22.6689 9.47633 22.8573 9.4351C23.0457 9.39386 23.2405 9.39099 23.43 9.42665C23.6755 9.38991 23.9261 9.44192 24.1367 9.57332C24.2363 9.64323 24.3206 9.73285 24.3842 9.83662C24.4479 9.9404 24.4895 10.0561 24.5067 10.1766L24.5433 13.5666L28.4367 13.53V24.8066H22.3133C22.2467 25.4733 21.7633 27.8666 18.1967 27.9333H18.15ZM14.63 24.4733H14.78V24.6233C15.0867 27.6933 18.0433 27.6067 18.17 27.6C22 27.53 22 24.7566 22 24.64V24.4733H28.1V13.86L24.21 13.8966L24.1733 10.2033C24.1476 10.0575 24.0663 9.92727 23.9467 9.83998C23.8002 9.75677 23.63 9.72509 23.4633 9.74998H23.4367H23.41C23.112 9.68838 22.8016 9.74709 22.5467 9.91332C22.4314 10.0082 22.3554 10.1424 22.3333 10.29L22.2967 13.8233L14.8867 13.7866L14.9533 13.57C16.8267 7.47998 21.1433 7.56998 21.1933 7.56998L28.11 7.63998V5.86332L20.4533 5.99998C16.36 6.56665 14.3333 10.74 14.31 10.7833L14.2633 10.8766H9.33334C9.11336 10.8882 8.90441 10.9766 8.74296 11.1264C8.58151 11.2763 8.47783 11.4781 8.45001 11.6966C8.45889 11.9313 8.5482 12.1558 8.70297 12.3324C8.85774 12.509 9.06854 12.627 9.30001 12.6666H13.5567L13.0833 14.0366L12.99 14.0566C9.66668 14.6666 9.56334 18.5133 9.56001 18.6666V18.83H7.10334C7.00305 18.8212 6.90207 18.8352 6.80797 18.871C6.71387 18.9068 6.62909 18.9634 6.56001 19.0366C6.49029 19.1515 6.46873 19.2893 6.50001 19.42V19.4566V19.4966C6.46695 19.6089 6.45967 19.7271 6.47872 19.8426C6.49776 19.958 6.54265 20.0677 6.61001 20.1633C6.78106 20.3178 7.00645 20.3982 7.23668 20.3866H9.59001L9.63334 22.8233H9.46668C8.82001 22.8233 8.56001 23.01 8.46668 23.1567C8.43238 23.2042 8.40843 23.2585 8.39637 23.3159C8.38432 23.3733 8.38442 23.4326 8.39668 23.49V23.5333V23.58C8.36632 23.6669 8.35536 23.7593 8.36457 23.8509C8.37379 23.9425 8.40295 24.0309 8.45001 24.11C8.6158 24.302 8.84552 24.4275 9.09668 24.4633L14.63 24.4733Z" fill="white"/>
<path d="M28.6167 24.5667H22.51C22.51 24.5667 22.5467 27.62 18.5467 27.6933C18.5467 27.6933 15.31 27.84 14.9834 24.5667H9.4167C9.4167 24.5667 8.3267 24.42 8.58336 23.4767C8.58336 23.4767 8.3267 22.64 9.8167 22.6033L9.78336 20.4933H7.60003C7.45954 20.5119 7.31662 20.4947 7.18458 20.4433C7.05254 20.3918 6.93566 20.3077 6.84484 20.1989C6.75401 20.0902 6.69219 19.9602 6.66512 19.821C6.63805 19.6819 6.64662 19.5382 6.69003 19.4033C6.69003 19.4033 6.47336 18.64 7.45336 18.6033H9.7467C9.7467 18.6033 9.8167 14.4567 13.31 13.8033L13.6667 12.7433H9.6367C9.36278 12.7034 9.11125 12.5696 8.92517 12.3646C8.73909 12.1597 8.63005 11.8965 8.6167 11.62C8.6167 11.62 8.76336 10.64 9.67336 10.64H14.51C14.51 10.64 16.5467 6.34999 20.8 5.76666L28.6167 5.62V7.73L21.5267 7.66666C21.5267 7.66666 17.31 7.52333 15.4534 13.56L22.4734 13.5933L22.51 10.2133C22.51 10.2133 22.5834 9.38333 23.7834 9.52666C23.8834 9.50445 23.9869 9.50288 24.0875 9.52204C24.1882 9.54121 24.2839 9.5807 24.3688 9.63811C24.4536 9.69552 24.5259 9.76964 24.5811 9.85594C24.6364 9.94223 24.6734 10.0389 24.69 10.14L24.7267 13.6667L28.6167 13.63V24.5667Z" fill="#3D3D3D"/>
<path d="M18.14 25.6401C19.2096 25.6401 20.0766 24.773 20.0766 23.7034C20.0766 22.6338 19.2096 21.7667 18.14 21.7667C17.0704 21.7667 16.2033 22.6338 16.2033 23.7034C16.2033 24.773 17.0704 25.6401 18.14 25.6401Z" fill="white"/>
</svg>
