<svg width="16" height="16" viewBox="0 0 16 16" fill="currentColor" xmlns="http://www.w3.org/2000/svg">
<path d="M14.51 3.13101C14.5011 3.11494 14.4886 3.09887 14.4743 3.08637C14.385 2.99708 14.2404 2.99708 14.1511 3.08637L11.0743 6.16315L9.86179 4.95065L12.9404 1.87208C12.9546 1.8578 12.9654 1.84351 12.9761 1.82744C13.0404 1.71851 13.0046 1.57923 12.8957 1.51494C11.1421 0.479226 8.84572 0.716726 7.33679 2.22387C6.14036 3.4203 5.74393 5.11673 6.14929 6.64173L0.917145 11.8739C0.863573 11.9274 0.867144 12.0149 0.922502 12.0703L3.95286 15.1007C4.00822 15.156 4.0975 15.1596 4.14929 15.106L9.37965 9.87566C10.9064 10.2828 12.6029 9.88815 13.8011 8.68994C15.3082 7.18101 15.5457 4.88458 14.51 3.13101ZM12.8921 7.77923C11.8546 8.81673 10.2975 9.01673 9.06 8.37923L8.90286 8.53637L8.90108 8.53458L4.00822 13.4292L2.59393 12.0149L6.70286 7.90601C6.70286 7.90601 6.70286 7.9078 6.70465 7.9078L7.6475 6.96494C7.01 5.72744 7.21 4.1703 8.2475 3.1328C8.58212 2.79788 8.98508 2.53915 9.42887 2.37427C9.87266 2.20939 10.3468 2.14225 10.8189 2.17744L8.44572 4.54887C8.33853 4.65618 8.27832 4.80166 8.27832 4.95333C8.27832 5.10501 8.33853 5.25049 8.44572 5.3578L10.6689 7.58101C10.7762 7.6882 10.9217 7.74841 11.0734 7.74841C11.2251 7.74841 11.3705 7.6882 11.4779 7.58101L13.8493 5.20958C13.9154 6.13458 13.5921 7.08101 12.8921 7.77923Z"/>
</svg>
