<svg width="20" height="20" viewBox="0 0 20 20" fill="currentColor" xmlns="http://www.w3.org/2000/svg">
<g clip-path="url(#clip0UpCircle)">
<path d="M10.1445 6.61423C10.1281 6.59141 10.1065 6.57283 10.0815 6.56002C10.0564 6.5472 10.0287 6.54052 10.0006 6.54052C9.97245 6.54052 9.94473 6.5472 9.9197 6.56002C9.89467 6.57283 9.87304 6.59141 9.8566 6.61423L5.88339 12.1053C5.79857 12.2236 5.88339 12.3888 6.02848 12.3888H7.07535C7.30303 12.3888 7.51955 12.2794 7.65348 12.0941L9.99946 8.84861L12.3477 12.0941C12.4816 12.2794 12.6959 12.3888 12.9258 12.3888H13.9727C14.1178 12.3888 14.2026 12.2236 14.1178 12.1053L10.1445 6.61423Z"/>
<path d="M10 0C4.47768 0 0 4.47768 0 10C0 15.5223 4.47768 20 10 20C15.5223 20 20 15.5223 20 10C20 4.47768 15.5223 0 10 0ZM10 18.3036C5.41518 18.3036 1.69643 14.5848 1.69643 10C1.69643 5.41518 5.41518 1.69643 10 1.69643C14.5848 1.69643 18.3036 5.41518 18.3036 10C18.3036 14.5848 14.5848 18.3036 10 18.3036Z"/>
</g>
<defs >
<clipPath id="clip0UpCircle" >
<rect width="20" height="20" />
</clipPath>
</defs>
</svg>
