<svg width="40" height="40" viewBox="0 0 40 40" fill="none" xmlns="http://www.w3.org/2000/svg">
<path fill-rule="evenodd" clip-rule="evenodd" d="M20 40C31.0457 40 40 31.0457 40 20C40 8.95431 31.0457 0 20 0C8.95431 0 0 8.95431 0 20C0 31.0457 8.95431 40 20 40Z" fill="#13C2C2"/>
<path d="M23.411 15.72C24.4048 15.72 25.2104 14.9143 25.2104 13.9205C25.2104 12.9267 24.4048 12.1211 23.411 12.1211C22.4172 12.1211 21.6116 12.9267 21.6116 13.9205C21.6116 14.9143 22.4172 15.72 23.411 15.72Z" fill="white"/>
<path d="M23.3691 19.4194L20.2028 19.3597C19.9968 19.3556 19.8009 19.2698 19.6582 19.1212C19.5154 18.9727 19.4375 18.7735 19.4417 18.5675C19.4458 18.3615 19.5316 18.1656 19.6801 18.0229C19.8287 17.8801 20.0279 17.8023 20.2339 17.8064L23.0579 17.8625L25.3102 15.5027C25.4528 15.3537 25.6487 15.2674 25.8549 15.2629C26.0612 15.2583 26.2607 15.3359 26.4097 15.4785C26.5588 15.6211 26.645 15.8171 26.6496 16.0233C26.6541 16.2295 26.5765 16.4291 26.4339 16.5781L23.9457 19.184C23.8711 19.2611 23.7814 19.3218 23.6822 19.3623C23.5829 19.4029 23.4763 19.4223 23.3691 19.4194Z" fill="white"/>
<path d="M28.5972 21.9884C28.3533 21.9889 28.1135 21.9257 27.9015 21.8053C27.6894 21.6848 27.5125 21.5111 27.388 21.3013L25.0019 17.2747C24.8118 16.9544 24.7567 16.5717 24.8487 16.2107C24.9407 15.8498 25.1724 15.5402 25.4927 15.3501C25.813 15.1599 26.1957 15.1048 26.5566 15.1969C26.9176 15.2889 27.2272 15.5206 27.4173 15.8409L29.8034 19.8675C29.9299 20.0805 29.9977 20.3232 29.9999 20.571C30.0022 20.8187 29.9389 21.0626 29.8163 21.2779C29.6938 21.4932 29.5165 21.6722 29.3024 21.7968C29.0882 21.9214 28.8449 21.9871 28.5972 21.9872V21.9884Z" fill="white"/>
<path d="M25.8461 28.4526C25.6701 28.4525 25.4993 28.3926 25.3618 28.2828C25.2243 28.1729 25.1281 28.0196 25.0891 27.848L24.4021 24.8262C24.3767 24.715 24.3762 24.5997 24.4004 24.4882C24.4247 24.3768 24.4732 24.2721 24.5425 24.1816L27.7495 19.9912C27.8115 19.9102 27.8888 19.8422 27.977 19.7911C28.0653 19.74 28.1628 19.7068 28.2639 19.6933C28.365 19.6799 28.4677 19.6864 28.5663 19.7127C28.6649 19.739 28.7573 19.7844 28.8383 19.8464C28.9193 19.9084 28.9873 19.9857 29.0384 20.0739C29.0895 20.1622 29.1228 20.2597 29.1362 20.3608C29.1497 20.4619 29.1431 20.5646 29.1168 20.6632C29.0905 20.7618 29.0451 20.8542 28.9832 20.9352L25.996 24.8364L26.603 27.5021C26.6487 27.7029 26.6128 27.9137 26.5031 28.088C26.3934 28.2623 26.219 28.3859 26.0181 28.4317C25.9617 28.4449 25.904 28.4519 25.8461 28.4526Z" fill="white"/>
<path d="M28.3666 28.481C28.2441 28.4811 28.1233 28.4523 28.0141 28.3968C27.9049 28.3414 27.8103 28.2609 27.7381 28.1619L25.456 25.0272C25.3543 24.8879 25.3019 24.7186 25.3071 24.5462C25.3123 24.3737 25.3748 24.2079 25.4846 24.0749L28.565 20.3446C28.6962 20.1858 28.8851 20.0856 29.0902 20.066C29.2953 20.0465 29.4997 20.1092 29.6586 20.2404C29.8174 20.3716 29.9176 20.5605 29.9372 20.7656C29.9567 20.9707 29.894 21.1751 29.7628 21.334L27.066 24.5983L28.9939 27.2455C29.0782 27.3613 29.1288 27.4981 29.1402 27.6409C29.1516 27.7837 29.1232 27.9269 29.0583 28.0545C28.9934 28.1822 28.8944 28.2894 28.7723 28.3644C28.6503 28.4393 28.5099 28.479 28.3666 28.4792V28.481Z" fill="white"/>
<path d="M10 11.3283V18.4932C10 18.575 10.0325 18.6534 10.0903 18.7112C10.1481 18.769 10.2265 18.8015 10.3083 18.8015H18.1465C18.1874 18.8015 18.2278 18.7934 18.2655 18.7776C18.3032 18.7618 18.3373 18.7386 18.366 18.7095C18.3946 18.6804 18.4172 18.6458 18.4323 18.6079C18.4474 18.5699 18.4549 18.5293 18.4542 18.4885C18.4344 17.3796 18.2242 13.6242 16.3291 12.1241C14.7758 10.8958 11.3191 10.9717 10.2951 11.0236C10.2162 11.0269 10.1416 11.0603 10.0867 11.117C10.0317 11.1737 10.0007 11.2494 10 11.3283Z" fill="white"/>
<path d="M19.3198 19.6204C19.3197 19.5425 19.2968 19.4664 19.2541 19.4012L18.9596 18.9531L18.5121 19.3373C18.3099 19.4674 18.0745 19.5367 17.834 19.5368H10V26.8744H17.7181C17.7181 26.8744 18.5073 26.8953 18.9034 26.1575C19.2995 25.4197 19.3216 24.1758 19.3216 22.9105V19.6204H19.3198ZM15.6917 24.0629C13.6252 24.3688 13.6885 23.346 13.6885 23.346C13.6885 23.346 13.6885 22.6817 14.7424 21.9964C15.6982 21.3739 16.6613 21.5436 17.0723 22.1547C17.4833 22.7659 17.7588 23.757 15.6923 24.0629H15.6917Z" fill="white"/>
<path d="M15.2245 27.64C15.2245 27.64 14.9706 28.6293 16.2449 28.9059C17.3734 29.1509 19.0874 29.0594 19.3204 28.1968C19.5534 27.3341 19.4154 26.7367 19.152 26.8263C18.7619 26.9589 18.3891 27.6627 17.2749 27.6501C16.0836 27.64 15.2245 27.64 15.2245 27.64Z" fill="white"/>
</svg>
