<svg width="20" height="20" viewBox="0 0 20 20" fill="none" xmlns="http://www.w3.org/2000/svg">
<path d="M18.0804 1.25H12.4554C12.3817 1.25 12.3214 1.31027 12.3214 1.38393V2.63393C12.3214 2.70759 12.3817 2.76786 12.4554 2.76786H16.0357L11.5871 7.21652C10.471 6.35714 9.10938 5.89286 7.67857 5.89286C5.96205 5.89286 4.34598 6.5625 3.13393 7.77679C1.92187 8.99107 1.25 10.6049 1.25 12.3214C1.25 14.0379 1.91964 15.654 3.13393 16.8661C4.34598 18.0804 5.96205 18.75 7.67857 18.75C9.39509 18.75 11.0112 18.0804 12.2232 16.8661C13.4375 15.654 14.1071 14.0379 14.1071 12.3214C14.1071 10.8906 13.6429 9.53348 12.7857 8.41741L17.2321 3.97098V7.54464C17.2321 7.6183 17.2924 7.67857 17.3661 7.67857H18.6161C18.6897 7.67857 18.75 7.6183 18.75 7.54464V1.91964C18.75 1.55134 18.4487 1.25 18.0804 1.25ZM7.67857 17.0536C5.0692 17.0536 2.94643 14.9308 2.94643 12.3214C2.94643 9.71205 5.0692 7.58929 7.67857 7.58929C10.2879 7.58929 12.4107 9.71205 12.4107 12.3214C12.4107 14.9308 10.2879 17.0536 7.67857 17.0536Z" fill="#40A9FF"/>
</svg>
