<svg width="20" height="20" viewBox="0 0 20 20" fill="none" xmlns="http://www.w3.org/2000/svg">
<g clip-path="url(#clip0)">
<path d="M14.4823 10.8214C15.6787 9.625 16.3395 8.03125 16.3395 6.33929C16.3395 4.64509 15.681 3.05357 14.4823 1.85714C13.2859 0.660714 11.6921 0 10.0002 0C8.30821 0 6.71446 0.658482 5.51803 1.85714C4.3216 3.0558 3.66089 4.64509 3.66089 6.33929C3.66089 7.76339 4.12741 9.11607 4.98678 10.221C5.14973 10.4308 5.32607 10.6295 5.5158 10.8214C5.70553 11.0112 5.90642 11.1875 6.11401 11.3504C6.99794 12.0379 8.04035 12.4754 9.15196 12.6228V15H6.60732C6.5091 15 6.42875 15.0804 6.42875 15.1786V16.5179C6.42875 16.6161 6.5091 16.6964 6.60732 16.6964H9.15196V19.8214C9.15196 19.9196 9.23232 20 9.33053 20H10.6698C10.768 20 10.8484 19.9196 10.8484 19.8214V16.6964H13.393C13.4912 16.6964 13.5716 16.6161 13.5716 16.5179V15.1786C13.5716 15.0804 13.4912 15 13.393 15H10.8484V12.6228C12.2212 12.4397 13.4868 11.817 14.4823 10.8214ZM10.0002 10.9821C8.7591 10.9821 7.59616 10.5 6.71669 9.62277C5.83946 8.74554 5.35732 7.58036 5.35732 6.33929C5.35732 5.09821 5.83946 3.93527 6.71669 3.0558C7.59393 2.17634 8.7591 1.69643 10.0002 1.69643C11.2412 1.69643 12.4042 2.17857 13.2837 3.0558C14.1609 3.93304 14.643 5.09821 14.643 6.33929C14.643 7.58036 14.1609 8.7433 13.2837 9.62277C12.4042 10.5 11.2412 10.9821 10.0002 10.9821Z" fill="#FF4D4F"/>
</g>
<defs>
<clipPath id="clip0">
<rect width="20" height="20" fill="white"/>
</clipPath>
</defs>
</svg>
