<svg width="40" height="40" viewBox="0 0 40 40" fill="none" xmlns="http://www.w3.org/2000/svg">
<circle cx="20" cy="20" r="20" fill="#FFA940"/>
<path d="M27.5 18.875H15.7812V13.625C15.7812 12.9008 16.3695 12.3125 17.0938 12.3125H22.9062C23.6305 12.3125 24.2188 12.9008 24.2188 13.625V15.2188C24.2188 15.3219 24.3031 15.4062 24.4062 15.4062H25.7188C25.8219 15.4062 25.9062 15.3219 25.9062 15.2188V13.625C25.9062 11.968 24.5633 10.625 22.9062 10.625H17.0938C15.4367 10.625 14.0938 11.968 14.0938 13.625V18.875H12.5C12.0852 18.875 11.75 19.2102 11.75 19.625V28.625C11.75 29.0398 12.0852 29.375 12.5 29.375H27.5C27.9148 29.375 28.25 29.0398 28.25 28.625V19.625C28.25 19.2102 27.9148 18.875 27.5 18.875ZM20.6562 24.4297V25.6719C20.6562 25.775 20.5719 25.8594 20.4688 25.8594H19.5312C19.4281 25.8594 19.3438 25.775 19.3438 25.6719V24.4297C19.1503 24.2908 19.0059 24.0941 18.9313 23.8679C18.8568 23.6417 18.8559 23.3977 18.9289 23.1709C19.0018 22.9442 19.1448 22.7465 19.3373 22.6062C19.5298 22.466 19.7618 22.3904 20 22.3904C20.2382 22.3904 20.4702 22.466 20.6627 22.6062C20.8552 22.7465 20.9982 22.9442 21.0711 23.1709C21.1441 23.3977 21.1432 23.6417 21.0687 23.8679C20.9941 24.0941 20.8497 24.2908 20.6562 24.4297Z" fill="white"/>
</svg>
