<svg width="40" height="40" viewBox="0 0 40 40" fill="none" xmlns="http://www.w3.org/2000/svg">
<circle cx="20" cy="20" r="20" fill="#389E0D"/>
<path fill-rule="evenodd" clip-rule="evenodd" d="M26.3113 13.5615C26.6087 13.2667 27.0101 13.1008 27.4289 13.0996C27.8476 13.0985 28.25 13.2622 28.549 13.5553C28.848 13.8485 29.0197 14.2475 29.0268 14.6662C29.0339 15.0849 28.876 15.4896 28.5872 15.7927L20.1042 26.3965C19.9584 26.5535 19.7824 26.6795 19.5868 26.767C19.3912 26.8545 19.1799 26.9016 18.9657 26.9056C18.7514 26.9095 18.5386 26.8703 18.3399 26.7901C18.1412 26.7099 17.9607 26.5905 17.8092 26.439L12.1885 20.8162C12.0319 20.6703 11.9064 20.4944 11.8192 20.2989C11.7321 20.1034 11.6853 19.8923 11.6815 19.6783C11.6777 19.4643 11.7171 19.2518 11.7973 19.0533C11.8774 18.8549 11.9967 18.6746 12.1481 18.5233C12.2994 18.3719 12.4797 18.2526 12.6781 18.1725C12.8766 18.0923 13.0891 18.0529 13.3031 18.0567C13.5171 18.0605 13.7282 18.1073 13.9237 18.1944C14.1192 18.2816 14.2951 18.4071 14.441 18.5637L18.8908 23.0114L26.2709 13.6082C26.2841 13.5918 26.2983 13.5762 26.3134 13.5615H26.3113Z" fill="white"/>
</svg>
