<svg width="40" height="40" viewBox="0 0 40 40" fill="none" xmlns="http://www.w3.org/2000/svg">
<circle cx="20" cy="20" r="20" fill="#FF4D4F"/>
<path d="M28.25 14H25.25V12.125C25.25 11.2977 24.5773 10.625 23.75 10.625H16.25C15.4227 10.625 14.75 11.2977 14.75 12.125V14H11.75C11.3352 14 11 14.3352 11 14.75V15.5C11 15.6031 11.0844 15.6875 11.1875 15.6875H12.6031L13.182 27.9453C13.2195 28.7445 13.8805 29.375 14.6797 29.375H25.3203C26.1219 29.375 26.7805 28.7469 26.818 27.9453L27.3969 15.6875H28.8125C28.9156 15.6875 29 15.6031 29 15.5V14.75C29 14.3352 28.6648 14 28.25 14ZM23.5625 14H16.4375V12.3125H23.5625V14Z" fill="white"/>
</svg>
