<svg width="40" height="38" viewBox="0 0 40 38" fill="none" xmlns="http://www.w3.org/2000/svg">
<path d="M14.1868 22.431C10.7458 22.431 7.29307 22.4427 3.85208 22.431C1.91432 22.4192 0.387605 21.0569 0.0470299 19.0957C-0.24657 17.4163 0.798645 15.6195 2.50152 14.997C3.00651 14.8091 3.57022 14.7387 4.11045 14.7387C10.781 14.7269 17.4516 14.7269 24.1339 14.7269C24.6507 14.7269 25.2614 14.8444 25.508 14.2219C25.7429 13.6113 25.2496 13.2589 24.8738 12.8949C22.7364 10.7927 20.5873 8.71402 18.4733 6.58836C16.3359 4.40398 17.3342 0.833806 20.2819 0.117424C21.656 -0.211408 22.8891 0.140912 23.8991 1.13915C28.3148 5.47268 32.7188 9.80621 37.1228 14.1515C37.6982 14.7152 38.2737 15.2672 38.8374 15.8426C40.3641 17.3928 40.3993 19.7534 38.8609 21.2801C33.8579 26.236 28.8315 31.1803 23.7934 36.101C22.3019 37.5572 19.8826 37.475 18.4498 35.9953C16.9818 34.4921 16.9349 32.1433 18.4264 30.6518C20.6225 28.4439 22.8538 26.283 25.0735 24.0986C25.1557 24.0164 25.2848 23.946 25.3201 23.852C25.414 23.5349 25.6019 23.1591 25.508 22.9007C25.4258 22.6776 25.003 22.4662 24.7211 22.4662C22.8069 22.431 20.8809 22.4427 18.9666 22.4427C17.3577 22.431 15.7722 22.431 14.1868 22.431Z" fill="#3D3D3D"/>
</svg>
