<svg width="14" height="16" viewBox="0 0 14 16" fill="none" xmlns="http://www.w3.org/2000/svg">
<path d="M13.7859 12.641H12.3573V11.2125C12.3573 11.1339 12.293 11.0696 12.2144 11.0696H11.3573C11.2787 11.0696 11.2144 11.1339 11.2144 11.2125V12.641H9.78586C9.70729 12.641 9.64301 12.7053 9.64301 12.7839V13.641C9.64301 13.7196 9.70729 13.7839 9.78586 13.7839H11.2144V15.2125C11.2144 15.291 11.2787 15.3553 11.3573 15.3553H12.2144C12.293 15.3553 12.3573 15.291 12.3573 15.2125V13.7839H13.7859C13.8644 13.7839 13.9287 13.7196 13.9287 13.641V12.7839C13.9287 12.7053 13.8644 12.641 13.7859 12.641ZM4.52694 7.75533C4.51086 7.59997 4.50194 7.44283 4.50194 7.2839C4.50194 6.99997 4.52872 6.72319 4.57872 6.45354C4.59122 6.38926 4.55729 6.32319 4.49836 6.2964C4.25551 6.18747 4.03229 6.03747 3.83944 5.84819C3.61218 5.62784 3.43336 5.36255 3.31437 5.06923C3.19538 4.77591 3.13885 4.46101 3.14836 4.14462C3.16443 3.5714 3.39479 3.02676 3.79658 2.61604C4.23765 2.16426 4.83051 1.91783 5.46086 1.92497C6.03051 1.93033 6.58051 2.14997 6.99658 2.53926C7.13765 2.6714 7.25908 2.81783 7.36086 2.97497C7.39658 3.03033 7.46622 3.05354 7.52694 3.03212C7.84122 2.92319 8.17336 2.8464 8.51444 2.81069C8.61444 2.79997 8.67158 2.69283 8.62694 2.60354C8.04658 1.45533 6.86086 0.662473 5.48944 0.641044C3.51086 0.610687 1.86086 2.2339 1.86086 4.21247C1.86086 5.3339 2.37693 6.3339 3.18586 6.98926C2.61801 7.25176 2.09479 7.61426 1.64122 8.06783C0.662649 9.04462 0.109077 10.3339 0.0733631 11.7107C0.0728865 11.7297 0.0762296 11.7487 0.0831951 11.7665C0.0901607 11.7842 0.100608 11.8004 0.113921 11.814C0.127234 11.8277 0.143144 11.8385 0.160714 11.8459C0.178283 11.8533 0.197156 11.8571 0.21622 11.8571H1.21801C1.29479 11.8571 1.35908 11.7964 1.36086 11.7196C1.39479 10.6839 1.81443 9.71426 2.55193 8.97854C3.07693 8.45354 3.71979 8.08926 4.42158 7.91247C4.48944 7.89283 4.53586 7.82676 4.52694 7.75533ZM12.5716 7.2839C12.5716 5.33033 11.0019 3.74283 9.05551 3.71247C7.07693 3.68212 5.42872 5.30533 5.42872 7.2839C5.42872 8.40533 5.94658 9.40533 6.75372 10.0607C6.17998 10.3266 5.65769 10.6918 5.21086 11.1393C4.23229 12.116 3.67872 13.4053 3.64301 14.7803C3.64253 14.7994 3.64587 14.8183 3.65284 14.8361C3.6598 14.8538 3.67025 14.87 3.68356 14.8837C3.69688 14.8973 3.71279 14.9081 3.73036 14.9156C3.74793 14.923 3.7668 14.9268 3.78586 14.9268H4.78586C4.86265 14.9268 4.92694 14.866 4.92872 14.7893C4.96265 13.7535 5.38229 12.7839 6.11979 12.0482C6.88944 11.2785 7.91086 10.8553 9.00015 10.8553C10.9716 10.8553 12.5716 9.25712 12.5716 7.2839ZM10.6162 8.89997C10.1841 9.33212 9.61086 9.56962 9.00015 9.56962C8.38944 9.56962 7.81622 9.33212 7.38408 8.89997C7.16843 8.68545 6.99804 8.42982 6.88302 8.14824C6.76799 7.86665 6.71066 7.56484 6.71444 7.26069C6.71979 6.67497 6.95372 6.1089 7.36265 5.68926C7.79122 5.24997 8.36444 5.00533 8.97694 4.99819C9.58229 4.99283 10.1698 5.22854 10.6019 5.65176C11.0448 6.08569 11.2877 6.66604 11.2877 7.2839C11.2859 7.89462 11.0484 8.46783 10.6162 8.89997Z" fill="#FA8C16"/>
</svg>
