<svg width="16" height="10" viewBox="0 0 16 10" fill="none" xmlns="http://www.w3.org/2000/svg">
<path d="M8.66666 4.3335C9.06222 4.3335 9.4489 4.2162 9.7778 3.99644C10.1067 3.77667 10.363 3.46432 10.5144 3.09886C10.6658 2.73341 10.7054 2.33128 10.6282 1.94332C10.5511 1.55535 10.3606 1.19899 10.0809 0.919283C9.80116 0.639578 9.4448 0.449097 9.05684 0.371926C8.66887 0.294756 8.26674 0.334363 7.90129 0.485738C7.53584 0.637113 7.22348 0.893458 7.00372 1.22236C6.78395 1.55125 6.66666 1.93793 6.66666 2.3335C6.66666 2.86393 6.87737 3.37264 7.25244 3.74771C7.62751 4.12278 8.13622 4.3335 8.66666 4.3335ZM8.66666 1.66683C8.79851 1.66683 8.9274 1.70593 9.03704 1.77918C9.14667 1.85244 9.23212 1.95656 9.28258 2.07837C9.33303 2.20019 9.34624 2.33424 9.32051 2.46356C9.29479 2.59288 9.2313 2.71167 9.13806 2.8049C9.04483 2.89814 8.92604 2.96163 8.79672 2.98735C8.6674 3.01308 8.53335 2.99988 8.41153 2.94942C8.28972 2.89896 8.1856 2.81351 8.11234 2.70388C8.03909 2.59424 7.99999 2.46535 7.99999 2.3335C7.99999 2.15669 8.07023 1.98712 8.19525 1.86209C8.32028 1.73707 8.48984 1.66683 8.66666 1.66683ZM11.4067 4.24016C11.7967 3.68085 12.0058 3.01538 12.0058 2.3335C12.0058 1.65162 11.7967 0.986143 11.4067 0.42683C11.5984 0.365106 11.7986 0.333617 12 0.333497C12.5304 0.333497 13.0391 0.544211 13.4142 0.919283C13.7893 1.29436 14 1.80306 14 2.3335C14 2.86393 13.7893 3.37264 13.4142 3.74771C13.0391 4.12278 12.5304 4.3335 12 4.3335C11.7986 4.33338 11.5984 4.30189 11.4067 4.24016ZM8.66666 5.66683C4.66666 5.66683 4.66666 8.3335 4.66666 8.3335V9.66683H12.6667V8.3335C12.6667 8.3335 12.6667 5.66683 8.66666 5.66683ZM5.99999 8.3335C5.99999 8.14016 6.21332 7.00016 8.66666 7.00016C11 7.00016 11.2933 8.04016 11.3333 8.3335H5.99999ZM16 8.3335V9.66683H14V8.3335C13.9844 7.83793 13.8703 7.35042 13.6642 6.89944C13.4582 6.44846 13.1644 6.04303 12.8 5.70683C16 6.0335 16 8.3335 16 8.3335ZM4.89332 2.94683L5.66666 3.88683L2.49999 7.0535L0.666656 5.0535L1.43999 4.28016L2.49999 5.3335L4.89332 2.94683Z" fill="#FA8C16"/>
</svg>
