<svg width="12" height="14" viewBox="0 0 12 14" fill="none" xmlns="http://www.w3.org/2000/svg">
<path d="M3.33332 5.89425V7.35692C2.9798 7.56176 2.67808 7.84512 2.45148 8.1851C2.22488 8.52509 2.07946 8.91261 2.02644 9.31774C1.97343 9.72287 2.01424 10.1348 2.14572 10.5216C2.2772 10.9085 2.49585 11.2599 2.78476 11.5488C3.07367 11.8377 3.42512 12.0564 3.81197 12.1879C4.19881 12.3193 4.61071 12.3602 5.01584 12.3071C5.42096 12.2541 5.80849 12.1087 6.14847 11.8821C6.48846 11.6555 6.77182 11.3538 6.97666 11.0003H8.43866C8.12313 11.8888 7.50392 12.6375 6.69026 13.114C5.87661 13.5906 4.92079 13.7645 3.99142 13.6051C3.06205 13.4456 2.21884 12.9631 1.61055 12.2426C1.00226 11.5221 0.667973 10.6099 0.666656 9.66692C0.666653 8.83957 0.923073 8.03255 1.40062 7.35693C1.87818 6.68132 2.55338 6.17031 3.33332 5.89425ZM5.99999 10.3336C5.46956 10.3336 4.96085 10.1229 4.58578 9.7478C4.2107 9.37273 3.99999 8.86402 3.99999 8.33359V5.66692C3.99999 4.97092 4.35599 4.35759 4.89532 3.99959C4.53723 3.76201 4.26518 3.41542 4.11947 3.01114C3.97376 2.60686 3.96214 2.1664 4.08634 1.755C4.21053 1.34361 4.46393 0.983152 4.80901 0.727032C5.15408 0.470912 5.57247 0.332749 6.0022 0.333008C6.43194 0.333268 6.85016 0.471935 7.19492 0.728472C7.53969 0.985008 7.79265 1.34577 7.91635 1.75732C8.04005 2.16886 8.0279 2.60931 7.8817 3.01341C7.7355 3.41751 7.46304 3.76378 7.10466 4.00092C7.38018 4.18276 7.60622 4.43018 7.7625 4.72097C7.91877 5.01176 8.00038 5.3368 7.99999 5.66692V8.99959L8.95599 9.00025C9.16797 9.00029 9.37688 9.05088 9.5654 9.1478C9.75392 9.24473 9.91662 9.38521 10.04 9.55759L10.0993 9.64759L11.9047 12.6576L10.762 13.3429L8.95532 10.3336L7.99999 10.3329L5.99999 10.3336ZM5.99999 5.00025C5.82318 5.00025 5.65361 5.07049 5.52858 5.19552C5.40356 5.32054 5.33332 5.49011 5.33332 5.66692V8.33359C5.33332 8.5104 5.40356 8.67997 5.52858 8.80499C5.65361 8.93002 5.82318 9.00025 5.99999 9.00025H6.66599L6.66666 5.66692C6.66666 5.49011 6.59642 5.32054 6.47139 5.19552C6.34637 5.07049 6.1768 5.00025 5.99999 5.00025ZM5.99999 1.66692C5.82318 1.66692 5.65361 1.73716 5.52858 1.86218C5.40356 1.98721 5.33332 2.15678 5.33332 2.33359C5.33332 2.5104 5.40356 2.67997 5.52858 2.80499C5.65361 2.93002 5.82318 3.00025 5.99999 3.00025C6.1768 3.00025 6.34637 2.93002 6.47139 2.80499C6.59642 2.67997 6.66666 2.5104 6.66666 2.33359C6.66666 2.15678 6.59642 1.98721 6.47139 1.86218C6.34637 1.73716 6.1768 1.66692 5.99999 1.66692Z" fill="#FA8C16"/>
</svg>
